<svg width="285" height="214" viewBox="0 0 285 214" fill="none" xmlns="http://www.w3.org/2000/svg">
<path d="M284.324 190.714H1.14906C1.088 190.714 1.02748 190.702 0.971138 190.679C0.914795 190.655 0.863768 190.62 0.821053 190.577C0.77773 190.535 0.743359 190.485 0.719978 190.43C0.696598 190.374 0.684711 190.315 0.685066 190.255C0.685939 190.134 0.734841 190.018 0.821053 189.933C0.910287 189.85 1.0274 189.804 1.14906 189.804H284.324C284.446 189.803 284.564 189.849 284.654 189.933C284.697 189.975 284.731 190.025 284.755 190.08C284.779 190.135 284.791 190.195 284.791 190.255C284.792 190.315 284.78 190.375 284.756 190.43C284.733 190.485 284.698 190.535 284.654 190.577C284.611 190.621 284.56 190.656 284.503 190.679C284.446 190.703 284.385 190.714 284.324 190.714Z" fill="#D1D3D4"/>
<path d="M227.422 124.324H174.746V190.256H227.422V124.324Z" fill="white"/>
<path d="M227.43 190.714H174.746C174.686 190.714 174.627 190.701 174.571 190.678C174.516 190.654 174.466 190.62 174.424 190.577C174.38 190.535 174.346 190.486 174.322 190.43C174.298 190.375 174.287 190.315 174.287 190.255V124.323C174.287 124.263 174.3 124.203 174.323 124.148C174.347 124.093 174.381 124.043 174.424 124.001C174.512 123.919 174.627 123.873 174.746 123.872H227.43C227.552 123.873 227.67 123.919 227.76 124.001C227.844 124.088 227.893 124.202 227.897 124.323V190.283C227.89 190.4 227.838 190.509 227.752 190.589C227.664 190.669 227.549 190.714 227.43 190.714ZM175.212 189.804H226.963V124.783H175.172L175.212 189.804Z" fill="#D1D3D4"/>
<path d="M222.465 128.831H179.72V185.748H222.465V128.831Z" fill="white"/>
<path d="M222.44 186.199H179.719C179.659 186.201 179.598 186.19 179.542 186.168C179.485 186.147 179.434 186.114 179.391 186.072C179.347 186.03 179.312 185.979 179.289 185.924C179.265 185.868 179.252 185.808 179.252 185.748V128.83C179.251 128.77 179.263 128.71 179.287 128.655C179.31 128.599 179.345 128.549 179.389 128.508C179.432 128.464 179.483 128.429 179.54 128.406C179.597 128.382 179.658 128.37 179.719 128.371H222.44C222.501 128.37 222.562 128.382 222.619 128.406C222.676 128.429 222.727 128.464 222.77 128.508C222.814 128.549 222.848 128.599 222.872 128.655C222.896 128.71 222.908 128.77 222.907 128.83V185.715C222.908 185.777 222.899 185.84 222.883 185.9C222.86 185.959 222.826 186.014 222.783 186.061C222.738 186.103 222.686 186.137 222.63 186.161C222.571 186.19 222.506 186.204 222.44 186.199ZM180.162 185.29H221.983V129.281H180.183L180.162 185.29Z" fill="#D1D3D4"/>
<path d="M222.465 180.292V185.749H218.956L200.236 161.508L196.405 156.574L179.72 134.981V128.832H182.62L200.238 151.601L204.069 156.575L222.465 180.292Z" fill="white"/>
<path d="M222.44 186.207H218.94C218.87 186.207 218.802 186.191 218.74 186.159C218.676 186.127 218.621 186.08 218.579 186.023L179.352 135.254C179.288 135.177 179.253 135.08 179.252 134.98V128.831C179.251 128.771 179.263 128.711 179.287 128.656C179.31 128.6 179.345 128.55 179.389 128.509C179.432 128.465 179.483 128.43 179.54 128.407C179.597 128.383 179.658 128.371 179.719 128.372H182.592C182.661 128.373 182.728 128.387 182.792 128.413C182.855 128.446 182.912 128.489 182.961 128.541L204.402 156.3L222.802 179.986C222.866 180.063 222.901 180.16 222.902 180.26V185.733C222.903 185.793 222.892 185.853 222.87 185.91C222.847 185.967 222.813 186.019 222.77 186.063C222.728 186.105 222.679 186.139 222.625 186.163C222.566 186.186 222.503 186.201 222.44 186.207ZM219.172 185.29H221.949V180.445L199.816 151.873L182.343 129.281H180.183V134.818L219.172 185.29Z" fill="#D1D3D4"/>
<path d="M222.465 128.831V132.815L204.065 156.573L200.234 161.507L181.506 185.748H179.719V178.126L196.403 156.573L200.234 151.599L217.884 128.83L222.465 128.831Z" fill="white"/>
<path d="M181.507 186.199H179.72C179.66 186.201 179.599 186.19 179.543 186.168C179.486 186.147 179.435 186.114 179.392 186.072C179.348 186.03 179.313 185.979 179.29 185.924C179.266 185.868 179.253 185.808 179.253 185.748V178.126C179.254 178.026 179.289 177.929 179.353 177.852L217.518 128.54C217.561 128.487 217.616 128.445 217.679 128.419C217.744 128.387 217.816 128.371 217.888 128.371H222.444C222.505 128.37 222.566 128.382 222.623 128.406C222.68 128.429 222.731 128.464 222.774 128.508C222.818 128.549 222.852 128.599 222.876 128.655C222.9 128.71 222.911 128.77 222.911 128.83V132.814C222.911 132.914 222.876 133.011 222.811 133.087L181.861 186.021C181.819 186.076 181.763 186.12 181.7 186.149C181.641 186.182 181.574 186.199 181.507 186.199ZM180.179 185.29H181.274L221.999 132.662V129.282H218.12L180.183 178.292L180.179 185.29Z" fill="#D1D3D4"/>
<path d="M108.855 190.256H174.763V124.324H108.855V190.256Z" fill="white"/>
<path d="M174.747 190.714H108.847C108.785 190.715 108.725 190.703 108.668 190.679C108.611 190.656 108.56 190.621 108.517 190.577C108.473 190.535 108.438 190.485 108.415 190.43C108.391 190.375 108.379 190.315 108.38 190.255V124.323C108.38 124.263 108.392 124.203 108.416 124.148C108.439 124.093 108.474 124.043 108.517 124.001C108.607 123.918 108.724 123.871 108.847 123.872H174.747C174.869 123.871 174.987 123.918 175.077 124.001C175.12 124.043 175.154 124.093 175.178 124.148C175.201 124.203 175.214 124.263 175.214 124.323V190.283C175.207 190.4 175.155 190.509 175.069 190.589C174.982 190.672 174.867 190.718 174.747 190.718V190.714ZM109.306 189.804H174.248V124.783H109.306V189.804Z" fill="#D1D3D4"/>
<path d="M169.973 128.831H113.619V185.748H169.973V128.831Z" fill="white"/>
<path d="M169.973 186.199H113.619C113.558 186.201 113.498 186.19 113.442 186.168C113.385 186.147 113.334 186.114 113.291 186.072C113.247 186.03 113.212 185.979 113.188 185.924C113.165 185.868 113.152 185.808 113.152 185.748V128.83C113.151 128.77 113.163 128.71 113.187 128.655C113.21 128.599 113.245 128.549 113.289 128.508C113.332 128.464 113.383 128.429 113.44 128.406C113.497 128.382 113.558 128.37 113.619 128.371H169.973C170.034 128.37 170.095 128.382 170.152 128.406C170.209 128.429 170.26 128.464 170.303 128.508C170.347 128.549 170.381 128.599 170.405 128.655C170.428 128.71 170.44 128.77 170.44 128.83V185.715C170.44 185.777 170.432 185.84 170.416 185.9C170.393 185.959 170.359 186.014 170.316 186.061C170.271 186.103 170.219 186.137 170.163 186.161C170.104 186.19 170.039 186.203 169.973 186.199ZM114.073 185.29H169.512V129.281H114.075L114.073 185.29Z" fill="#D1D3D4"/>
<path d="M113.627 180.292V185.749H118.227L142.927 161.508L147.982 156.574L169.982 134.98V128.831H166.151L142.932 151.6L137.87 156.574L113.627 180.292Z" fill="white"/>
<path d="M118.231 186.207H113.595C113.474 186.205 113.359 186.156 113.273 186.07C113.187 185.984 113.138 185.869 113.136 185.748V180.283C113.137 180.223 113.149 180.163 113.172 180.108C113.196 180.053 113.23 180.003 113.273 179.961L142.573 151.261L165.8 128.484C165.844 128.441 165.895 128.408 165.952 128.385C166.009 128.363 166.069 128.353 166.13 128.355H169.953C170.075 128.356 170.193 128.402 170.283 128.484C170.326 128.526 170.361 128.576 170.384 128.631C170.408 128.686 170.42 128.746 170.42 128.806V134.963C170.419 135.08 170.373 135.192 170.291 135.277L118.54 186.046C118.504 186.094 118.458 186.133 118.403 186.159C118.349 186.183 118.291 186.199 118.231 186.207ZM114.078 185.29H118.046L169.515 134.79V129.325H166.344L138.207 156.931L114.107 180.521L114.078 185.29Z" fill="#D1D3D4"/>
<path d="M113.627 128.831V132.815L137.869 156.573L142.931 161.507L167.623 185.748H169.981V178.126L147.981 156.573L142.926 151.599L119.658 128.83L113.627 128.831Z" fill="white"/>
<path d="M169.973 186.207H167.623C167.562 186.206 167.502 186.192 167.446 186.167C167.391 186.144 167.342 186.11 167.301 186.067L137.546 156.908L113.288 133.149C113.206 133.064 113.157 132.953 113.151 132.835V128.843C113.15 128.783 113.162 128.723 113.186 128.668C113.209 128.612 113.244 128.562 113.288 128.521C113.331 128.477 113.382 128.442 113.439 128.419C113.496 128.395 113.557 128.383 113.618 128.384H119.662C119.782 128.385 119.897 128.431 119.984 128.513L148.298 156.248L170.298 177.81C170.38 177.894 170.426 178.007 170.427 178.124V185.724C170.427 185.784 170.419 185.843 170.403 185.901C170.377 185.957 170.344 186.008 170.303 186.054C170.262 186.097 170.212 186.131 170.158 186.154C170.099 186.18 170.037 186.198 169.973 186.207ZM167.816 185.29H169.516V178.32L142.635 151.897L119.464 129.265H114.08V132.605L143.255 161.177L167.816 185.29Z" fill="#D1D3D4"/>
<path d="M252.897 58.3839H200.227V124.316H252.897V58.3839Z" fill="white"/>
<path d="M252.916 124.782H200.208C200.147 124.782 200.086 124.771 200.029 124.747C199.973 124.724 199.921 124.689 199.878 124.645C199.835 124.604 199.8 124.554 199.776 124.498C199.753 124.443 199.741 124.383 199.741 124.323V58.3829C199.744 58.2643 199.793 58.1515 199.878 58.0688C199.966 57.9815 200.085 57.9323 200.208 57.9319H252.884C253.008 57.9323 253.127 57.9815 253.214 58.0688C253.296 58.1536 253.345 58.2652 253.351 58.3829V124.323C253.352 124.44 253.305 124.553 253.222 124.637C253.143 124.722 253.033 124.774 252.916 124.782ZM200.699 123.873H252.45V58.8419H200.699V123.873Z" fill="#D1D3D4"/>
<path d="M247.938 62.8909H205.193V119.809H247.938V62.8909Z" fill="white"/>
<path d="M247.937 120.275H205.192C205.071 120.273 204.955 120.224 204.87 120.138C204.784 120.052 204.735 119.937 204.733 119.816V62.8819C204.733 62.8218 204.745 62.7624 204.769 62.7071C204.792 62.6518 204.827 62.6017 204.87 62.5599C204.957 62.4782 205.072 62.4321 205.192 62.4308H247.937C248.059 62.4305 248.177 62.4766 248.267 62.5599C248.31 62.6017 248.344 62.6518 248.368 62.7071C248.391 62.7624 248.404 62.8218 248.404 62.8819V119.816C248.404 119.876 248.391 119.935 248.368 119.991C248.344 120.046 248.31 120.096 248.267 120.138C248.224 120.182 248.173 120.216 248.116 120.24C248.059 120.263 247.998 120.275 247.937 120.275ZM205.659 119.358H247.47V63.3419H205.659V119.358Z" fill="#D1D3D4"/>
<path d="M247.938 114.36V119.809H244.438L225.718 95.5839L221.879 90.6418L205.195 69.0419V62.8928H208.1L225.718 85.6619L229.549 90.6438L247.938 114.36Z" fill="white"/>
<path d="M247.937 120.275H244.437C244.368 120.269 244.3 120.25 244.237 120.219C244.174 120.19 244.118 120.146 244.076 120.09L204.832 69.3129C204.775 69.2331 204.744 69.1378 204.743 69.0399V62.8819C204.743 62.8218 204.756 62.7624 204.779 62.7071C204.803 62.6518 204.837 62.6017 204.88 62.5599C204.968 62.4781 205.082 62.432 205.202 62.4309H208.108C208.181 62.4306 208.252 62.447 208.317 62.4788C208.379 62.5107 208.434 62.5546 208.478 62.6079L229.927 90.3588L248.327 114.045C248.384 114.125 248.415 114.221 248.416 114.319V119.792C248.42 119.852 248.412 119.912 248.392 119.969C248.373 120.03 248.339 120.086 248.292 120.13C248.25 120.175 248.197 120.209 248.139 120.23C248.075 120.258 248.007 120.273 247.937 120.275ZM244.669 119.358H247.446V114.513L225.313 85.9339L207.84 63.3419H205.627V68.8788L244.669 119.358Z" fill="#D1D3D4"/>
<path d="M247.938 62.8909V66.8749L229.547 90.6418L225.716 95.5839L206.988 119.809H205.193V112.203L221.877 90.6418L225.716 85.6598L243.358 62.8909H247.938Z" fill="white"/>
<path d="M206.987 120.275H205.192C205.071 120.273 204.955 120.224 204.87 120.138C204.784 120.052 204.735 119.937 204.733 119.816V112.194C204.734 112.096 204.765 112 204.822 111.92L242.995 62.6079C243.039 62.5545 243.094 62.5106 243.156 62.4788C243.221 62.4469 243.292 62.4305 243.365 62.4309H247.936C248.058 62.4305 248.176 62.4766 248.266 62.5599C248.309 62.6018 248.343 62.6518 248.367 62.7071C248.39 62.7624 248.403 62.8218 248.403 62.8819V66.8738C248.403 66.9723 248.372 67.0683 248.314 67.1479L207.356 120.114C207.306 120.163 207.249 120.204 207.187 120.235C207.123 120.26 207.055 120.273 206.987 120.275ZM205.659 119.358H206.753L247.469 66.7219V63.3419H243.582L205.65 112.356L205.659 119.358Z" fill="#D1D3D4"/>
<path d="M134.335 124.324H200.235V58.3919H134.335V124.324Z" fill="white"/>
<path d="M200.203 124.782H134.319C134.198 124.78 134.082 124.731 133.997 124.645C133.911 124.56 133.862 124.444 133.86 124.323V58.3829C133.859 58.3239 133.871 58.2654 133.895 58.2113C133.919 58.1572 133.953 58.1086 133.997 58.0688C134.039 58.0258 134.089 57.9914 134.144 57.9679C134.199 57.9444 134.259 57.9322 134.319 57.9319H200.203C200.323 57.9316 200.438 57.9779 200.525 58.0609C200.568 58.1028 200.602 58.1527 200.626 58.208C200.649 58.2633 200.662 58.3228 200.662 58.3829V124.323C200.66 124.444 200.611 124.56 200.525 124.645C200.44 124.731 200.324 124.78 200.203 124.782ZM134.754 123.873H199.736V58.8419H134.791L134.754 123.873Z" fill="#D1D3D4"/>
<path d="M195.454 62.8909H139.1V119.809H195.454V62.8909Z" fill="white"/>
<path d="M195.454 120.275H139.108C139.047 120.275 138.986 120.264 138.929 120.24C138.872 120.217 138.821 120.182 138.778 120.138C138.735 120.096 138.701 120.046 138.677 119.991C138.654 119.935 138.641 119.876 138.641 119.816V62.8819C138.641 62.8218 138.654 62.7624 138.677 62.7071C138.701 62.6518 138.735 62.6017 138.778 62.5599C138.868 62.4766 138.986 62.4305 139.108 62.4308H195.454C195.576 62.4321 195.693 62.478 195.784 62.5599C195.827 62.6017 195.861 62.6518 195.885 62.7071C195.909 62.7624 195.921 62.8218 195.921 62.8819V119.816C195.921 119.876 195.909 119.935 195.885 119.991C195.861 120.046 195.827 120.096 195.784 120.138C195.696 120.225 195.578 120.274 195.454 120.275ZM139.567 119.358H194.996V63.3419H139.567V119.358Z" fill="#D1D3D4"/>
<path d="M139.1 114.36V119.809H143.712L168.412 95.5839L173.466 90.6418L195.454 69.0419V62.8928H191.631L168.412 85.6619L163.35 90.6438L139.1 114.36Z" fill="white"/>
<path d="M143.712 120.275H139.076C138.952 120.274 138.834 120.225 138.746 120.138C138.664 120.051 138.618 119.936 138.617 119.816V114.351C138.615 114.29 138.626 114.23 138.648 114.173C138.67 114.116 138.704 114.065 138.746 114.021L168.046 85.3289L191.274 62.552C191.315 62.5082 191.365 62.4734 191.421 62.4498C191.476 62.4262 191.536 62.4143 191.596 62.4149H195.427C195.547 62.4143 195.662 62.4602 195.749 62.5429C195.792 62.5848 195.826 62.6349 195.85 62.6901C195.873 62.7454 195.886 62.8049 195.886 62.8649V69.0139C195.885 69.1359 195.839 69.2534 195.757 69.344L144.039 120.113C143.998 120.161 143.947 120.2 143.89 120.227C143.834 120.255 143.772 120.271 143.709 120.274L143.712 120.275ZM139.567 119.358H143.527L194.996 68.8469V63.3859H191.857L163.688 90.9599L139.588 114.56L139.567 119.358Z" fill="#D1D3D4"/>
<path d="M139.1 62.8909V66.8749L163.35 90.6418L168.413 95.5839L193.105 119.809H195.455V112.203L173.467 90.6418L168.413 85.6598L145.137 62.8909H139.1Z" fill="white"/>
<path d="M195.454 120.275H193.104C192.981 120.262 192.866 120.204 192.782 120.114L163.035 90.9549L138.777 67.2049C138.695 67.1143 138.649 66.9968 138.648 66.8748V62.8819C138.648 62.8218 138.66 62.7624 138.684 62.7071C138.707 62.6518 138.742 62.6017 138.785 62.5598C138.875 62.4766 138.993 62.4305 139.115 62.4308H145.143C145.204 62.4289 145.264 62.4398 145.32 62.4628C145.377 62.4858 145.429 62.5199 145.473 62.5629L173.803 90.3058L195.783 111.906C195.869 111.994 195.918 112.112 195.92 112.236V119.858C195.904 119.969 195.85 120.072 195.767 120.148C195.68 120.225 195.57 120.269 195.454 120.275ZM193.297 119.358H194.987V112.388L168.114 85.9649L144.943 63.3249H139.567V66.6648L168.734 95.2278L193.297 119.358Z" fill="#D1D3D4"/>
<path d="M280.1 124.324H227.43V190.256H280.1V124.324Z" fill="white"/>
<path d="M280.099 190.714H227.431C227.307 190.714 227.188 190.664 227.101 190.577C227.057 190.535 227.022 190.485 226.999 190.43C226.975 190.375 226.963 190.315 226.964 190.255V124.323C226.964 124.263 226.976 124.203 227 124.148C227.023 124.093 227.058 124.043 227.101 124.001C227.191 123.919 227.309 123.873 227.431 123.872H280.099C280.221 123.871 280.339 123.918 280.429 124.001C280.472 124.043 280.506 124.093 280.53 124.148C280.553 124.203 280.566 124.263 280.566 124.323V190.283C280.558 190.4 280.507 190.509 280.421 190.589C280.334 190.671 280.218 190.715 280.099 190.714ZM227.899 189.804H279.642V124.783H227.899V189.804Z" fill="#D1D3D4"/>
<path d="M275.133 128.831H232.388V185.748H275.133V128.831Z" fill="white"/>
<path d="M275.132 186.199H232.387C232.264 186.201 232.146 186.155 232.057 186.07C231.976 185.982 231.93 185.868 231.928 185.748V128.83C231.928 128.71 231.974 128.594 232.057 128.508C232.145 128.42 232.263 128.371 232.387 128.371H275.132C275.256 128.371 275.375 128.42 275.462 128.508C275.506 128.549 275.541 128.599 275.564 128.655C275.588 128.71 275.6 128.77 275.599 128.83V185.715C275.601 185.778 275.59 185.841 275.567 185.9C275.548 185.961 275.514 186.017 275.467 186.061C275.423 186.103 275.371 186.137 275.314 186.161C275.258 186.189 275.195 186.202 275.132 186.199ZM232.854 185.29H274.673V129.281H232.854V185.29Z" fill="#D1D3D4"/>
<path d="M275.133 180.292V185.749H271.64L252.912 161.508L249.073 156.574L232.388 134.981V128.832H235.301L252.911 151.601L256.742 156.575L275.133 180.292Z" fill="white"/>
<path d="M275.132 186.199H271.639C271.567 186.206 271.495 186.191 271.43 186.158C271.367 186.126 271.311 186.079 271.269 186.022L232.017 135.253C231.96 135.173 231.929 135.077 231.928 134.979V128.83C231.928 128.71 231.974 128.594 232.057 128.508C232.145 128.42 232.263 128.371 232.387 128.371H235.301C235.371 128.372 235.439 128.388 235.501 128.419C235.563 128.447 235.618 128.488 235.662 128.54L257.119 156.299L275.501 179.985C275.565 180.062 275.6 180.159 275.601 180.259V185.732C275.602 185.792 275.591 185.852 275.569 185.909C275.546 185.966 275.512 186.017 275.469 186.062C275.425 186.105 275.373 186.139 275.316 186.162C275.259 186.19 275.196 186.203 275.132 186.199ZM271.872 185.29H274.649V180.445L252.516 151.873L235.051 129.281H232.83V134.818L271.872 185.29Z" fill="#D1D3D4"/>
<path d="M275.133 128.831V132.815L256.742 156.573L252.911 161.507L234.175 185.748H232.388V178.126L249.072 156.573L252.911 151.599L270.553 128.83L275.133 128.831Z" fill="white"/>
<path d="M234.175 186.199H232.388C232.266 186.201 232.147 186.155 232.058 186.07C231.977 185.982 231.931 185.868 231.929 185.748V178.126C231.93 178.028 231.961 177.932 232.018 177.852L270.183 128.54C270.23 128.488 270.288 128.447 270.352 128.419C270.414 128.388 270.483 128.372 270.552 128.371H275.132C275.256 128.371 275.375 128.42 275.462 128.508C275.506 128.549 275.541 128.599 275.564 128.655C275.588 128.71 275.6 128.77 275.599 128.83V132.814C275.601 132.914 275.565 133.011 275.499 133.087L234.541 186.021C234.499 186.078 234.444 186.125 234.38 186.157C234.316 186.19 234.243 186.205 234.171 186.198L234.175 186.199ZM232.855 185.29H233.95L274.674 132.662V129.282H270.787L232.855 178.288V185.29Z" fill="#D1D3D4"/>
<path d="M202.48 136.05H184.098V151.423H202.48V136.05Z" fill="white"/>
<path d="M202.481 151.882H184.099C184.039 151.882 183.98 151.869 183.924 151.846C183.869 151.822 183.819 151.788 183.777 151.745C183.733 151.703 183.699 151.654 183.675 151.598C183.652 151.543 183.64 151.483 183.64 151.423V136.05C183.64 135.99 183.653 135.93 183.676 135.875C183.7 135.82 183.734 135.77 183.777 135.728C183.865 135.646 183.98 135.6 184.099 135.599H202.481C202.603 135.6 202.721 135.646 202.811 135.728C202.854 135.77 202.889 135.82 202.912 135.875C202.936 135.93 202.948 135.99 202.948 136.05V151.423C202.949 151.483 202.937 151.543 202.913 151.598C202.89 151.654 202.855 151.703 202.811 151.745C202.723 151.832 202.605 151.881 202.481 151.882ZM184.566 150.973H202.055V136.518H184.566V150.973Z" fill="#D1D3D4"/>
<path d="M199.341 140.317H187.22C187.16 140.317 187.101 140.304 187.045 140.281C186.99 140.257 186.94 140.223 186.898 140.18C186.855 140.14 186.821 140.091 186.797 140.037C186.774 139.983 186.762 139.925 186.761 139.866C186.762 139.742 186.811 139.624 186.898 139.536C186.986 139.454 187.101 139.408 187.22 139.407H199.268C199.391 139.407 199.509 139.453 199.598 139.536C199.681 139.618 199.73 139.728 199.735 139.845C199.739 139.962 199.699 140.076 199.622 140.164C199.548 140.245 199.449 140.299 199.34 140.317H199.341Z" fill="#D1D3D4"/>
<path d="M199.341 144.195H187.22C187.101 144.194 186.986 144.148 186.898 144.066C186.855 144.024 186.821 143.974 186.797 143.919C186.774 143.863 186.761 143.804 186.761 143.744C186.761 143.684 186.773 143.624 186.796 143.569C186.82 143.513 186.855 143.463 186.898 143.422C186.94 143.379 186.99 143.344 187.045 143.321C187.101 143.297 187.16 143.285 187.22 143.285H199.268C199.33 143.284 199.39 143.296 199.447 143.32C199.504 143.343 199.555 143.378 199.598 143.422C199.681 143.502 199.73 143.612 199.735 143.727C199.739 143.843 199.699 143.955 199.622 144.042C199.548 144.123 199.449 144.177 199.34 144.195H199.341Z" fill="#D1D3D4"/>
<path d="M195.342 148.082H187.221C187.101 148.074 186.988 148.026 186.899 147.945C186.856 147.903 186.821 147.853 186.798 147.798C186.774 147.743 186.762 147.683 186.762 147.623C186.762 147.563 186.774 147.503 186.798 147.448C186.821 147.393 186.856 147.343 186.899 147.301C186.941 147.259 186.992 147.226 187.047 147.203C187.102 147.181 187.162 147.171 187.221 147.172H195.321C195.382 147.171 195.442 147.181 195.499 147.203C195.556 147.226 195.607 147.259 195.651 147.301C195.733 147.388 195.779 147.503 195.78 147.623C195.78 147.74 195.734 147.853 195.651 147.937C195.571 148.023 195.46 148.075 195.342 148.082Z" fill="#D1D3D4"/>
<path d="M257.136 136.05H238.754V151.423H257.136V136.05Z" fill="white"/>
<path d="M257.121 151.882H238.755C238.631 151.881 238.513 151.832 238.425 151.745C238.342 151.658 238.296 151.543 238.296 151.423V136.05C238.297 135.93 238.343 135.815 238.425 135.728C238.515 135.646 238.633 135.6 238.755 135.599H257.121C257.243 135.599 257.361 135.645 257.451 135.728C257.494 135.77 257.528 135.82 257.552 135.875C257.575 135.93 257.588 135.99 257.588 136.05V151.423C257.588 151.483 257.577 151.543 257.553 151.598C257.529 151.654 257.495 151.704 257.451 151.745C257.408 151.789 257.357 151.824 257.3 151.847C257.243 151.871 257.182 151.882 257.121 151.882ZM239.221 150.973H256.666V136.518H239.225L239.221 150.973Z" fill="#D1D3D4"/>
<path d="M253.957 140.317H241.909C241.787 140.317 241.669 140.271 241.579 140.188C241.536 140.146 241.501 140.096 241.478 140.041C241.454 139.985 241.442 139.926 241.442 139.866C241.442 139.742 241.491 139.624 241.579 139.536C241.669 139.453 241.787 139.407 241.909 139.407H253.957C254.077 139.407 254.192 139.453 254.279 139.536C254.366 139.624 254.416 139.742 254.416 139.866C254.416 139.926 254.403 139.985 254.38 140.041C254.356 140.096 254.322 140.146 254.279 140.188C254.192 140.271 254.077 140.317 253.957 140.317Z" fill="#D1D3D4"/>
<path d="M253.957 144.195H241.909C241.848 144.197 241.788 144.186 241.732 144.165C241.675 144.143 241.624 144.11 241.58 144.068C241.537 144.026 241.502 143.976 241.478 143.92C241.455 143.864 241.442 143.804 241.442 143.744C241.441 143.684 241.453 143.624 241.477 143.569C241.5 143.513 241.535 143.463 241.579 143.422C241.622 143.378 241.673 143.343 241.73 143.32C241.787 143.296 241.848 143.284 241.909 143.285H253.957C254.078 143.287 254.194 143.336 254.279 143.422C254.365 143.507 254.414 143.623 254.416 143.744C254.416 143.804 254.403 143.863 254.38 143.919C254.356 143.974 254.322 144.024 254.279 144.066C254.237 144.108 254.187 144.142 254.131 144.164C254.076 144.187 254.017 144.197 253.957 144.195Z" fill="#D1D3D4"/>
<path d="M249.989 148.082H241.908C241.846 148.082 241.786 148.071 241.729 148.047C241.672 148.024 241.621 147.989 241.578 147.945C241.534 147.903 241.499 147.854 241.476 147.798C241.452 147.743 241.44 147.683 241.441 147.623C241.441 147.562 241.454 147.503 241.478 147.447C241.501 147.391 241.536 147.341 241.579 147.299C241.623 147.257 241.674 147.224 241.731 147.202C241.787 147.18 241.847 147.17 241.908 147.172H249.997C250.058 147.171 250.118 147.181 250.175 147.203C250.231 147.226 250.283 147.259 250.327 147.301C250.411 147.387 250.46 147.502 250.464 147.623C250.463 147.684 250.449 147.744 250.424 147.8C250.401 147.857 250.367 147.909 250.324 147.953C250.279 147.995 250.228 148.029 250.171 148.053C250.113 148.075 250.051 148.084 249.989 148.082Z" fill="#D1D3D4"/>
<path d="M229.716 69.1369H211.342V84.5089H229.716V69.1369Z" fill="white"/>
<path d="M229.719 84.9679H211.319C211.198 84.9658 211.082 84.9168 210.997 84.8312C210.911 84.7455 210.862 84.63 210.86 84.5089V69.1368C210.862 69.0158 210.911 68.9005 210.997 68.8149C211.082 68.7294 211.198 68.6802 211.319 68.6779H229.701C229.825 68.6782 229.943 68.7275 230.031 68.8149C230.074 68.8568 230.108 68.9067 230.132 68.962C230.155 69.0173 230.168 69.0767 230.168 69.1368V84.5089C230.168 84.6265 230.122 84.7394 230.039 84.8229C229.953 84.9083 229.84 84.9599 229.719 84.9679ZM211.803 84.0509H229.26V69.5959H211.803V84.0509Z" fill="#D1D3D4"/>
<path d="M226.577 73.3939H214.528C214.406 73.3939 214.288 73.346 214.201 73.2603C214.114 73.1747 214.063 73.0582 214.061 72.9359C214.067 72.8163 214.119 72.7037 214.206 72.6219C214.247 72.5781 214.297 72.5433 214.353 72.5197C214.408 72.4962 214.468 72.4842 214.528 72.4848H226.577C226.637 72.4842 226.697 72.4962 226.752 72.5197C226.808 72.5433 226.858 72.5781 226.899 72.6219C226.986 72.7037 227.038 72.8163 227.044 72.9359C227.045 72.9961 227.033 73.0558 227.009 73.1112C226.986 73.1666 226.951 73.2166 226.907 73.2579C226.819 73.3449 226.701 73.3938 226.577 73.3939Z" fill="#D1D3D4"/>
<path d="M226.577 77.2898H214.528C214.406 77.2885 214.289 77.2427 214.198 77.1609C214.114 77.0743 214.065 76.9595 214.061 76.8389C214.069 76.7175 214.12 76.603 214.206 76.5169C214.247 76.4731 214.297 76.4383 214.353 76.4147C214.408 76.3911 214.468 76.3793 214.528 76.3799H226.577C226.637 76.3793 226.697 76.3911 226.752 76.4147C226.808 76.4383 226.858 76.4731 226.899 76.5169C226.985 76.603 227.037 76.7175 227.044 76.8389C227.044 76.899 227.032 76.9584 227.008 77.0137C226.985 77.069 226.95 77.1191 226.907 77.1609C226.816 77.2427 226.699 77.2885 226.577 77.2898Z" fill="#D1D3D4"/>
<path d="M222.585 81.1609H214.485C214.365 81.1596 214.25 81.1136 214.163 81.0319C214.12 80.99 214.085 80.9401 214.062 80.8848C214.038 80.8295 214.026 80.7699 214.026 80.7098C214.028 80.5887 214.077 80.4732 214.163 80.3876C214.248 80.3019 214.364 80.2529 214.485 80.2509H222.585C222.706 80.2529 222.822 80.3019 222.907 80.3876C222.993 80.4732 223.042 80.5887 223.044 80.7098C223.044 80.7699 223.031 80.8294 223.008 80.8846C222.984 80.9399 222.95 80.99 222.907 81.0319C222.819 81.1136 222.705 81.1596 222.585 81.1609Z" fill="#D1D3D4"/>
<path d="M38.1899 43.3419C38.1899 43.3419 4.77192 92.3559 5.48992 92.8629C6.20792 93.3699 21.8389 99.6719 21.8389 99.6719L41.5029 80.9359L38.1899 43.3419Z" fill="#231F20"/>
<path d="M21.8338 100.119C21.7755 100.127 21.7163 100.127 21.6579 100.119C19.0349 99.0648 5.90187 93.7438 5.21587 93.2618C4.67787 92.8758 4.40886 92.6908 21.1849 67.6928C29.3609 55.5238 37.7309 43.2498 37.8109 43.0928C37.8637 43.0151 37.9396 42.9559 38.0279 42.9238C38.1173 42.8863 38.2168 42.8806 38.3099 42.9078C38.3994 42.9293 38.4805 42.9771 38.5429 43.0449C38.6078 43.1162 38.6474 43.2068 38.6559 43.3028L41.9559 80.9288C41.9642 80.9964 41.956 81.0651 41.9319 81.1289C41.9086 81.1913 41.8697 81.2467 41.8189 81.2899L22.1579 99.9898C22.0688 100.069 21.9532 100.112 21.8338 100.111V100.119ZM6.07787 92.6339C7.75487 93.4339 16.0409 96.8109 21.7779 99.1339L41.0629 80.7838L37.8519 44.6708C25.4009 62.9328 7.58891 89.4199 6.03191 92.6389L6.07787 92.6339Z" fill="#231F20"/>
<path d="M91.671 43.6229L113.08 79.5029C113.08 79.5029 108.203 91.0438 102.36 89.6599C96.517 88.2759 82.167 58.1599 82.167 58.1599L91.671 43.6229Z" fill="#231F20"/>
<path d="M103.389 90.2228C103.018 90.2248 102.649 90.1816 102.289 90.0939C96.2889 88.6619 82.3369 59.5429 81.7579 58.3029C81.7175 58.2376 81.6953 58.1626 81.6938 58.0858C81.6939 58.0088 81.7162 57.9334 81.7579 57.8688L91.2579 43.3818C91.3018 43.3164 91.3594 43.2615 91.4269 43.2208C91.4973 43.188 91.5742 43.1716 91.6519 43.1729C91.7286 43.1742 91.8037 43.1963 91.8689 43.2368C91.934 43.2777 91.9891 43.3327 92.0299 43.3978L113.487 79.2769C113.518 79.3389 113.534 79.4074 113.534 79.4768C113.534 79.5463 113.518 79.6148 113.487 79.6769C113.341 80.1389 109.015 90.2228 103.389 90.2228ZM82.6888 58.1588C86.7608 66.6498 97.9158 88.1388 102.496 89.2168C107.486 90.3998 111.913 81.0168 112.596 79.5429L91.6539 44.4928L82.6888 58.1588Z" fill="#231F20"/>
<path d="M39.7682 92.8629L35.6792 194.747H49.8362L62.4962 122.087L69.5463 193.476H84.0172L84.4922 99.6759L39.7682 92.8629Z" fill="#231F20"/>
<path d="M49.8361 195.206H35.6791C35.6185 195.208 35.5581 195.197 35.5021 195.174C35.4454 195.15 35.3935 195.116 35.3491 195.074C35.3062 195.03 35.2722 194.978 35.2491 194.921C35.2293 194.861 35.2211 194.799 35.2251 194.736L39.3061 92.8519C39.3135 92.7883 39.3297 92.7261 39.3541 92.6669C39.3853 92.6093 39.4262 92.5575 39.4751 92.5139C39.528 92.4737 39.5881 92.4439 39.6521 92.426C39.7148 92.4073 39.7811 92.4045 39.8451 92.4179L84.553 99.2269C84.6645 99.2428 84.767 99.297 84.8431 99.3799C84.917 99.4623 84.9573 99.5693 84.9561 99.6799L84.4811 193.531C84.4753 193.649 84.4265 193.76 84.344 193.845C84.2567 193.927 84.1418 193.973 84.0221 193.974H69.5221C69.4071 193.976 69.2952 193.936 69.2081 193.861C69.12 193.785 69.0652 193.677 69.0551 193.561L62.3351 125.553L50.287 194.881C50.261 194.979 50.2012 195.065 50.1181 195.123C50.0343 195.178 49.9362 195.206 49.8361 195.206ZM36.1621 194.297H49.4421L62.0301 122.015C62.0296 121.955 62.0414 121.895 62.065 121.84C62.0886 121.784 62.1233 121.734 62.167 121.693C62.21 121.649 62.2615 121.614 62.3182 121.591C62.3749 121.567 62.4357 121.555 62.4971 121.556C62.6182 121.558 62.7338 121.607 62.8194 121.693C62.905 121.778 62.9541 121.894 62.9561 122.015L69.9741 192.993H83.5601L84.0351 100.051L40.2201 93.3869L36.1621 194.297Z" fill="#231F20"/>
<path d="M66.8501 178.73C68.4921 178.972 78.0941 180.815 78.8341 178.73C79.2759 177.488 80.1163 176.427 81.2241 175.712H87.3572L84.5321 204.018C84.5321 204.018 97.9811 212.139 97.9811 213.518C97.9811 214.897 75.2522 210.318 75.2522 210.318L74.7372 212.523L70.7372 212.056L66.8501 178.73Z" fill="#30C684"/>
<path d="M53.2653 178.73C51.6233 178.972 42.0212 180.815 41.2812 178.73C40.856 177.486 40.0294 176.419 38.9313 175.696H32.7502L35.5353 204.002C35.5353 204.002 22.0942 212.115 22.0942 213.502C22.0942 214.889 44.8553 210.323 44.8553 210.323L45.3782 212.528L49.3782 212.061L53.2653 178.73Z" fill="#30C684"/>
<path d="M78.585 40.7659C78.585 40.7659 51.0919 38.0299 45.7479 42.3269C40.4039 46.6239 38.1899 103.382 38.1899 103.382L84.114 105.048C84.114 105.048 88.621 50.3029 78.585 40.7659Z" fill="#231F20"/>
<path d="M84.1129 105.539L38.189 103.873C38.0718 103.858 37.962 103.808 37.8749 103.728C37.8341 103.682 37.8005 103.631 37.775 103.575C37.759 103.517 37.751 103.458 37.751 103.398C37.84 101.072 40.0209 46.3679 45.4609 41.9809C50.9009 37.5939 77.5089 40.1618 78.6439 40.3068C78.7474 40.3159 78.8443 40.3617 78.917 40.4358C83.175 44.4838 85.4039 56.6048 85.5809 76.4928C85.7099 91.2288 84.5989 104.984 84.5909 105.121C84.5806 105.239 84.5259 105.348 84.438 105.427C84.3459 105.504 84.2281 105.545 84.1079 105.54L84.1129 105.539ZM38.7039 102.98L83.6859 104.63C84.0799 99.4788 87.5329 50.3518 78.3739 41.2168C76.1039 40.9998 50.9739 38.7378 46.0359 42.7058C41.8269 46.0778 39.3159 86.9149 38.6719 102.98H38.7039Z" fill="#231F20"/>
<path d="M63.1681 71.2688C63.0752 71.2652 62.9854 71.2343 62.91 71.1798C62.8389 71.1256 62.7834 71.0535 62.749 70.9708C61.131 66.6708 53.131 45.1709 54.025 43.1559C54.0813 43.0507 54.1721 42.968 54.2821 42.9219C54.397 42.8803 54.5233 42.883 54.6361 42.9298C54.7468 42.9784 54.834 43.0685 54.879 43.1807C54.9241 43.2929 54.9234 43.4183 54.8771 43.5299C54.4261 44.7939 58.777 57.6949 63.223 69.5899C64.823 65.8899 70.1451 53.1898 71.5611 45.2118C71.5712 45.1527 71.5936 45.0964 71.6268 45.0464C71.6601 44.9965 71.7034 44.9541 71.754 44.9219C71.803 44.8852 71.859 44.8591 71.9186 44.8451C71.9782 44.8312 72.04 44.8297 72.1001 44.8408C72.2196 44.8631 72.3265 44.9291 72.4 45.0259C72.4663 45.1253 72.4921 45.2462 72.4721 45.3639C70.8381 54.8289 63.7321 70.8768 63.6591 70.9978C63.6173 71.092 63.5475 71.171 63.4591 71.2239C63.3704 71.2715 63.2684 71.2883 63.1691 71.2719L63.1681 71.2688Z" fill="white"/>
<path d="M55.8879 39.1809L54.962 60.0179L54.7209 65.756L54.3829 73.7639L54.142 79.5019L53.3929 97.5139L31.856 96.5969C31.856 96.5969 32.009 88.8699 32.395 79.2849C32.467 77.4659 32.548 75.4939 32.645 73.5379C32.774 70.8819 32.911 68.1779 33.072 65.5379C33.193 63.5819 33.321 61.6509 33.466 59.7989C34.066 52.0319 34.85 45.5209 35.888 43.3989C39.083 36.8069 55.8879 39.1809 55.8879 39.1809Z" fill="#30C684"/>
<path d="M93.1482 66.2308C93.1482 68.8708 93.0761 71.5588 93.0111 74.2308C92.9631 76.1788 92.9112 78.1019 92.8502 79.9699C92.4962 90.7469 91.9891 99.6698 91.9891 99.6698L70.5322 97.9639L70.9022 79.7428L71.0232 73.9968L71.1842 65.9968L71.3052 60.2509L71.7322 39.5018C71.7322 39.5018 88.5321 37.1438 91.6761 43.6628C92.6981 45.7798 93.0842 52.4629 93.1572 60.5159C93.1482 62.3429 93.1482 64.2588 93.1482 66.2308Z" fill="#30C684"/>
<path d="M41.506 114.972C41.416 114.965 41.3283 114.94 41.248 114.899C41.1608 114.843 41.095 114.76 41.0614 114.662C41.0278 114.564 41.0284 114.457 41.063 114.36C41.1071 114.246 41.1934 114.154 41.304 114.102C42.9168 113.363 44.3419 112.269 45.473 110.902C46.5948 109.545 47.3881 107.948 47.791 106.234C47.8184 106.117 47.8869 106.014 47.9839 105.944C48.0815 105.873 48.203 105.844 48.322 105.863C48.443 105.885 48.5517 105.951 48.628 106.048C48.6603 106.098 48.685 106.152 48.701 106.209C48.7131 106.267 48.7131 106.328 48.701 106.386C48.2915 108.249 47.4475 109.989 46.238 111.464C45.0184 112.95 43.4699 114.132 41.715 114.917C41.6499 114.949 41.5784 114.965 41.506 114.965V114.972Z" fill="white"/>
<path d="M82.5451 114.971C82.4407 114.967 82.3397 114.932 82.2551 114.871C80.9884 113.835 79.9748 112.524 79.2913 111.037C78.6078 109.551 78.2726 107.928 78.3111 106.292C78.3218 106.169 78.3803 106.056 78.4738 105.976C78.5673 105.896 78.6884 105.856 78.8111 105.865C78.9334 105.875 79.0479 105.93 79.1331 106.018C79.2129 106.112 79.2535 106.233 79.2461 106.356C79.2226 107.84 79.5362 109.31 80.1631 110.656C80.7896 112.009 81.7075 113.208 82.8511 114.165C82.9269 114.223 82.9807 114.305 83.0041 114.398C83.0297 114.488 83.027 114.584 82.9961 114.672C82.9611 114.763 82.8994 114.841 82.8191 114.897C82.7395 114.947 82.6475 114.975 82.5531 114.977L82.5451 114.971Z" fill="white"/>
<path d="M62.4081 120.839C62.2905 120.839 62.1775 120.793 62.094 120.71C62.0509 120.668 62.0166 120.618 61.993 120.563C61.9695 120.507 61.9573 120.448 61.957 120.388C61.957 119.913 62.706 106.851 62.746 106.295C62.7441 106.234 62.7551 106.174 62.7781 106.118C62.8065 106.063 62.8447 106.014 62.891 105.973C62.9339 105.931 62.9866 105.901 63.0441 105.884C63.1041 105.867 63.1669 105.861 63.229 105.868C63.2876 105.869 63.3453 105.882 63.3981 105.908C63.4537 105.929 63.5033 105.963 63.543 106.008C63.5854 106.052 63.6194 106.104 63.6431 106.161C63.6594 106.218 63.6674 106.278 63.667 106.338C63.45 110.113 62.8781 120.004 62.8781 120.382C62.8759 120.442 62.8651 120.502 62.8461 120.559C62.822 120.613 62.788 120.662 62.746 120.704C62.7015 120.746 62.6497 120.78 62.593 120.804C62.5347 120.829 62.4716 120.841 62.4081 120.839Z" fill="white"/>
<path d="M84.113 105.539L38.189 103.873C38.0679 103.871 37.9523 103.822 37.8667 103.736C37.7811 103.651 37.732 103.535 37.73 103.414C37.7302 103.354 37.7425 103.294 37.766 103.239C37.7895 103.184 37.8239 103.134 37.867 103.092C37.9088 103.049 37.959 103.016 38.0145 102.994C38.0699 102.971 38.1293 102.961 38.189 102.963L84.137 104.629C84.257 104.629 84.3725 104.675 84.459 104.758C84.5022 104.8 84.5365 104.85 84.56 104.905C84.5835 104.96 84.5958 105.02 84.596 105.08C84.594 105.201 84.5449 105.317 84.4593 105.402C84.3737 105.488 84.2581 105.537 84.137 105.539H84.113Z" fill="white"/>
<path d="M33.5139 59.7519L55.0029 60.0179L54.7618 65.7559L33.1118 65.4899C33.2328 63.5319 33.3779 61.6029 33.5139 59.7519Z" fill="white"/>
<path d="M93.1442 66.2309L71.1802 65.9568L71.3013 60.2188L93.1522 60.4848C93.1522 62.3435 93.1495 64.2589 93.1442 66.2309Z" fill="white"/>
<path d="M32.6839 73.4908L54.4309 73.7649L54.1899 79.5029L32.4429 79.2458C32.5079 77.3858 32.5969 75.4708 32.6839 73.4908Z" fill="white"/>
<path d="M93.0079 74.2299C92.9599 76.1779 92.9079 78.1019 92.8469 79.9689L70.8989 79.7029L71.0199 73.9559L93.0079 74.2299Z" fill="white"/>
<path d="M75.9209 23.9048C75.7599 23.5668 77.4098 19.7679 76.8468 13.7719C76.2838 7.77589 65.0878 5.67192 61.0968 6.17192C57.1058 6.67192 53.0239 10.7269 52.1869 14.7189C51.3499 18.7109 53.1129 25.8089 53.1129 25.8089L75.9209 23.9048Z" fill="white"/>
<path d="M53.095 26.2629C52.9892 26.2672 52.8856 26.2316 52.805 26.1629C52.7187 26.1008 52.6585 26.0088 52.636 25.9049C52.555 25.6149 50.8491 18.621 51.7021 14.621C52.6361 10.307 56.869 6.22093 60.974 5.69493C63.751 5.34093 70.769 6.24992 74.664 9.34092C75.3848 9.85024 75.993 10.5024 76.451 11.2569C76.9077 12.0106 77.1985 12.853 77.304 13.7279C77.6008 16.8616 77.3364 20.0231 76.523 23.0639C76.451 23.3779 76.378 23.692 76.37 23.812C76.3877 23.9252 76.368 24.041 76.314 24.1419C76.2731 24.207 76.218 24.262 76.153 24.303C76.0868 24.3426 76.0127 24.3675 75.936 24.376L53.136 26.2589L53.095 26.2629ZM62.367 6.56895C61.9367 6.56198 61.5065 6.58333 61.079 6.63291C57.369 7.10791 53.4011 10.923 52.5881 14.833C51.9041 18.133 53.079 23.791 53.417 25.328L75.429 23.501C75.4612 23.2875 75.5124 23.0773 75.5821 22.8729C76.3647 19.9283 76.6179 16.8681 76.33 13.8349C76.2337 13.0907 75.9815 12.3752 75.59 11.735C75.1927 11.0948 74.6699 10.5417 74.053 10.109C71.139 7.74299 65.739 6.57591 62.407 6.57591L62.367 6.56895Z" fill="#231F20"/>
<path d="M72.54 23.535C73.16 19.712 79.614 18.77 79.301 23.269C79.2423 24.8376 78.6293 26.3346 77.571 27.4939C77.03 28.0726 76.3299 28.4786 75.559 28.6609C74.7825 28.8363 73.9719 28.7832 73.225 28.508" fill="white"/>
<path d="M74.5919 29.2568C74.06 29.2588 73.5337 29.1491 73.0469 28.9348C72.9915 28.9105 72.9414 28.8754 72.9 28.8312C72.8585 28.787 72.8265 28.7348 72.8059 28.6779C72.7831 28.6207 72.7721 28.5595 72.7736 28.4979C72.7751 28.4364 72.7892 28.3758 72.8146 28.3197C72.8401 28.2637 72.8766 28.2133 72.9221 28.1718C72.9675 28.1302 73.0209 28.0983 73.0789 28.0779C73.1986 28.0324 73.3313 28.0352 73.4489 28.0858C74.0999 28.316 74.8036 28.3527 75.4749 28.1914C76.1463 28.0301 76.7566 27.6777 77.2319 27.1769C78.1905 26.0947 78.74 24.7109 78.7849 23.2659C78.8482 22.9788 78.849 22.6814 78.7873 22.3939C78.7256 22.1065 78.6029 21.8356 78.4273 21.5997C78.2518 21.3639 78.0275 21.1685 77.7698 21.0269C77.5122 20.8852 77.2271 20.8007 76.9339 20.7789C76.0383 20.6989 75.1439 20.9445 74.4149 21.4708C73.6884 21.9893 73.1783 22.7573 72.9819 23.6279C72.9628 23.7503 72.8964 23.8601 72.7969 23.9338C72.6912 24.0066 72.5623 24.038 72.4349 24.0219C72.3128 23.9993 72.204 23.9309 72.1307 23.8307C72.0574 23.7305 72.0254 23.6061 72.041 23.4829C72.2673 22.3681 72.9053 21.3794 73.828 20.7139C74.7567 20.0359 75.9026 19.7238 77.0469 19.8369C77.4631 19.877 77.8674 19.9972 78.2379 20.1909C78.6008 20.394 78.9207 20.6656 79.1799 20.9909C79.4314 21.3208 79.6121 21.699 79.7109 22.1019C79.8061 22.503 79.817 22.9194 79.7429 23.3248C79.6897 25.0155 79.0332 26.6314 77.8919 27.8799C77.0126 28.7511 75.8296 29.2473 74.5919 29.2639V29.2568Z" fill="#231F20"/>
<path d="M56.4758 23.535C55.8558 19.712 49.4098 18.77 49.7308 23.269C49.7747 24.8378 50.3833 26.338 51.4448 27.4939C51.9846 28.0633 52.6803 28.4608 53.4448 28.6369C54.2151 28.8152 55.0207 28.765 55.7628 28.492" fill="white"/>
<path d="M54.4319 29.2569C53.1785 29.2389 51.9822 28.7301 51.0998 27.8399C49.9573 26.5922 49.3005 24.9758 49.2489 23.2848C49.1871 22.8881 49.2061 22.4831 49.3048 22.0939C49.4092 21.7056 49.5897 21.3418 49.8358 21.0238C50.0892 20.7073 50.4009 20.4422 50.7539 20.2428C51.1125 20.0481 51.5066 19.9277 51.9128 19.8888C53.0533 19.7774 54.1953 20.0864 55.1239 20.7578C56.0478 21.4256 56.6859 22.4172 56.9109 23.5348C56.9223 23.5949 56.921 23.6566 56.9072 23.7162C56.8934 23.7758 56.8674 23.8319 56.8308 23.8809C56.7531 23.9813 56.6415 24.0499 56.5168 24.0739C56.3918 24.0899 56.2654 24.0581 56.1628 23.9849C56.0614 23.9117 55.9922 23.802 55.9698 23.6788C55.7812 22.8092 55.2803 22.0389 54.5619 21.5138C53.8406 20.9845 52.954 20.7303 52.0619 20.7969C51.7687 20.8187 51.4835 20.9032 51.2258 21.0448C50.9681 21.1864 50.744 21.3818 50.5685 21.6177C50.3929 21.8536 50.2701 22.1244 50.2084 22.4119C50.1467 22.6994 50.1475 22.9967 50.2108 23.2838C50.2652 24.7297 50.8267 26.1104 51.7969 27.1839C52.2741 27.6946 52.8912 28.0533 53.5712 28.2151C54.2511 28.377 54.9637 28.3348 55.6199 28.0939C55.7374 28.0431 55.8702 28.0401 55.9899 28.0858C56.0491 28.106 56.1039 28.1377 56.1509 28.1791C56.1979 28.2204 56.2363 28.2706 56.2639 28.3268C56.3106 28.4425 56.3134 28.5712 56.2718 28.6889C56.2241 28.8031 56.1348 28.895 56.0218 28.9458C55.5202 29.162 54.978 29.2681 54.4319 29.2569Z" fill="#231F20"/>
<path d="M56.4761 40.9269C56.4761 40.9269 58.7861 46.3918 63.8971 46.3918C65.3092 46.4312 66.7079 46.1089 67.9602 45.4553C69.2125 44.8018 70.2769 43.8387 71.0521 42.6578L70.8181 39.9379L70.3181 33.7329L69.8431 27.9329H58.2291L57.8431 32.6738L57.7222 34.2189L56.4761 40.9269Z" fill="white"/>
<path d="M63.8677 46.8339C58.5237 46.8339 56.1338 41.3608 56.0288 41.1118C56.0047 41.0248 56.0047 40.9329 56.0288 40.8458L57.2687 34.1458L57.7758 27.9088C57.7864 27.7908 57.8413 27.6811 57.9294 27.6019C58.0175 27.5227 58.1323 27.4798 58.2508 27.4818H69.8677C69.9889 27.48 70.1065 27.5231 70.1978 27.6028C70.2836 27.6825 70.3354 27.792 70.3427 27.9088L71.5338 42.5889C71.5392 42.6781 71.5198 42.767 71.4777 42.8458C70.6693 44.1078 69.5456 45.1369 68.2177 45.8318C66.8796 46.5344 65.3824 46.8789 63.8718 46.8318L63.8677 46.8339ZM56.9627 40.8458C57.3487 41.6268 59.5787 45.8759 63.8677 45.8759C65.1787 45.9157 66.479 45.628 67.6508 45.0388C68.8104 44.4479 69.8015 43.5731 70.5318 42.4959L69.3968 28.4119H58.6678L58.1928 34.2548L56.9627 40.8458Z" fill="#231F20"/>
<path d="M56.9351 32.2589C57.0628 32.965 57.3311 33.6383 57.724 34.2388C58.7024 35.634 60.0138 36.7629 61.5391 37.5229C64.0391 38.8829 67.776 40.4229 70.811 39.9619L70.311 33.7569C68.0851 34.0141 65.837 34.0141 63.6111 33.7569C61.6407 33.684 59.6925 33.3149 57.832 32.6619C57.5209 32.5563 57.2206 32.4213 56.9351 32.2589Z" fill="#231F20"/>
<path d="M69.6571 40.4929C66.5501 40.4929 63.1701 38.9318 61.3191 37.9178C59.7197 37.1274 58.3465 35.9451 57.3271 34.481C56.9094 33.828 56.6198 33.1013 56.4741 32.34C56.4587 32.2534 56.4695 32.1642 56.5051 32.0839C56.5408 32.0035 56.5996 31.9356 56.6741 31.8889C56.7476 31.8472 56.8307 31.8252 56.9152 31.825C57.0024 31.8261 57.0881 31.848 57.1652 31.8889C57.4433 32.0461 57.7308 32.186 58.0261 32.3079C59.8399 32.9446 61.7392 33.3054 63.6602 33.3779C65.8499 33.6355 68.0623 33.6355 70.2521 33.3779C70.3135 33.3699 70.376 33.3746 70.4355 33.3918C70.4951 33.4091 70.5504 33.4384 70.5981 33.4779C70.6512 33.514 70.6931 33.5642 70.7191 33.6229C70.7518 33.6761 70.7685 33.7375 70.7671 33.7999L71.2671 40.0049C71.2732 40.0613 71.2675 40.1184 71.2502 40.1725C71.233 40.2266 71.2047 40.2763 71.1671 40.3188C71.0946 40.409 70.9913 40.4693 70.8771 40.4879C70.4709 40.5136 70.0635 40.5153 69.6571 40.4929ZM57.6091 33.1129C57.7284 33.4303 57.8795 33.7348 58.0601 34.0219C58.9973 35.3545 60.2536 36.431 61.7141 37.153C63.6301 38.191 67.2761 39.8889 70.2701 39.5909L69.8431 34.2909C67.7454 34.5082 65.6308 34.5082 63.5331 34.2909C61.5163 34.2119 59.5227 33.8321 57.6182 33.1639L57.6091 33.1129Z" fill="#231F20"/>
<path d="M63.695 35.2129H64.7329C67.0856 35.2197 69.3465 34.3005 71.027 32.6539C71.8507 31.8471 72.5056 30.8842 72.9534 29.8217C73.4011 28.7591 73.6329 27.6179 73.635 26.4648V12.5969H54.794V26.4669C54.7921 27.6196 55.022 28.7608 55.47 29.8229C55.9205 30.8856 56.5771 31.8485 57.402 32.6559C58.2333 33.4697 59.2144 34.115 60.291 34.5559C61.3718 34.9911 62.5258 35.2152 63.6909 35.2159L63.695 35.2129Z" fill="white"/>
<path d="M73.6353 12.598V26.4649C73.6349 27.6183 73.4041 28.7599 72.9562 29.8227C72.5083 30.8855 71.8525 31.8481 71.0272 32.6539C69.3468 34.3005 67.0858 35.2198 64.7332 35.213H63.6952C62.5301 35.212 61.376 34.988 60.2952 34.5529C59.2186 34.112 58.2376 33.4667 57.4062 32.6529C56.5832 31.844 55.9268 30.8815 55.4742 29.8199C55.0263 28.7578 54.7964 27.6166 54.7982 26.4639V12.598H73.6353ZM73.6353 11.6879H54.7942C54.5481 11.6879 54.3115 11.7833 54.1342 11.9539C53.9638 12.125 53.8682 12.3566 53.8682 12.598V26.4649C53.8713 27.7411 54.1284 29.0039 54.6244 30.1797C55.1204 31.3556 55.8454 32.421 56.7572 33.3139C58.6205 35.1347 61.122 36.1543 63.7272 36.1548H64.7653C67.3681 36.1542 69.867 35.1344 71.7272 33.3139C72.6398 32.4217 73.3655 31.3564 73.8616 30.1804C74.3576 29.0044 74.6141 27.7412 74.6162 26.4649V12.598C74.6165 12.4777 74.5924 12.3586 74.5453 12.2479C74.4982 12.1372 74.429 12.0371 74.3422 11.9539C74.1679 11.7835 73.9339 11.688 73.6902 11.6879H73.6353Z" fill="#231F20"/>
<path d="M64.3552 26.7949C63.9206 26.7958 63.4864 26.7687 63.0553 26.7138C62.9289 26.6988 62.8077 26.6548 62.7013 26.5849C62.5965 26.5192 62.5104 26.4276 62.4513 26.3189C61.7593 25.1839 63.3773 20.8538 63.8683 19.5418C63.8919 19.4851 63.9258 19.4333 63.9683 19.3889C64.0137 19.3443 64.0652 19.3062 64.1212 19.2758C64.1782 19.2549 64.2377 19.2415 64.2982 19.2359C64.3765 19.234 64.454 19.2511 64.5242 19.2858C64.5943 19.3206 64.655 19.3718 64.7009 19.4351C64.7469 19.4985 64.7767 19.5722 64.788 19.6496C64.7992 19.7271 64.7914 19.8061 64.7652 19.8798C63.7032 22.6158 63.0433 25.2239 63.2523 25.7959C64.0469 25.8763 64.8476 25.8763 65.6422 25.7959C65.7038 25.7863 65.7667 25.7891 65.8273 25.8039C65.8896 25.8203 65.9474 25.8507 65.9962 25.8929C66.0466 25.9286 66.0881 25.9755 66.1173 26.0299C66.1478 26.0844 66.1668 26.1447 66.1732 26.2069C66.18 26.2663 66.1745 26.3266 66.1572 26.3839C66.1439 26.4456 66.1166 26.5034 66.0773 26.5528C66.0386 26.6014 65.9888 26.6402 65.9322 26.6659C65.8777 26.6964 65.8174 26.7155 65.7552 26.7219C65.2935 26.7785 64.8284 26.8029 64.3633 26.7949H64.3552Z" fill="#231F20"/>
<path d="M76.8622 13.7729C76.8622 13.7729 73.2242 19.1328 71.0272 18.0728C68.8302 17.0128 67.6953 14.0569 63.8643 13.9849C60.5483 13.9369 58.6492 18.6769 55.8882 18.0009C55.0615 17.7671 54.2974 17.352 53.6512 16.7858C53.0142 16.2226 52.511 15.5244 52.1782 14.7419C53.6837 12.5907 55.7374 10.8817 58.1262 9.79195C60.5292 8.68976 63.1805 8.24128 65.8123 8.4919C75.2043 9.1689 76.8622 13.7729 76.8622 13.7729Z" fill="white"/>
<path d="M71.6389 18.6659C71.3503 18.6685 71.0656 18.5997 70.8099 18.4658C70.022 18.0231 69.3033 17.4673 68.6769 16.8159C67.4539 15.6729 66.182 14.4899 63.856 14.4419C62.423 14.4419 61.2 15.4879 60.017 16.5189C58.834 17.5499 57.4169 18.8448 55.7759 18.4338C54.8705 18.1898 54.0333 17.7409 53.329 17.1218C52.6239 16.5131 52.0722 15.7467 51.7189 14.8849C51.6871 14.823 51.6706 14.7543 51.6709 14.6848C51.6714 14.6124 51.6878 14.5411 51.7189 14.4758C53.2841 12.2627 55.4089 10.5048 57.876 9.38181C60.3605 8.25507 63.0954 7.7947 65.8119 8.04587C75.4299 8.73787 77.2329 13.4539 77.2969 13.6459C77.3263 13.7151 77.3374 13.7909 77.329 13.8657C77.3206 13.9405 77.293 14.0118 77.2489 14.0729C76.9349 14.5609 74.0209 18.6659 71.6389 18.6659ZM63.7999 13.5068H63.8729C66.5849 13.5068 68.0499 14.9319 69.3379 16.1549C69.8986 16.7382 70.5409 17.237 71.2449 17.6358C72.4929 18.2638 74.9549 15.6638 76.3159 13.7358C75.8489 12.8268 73.531 9.51887 65.757 8.96287C63.2577 8.73058 60.7408 9.14631 58.449 10.1699C56.1702 11.1804 54.193 12.7655 52.7109 14.7699C53.0296 15.4318 53.4881 16.0166 54.0549 16.4839C54.6265 16.9585 55.2936 17.3044 56.0109 17.4979C57.1459 17.7879 58.1839 16.8618 59.3829 15.8078C60.5819 14.7538 62.0049 13.5068 63.7999 13.5068Z" fill="#231F20"/>
<path d="M52.1628 14.7219C52.1449 11.9823 52.4558 9.25043 53.0889 6.58491C54.0889 2.93891 61.7088 0.370922 65.6888 1.04792C69.6688 1.72492 75.1219 4.69382 75.8889 6.44782C76.6559 8.20182 76.8149 13.7398 76.8149 13.7398C76.8149 13.7398 61.5228 5.87687 52.1628 14.7219Z" fill="white"/>
<path d="M52.1621 15.1999C52.1034 15.2078 52.0439 15.2078 51.9851 15.1999C51.8984 15.1649 51.8232 15.1064 51.7681 15.0309C51.7187 14.9537 51.6911 14.8645 51.6881 14.7729C51.6657 11.9904 51.9766 9.21536 52.6142 6.50687C53.7082 2.49887 61.6041 -0.0930676 65.7571 0.623932C69.9101 1.34093 75.4631 4.33388 76.3411 6.29788C77.2191 8.26188 77.3151 13.5899 77.3151 13.8069C77.3207 13.8885 77.3012 13.9698 77.2592 14.0399C77.2204 14.1135 77.1618 14.1748 77.0901 14.217C77.0179 14.254 76.9378 14.2732 76.8566 14.2732C76.7754 14.2732 76.6955 14.254 76.6232 14.217C76.4702 14.136 61.4762 6.57089 52.4782 15.1259C52.3866 15.1893 52.2742 15.2155 52.1641 15.1989L52.1621 15.1999ZM64.3232 1.41287C60.4362 1.41287 54.3912 3.63392 53.5622 6.71292C52.9892 8.98764 52.6788 11.3205 52.6371 13.6659C60.9751 6.84893 73.2252 11.6379 76.3232 13.0219C76.2592 11.4529 76.0332 7.92186 75.4622 6.64786C74.7622 5.11086 69.5391 2.18891 65.5791 1.52091C65.1641 1.45168 64.7439 1.41825 64.3232 1.42093V1.41287Z" fill="#231F20"/>
<path d="M64.886 32.4598C63.5613 32.4033 62.2683 32.0368 61.111 31.3898C61.0578 31.3588 61.009 31.3208 60.966 31.2768C60.9256 31.2298 60.8953 31.175 60.877 31.1158C60.8606 31.0555 60.8526 30.9933 60.853 30.9309C60.8595 30.8712 60.8785 30.8135 60.909 30.7618C60.9372 30.7055 60.9769 30.6558 61.0254 30.6157C61.074 30.5756 61.1304 30.546 61.1911 30.5289C61.2505 30.5101 61.3131 30.5032 61.3753 30.5087C61.4374 30.5142 61.4977 30.5319 61.553 30.5609C62.8722 31.399 64.4689 31.6825 65.996 31.3498C66.6927 31.1533 67.2885 30.6989 67.662 30.0788C67.7235 29.9683 67.8241 29.8848 67.944 29.8448C68.0668 29.8067 68.1996 29.8183 68.314 29.8769C68.4232 29.932 68.5068 30.0274 68.547 30.1429C68.5669 30.2005 68.5751 30.2615 68.5709 30.3223C68.5668 30.3832 68.5505 30.4425 68.523 30.4969C68.0329 31.338 67.242 31.9619 66.31 32.2429C65.8497 32.3913 65.3686 32.4645 64.885 32.4598H64.886Z" fill="#231F20"/>
<path d="M68.3329 20.0819C68.6229 20.0659 68.8328 19.5109 68.7838 18.8429C68.7348 18.1749 68.4618 17.6428 68.1638 17.6678C67.8658 17.6928 67.6639 18.2388 67.7129 18.9078C67.7619 19.5768 68.0329 20.1059 68.3329 20.0819Z" fill="#231F20"/>
<path d="M60.3951 20.6539C60.6951 20.6379 60.8952 20.0748 60.8462 19.4058C60.7972 18.7368 60.5241 18.2149 60.2341 18.2309C59.9441 18.2469 59.7341 18.8098 59.7751 19.4778C59.8161 20.1458 60.0981 20.6699 60.3951 20.6539Z" fill="#231F20"/>
<path d="M67.2852 82.4599H59.0352C58.9152 82.4601 58.7999 82.4139 58.7133 82.3309C58.6701 82.289 58.6357 82.239 58.6122 82.1837C58.5887 82.1284 58.5764 82.0689 58.5762 82.0089V70.8089C58.5764 70.7488 58.5887 70.6894 58.6122 70.6341C58.6357 70.5788 58.6701 70.5287 58.7133 70.4869C58.7999 70.4039 58.9152 70.3576 59.0352 70.3579H67.2852C67.4072 70.3591 67.5247 70.405 67.6152 70.4869C67.6584 70.5287 67.6927 70.5788 67.7162 70.6341C67.7397 70.6894 67.752 70.7488 67.7522 70.8089V82.0089C67.7495 82.1274 67.7003 82.2402 67.6152 82.3228C67.5276 82.4101 67.4089 82.4595 67.2852 82.4599ZM59.4943 81.5499H66.8262V71.2698H59.4943V81.5499Z" fill="white"/>
<path d="M125.322 59.8969C125.185 59.8159 112.759 85.8689 105.209 87.0199C97.6588 88.1709 93.9818 82.4648 97.2978 76.0908C100.614 69.7168 113.081 58.4569 113.081 58.4569L127.439 53.2499L125.322 59.8969Z" fill="white"/>
<path d="M103.341 87.6318C102.104 87.7081 100.867 87.4845 99.7351 86.9798C98.6078 86.4858 97.6187 85.7233 96.8541 84.7589C95.1541 82.4409 95.1541 79.1328 96.8541 75.8978C100.178 69.5238 112.254 58.5858 112.774 58.1108C112.821 58.0682 112.876 58.0343 112.935 58.0108L127.285 52.8038C127.37 52.7703 127.463 52.7647 127.551 52.7878C127.639 52.8033 127.721 52.8455 127.784 52.9088C127.851 52.9689 127.898 53.0472 127.921 53.1339C127.94 53.2197 127.934 53.309 127.905 53.3918L125.764 60.0318C125.746 60.0935 125.711 60.1491 125.664 60.1928C125.575 60.3458 125.302 60.8768 124.988 61.4928C116.36 78.0558 109.72 86.8048 105.262 87.4928C104.626 87.5873 103.984 87.6338 103.341 87.6318ZM113.369 58.8668C112.363 59.7768 100.838 70.3838 97.7231 76.3238C96.1941 79.2448 96.1621 82.1828 97.6511 84.2108C99.1401 86.2388 101.836 87.0599 105.136 86.5609C107.985 86.1179 113.587 81.3458 124.154 61.0478C124.554 60.2748 124.754 59.8888 124.886 59.6798L126.737 54.0058L113.369 58.8668Z" fill="#231F20"/>
<path d="M118.102 68.4449H92.9351L104.798 37.1929H129.965L118.102 68.4449Z" fill="white"/>
<path d="M118.102 68.9108H92.9312C92.8552 68.9113 92.7804 68.892 92.7142 68.8548C92.6464 68.8212 92.5881 68.7712 92.5445 68.7094C92.5008 68.6476 92.4732 68.5759 92.4642 68.5008C92.4557 68.4276 92.464 68.3535 92.4882 68.2839L104.351 37.0318C104.384 36.9394 104.446 36.8604 104.528 36.8068C104.605 36.7489 104.698 36.7177 104.794 36.7178H129.969C130.045 36.7155 130.121 36.7349 130.186 36.7739C130.256 36.8038 130.315 36.8544 130.355 36.9189C130.403 36.9795 130.434 37.0516 130.444 37.1279C130.454 37.2044 130.443 37.2821 130.412 37.3529L118.549 68.6048C118.516 68.6928 118.457 68.7685 118.38 68.8219C118.3 68.8788 118.205 68.9099 118.106 68.9108H118.102ZM93.6192 68.0019H117.772L129.281 37.6599H105.131L93.6192 68.0019Z" fill="#231F20"/>
<path d="M123.889 62.6179C124.026 62.2179 129 54.1829 128.71 51.4469C128.493 49.4349 120.734 45.8779 119.076 46.1669C117.418 46.4559 122.392 49.7239 122.392 49.7239C122.392 49.7239 114.778 46.4479 114.292 48.3719C113.806 50.2959 121.511 52.2189 121.511 52.2189C121.511 52.2189 113.311 50.7778 113.116 52.4118C112.921 54.0458 119.852 54.9958 119.852 54.9958C119.852 54.9958 113.405 54.6179 114.484 56.0499C115.563 57.4819 122.444 59.4619 122.444 59.4619" fill="white"/>
<path d="M123.881 63.0758C123.826 63.092 123.767 63.092 123.712 63.0758C123.654 63.0569 123.601 63.0266 123.555 62.9866C123.51 62.9465 123.473 62.8977 123.447 62.8429C123.397 62.7339 123.392 62.61 123.431 62.4968C123.582 62.1822 123.754 61.8782 123.946 61.5868C125.057 59.6228 128.453 53.6679 128.236 51.5589C128.236 51.4219 128.075 50.9228 126.844 50.0138C124.438 48.1868 120.478 46.6738 119.311 46.6738C120.302 47.7327 121.43 48.6533 122.667 49.4109C122.764 49.4738 122.833 49.5719 122.86 49.6848C122.891 49.7984 122.877 49.9197 122.82 50.0228C122.764 50.1296 122.668 50.2103 122.554 50.2478C122.441 50.2868 122.317 50.2811 122.208 50.2318C119.938 49.2658 115.955 47.9139 114.892 48.4129C114.859 48.4236 114.829 48.4426 114.805 48.4679C114.781 48.4932 114.764 48.5242 114.755 48.5579C114.538 49.4669 118.208 50.9718 121.636 51.8258C121.756 51.8557 121.86 51.9305 121.926 52.0348C121.96 52.0856 121.983 52.1429 121.994 52.2029C122.005 52.2629 122.003 52.3244 121.99 52.3839C121.976 52.4434 121.951 52.4995 121.915 52.5488C121.879 52.5982 121.833 52.6398 121.781 52.6709C121.731 52.7061 121.675 52.7306 121.615 52.7432C121.556 52.7557 121.494 52.756 121.435 52.7439C117.25 52.0119 113.781 52.0279 113.588 52.5269C113.395 53.0259 116.606 54.1449 119.922 54.5949C120.045 54.6128 120.157 54.6759 120.236 54.7719C120.308 54.8722 120.343 54.9944 120.336 55.1178C120.321 55.2401 120.261 55.3523 120.167 55.4319C120.067 55.5053 119.944 55.5407 119.821 55.5319C117.584 55.3949 115.378 55.5319 114.887 55.8379C115.748 56.8519 120.03 58.3489 122.573 59.0729C122.635 59.0894 122.693 59.1198 122.742 59.1619C122.788 59.2016 122.829 59.2477 122.863 59.2988C122.892 59.3539 122.911 59.4139 122.919 59.4758C122.926 59.538 122.92 59.6009 122.903 59.6609C122.886 59.7232 122.856 59.781 122.814 59.8299C122.776 59.8764 122.73 59.9149 122.677 59.9429C122.621 59.9774 122.557 59.9971 122.492 59.9999C122.43 60.0108 122.366 60.0053 122.307 59.9839C121.583 59.7749 115.233 57.9319 114.098 56.4109C113.992 56.2855 113.925 56.1319 113.905 55.9689C113.883 55.806 113.911 55.6403 113.986 55.4939C114.201 55.2611 114.461 55.0741 114.75 54.9442C115.039 54.8143 115.351 54.7441 115.668 54.7378C113.968 54.2308 112.521 53.4899 112.642 52.4679C112.659 52.3284 112.706 52.1941 112.779 52.0739C112.851 51.9515 112.951 51.8469 113.069 51.7678C113.729 51.2928 115.258 51.2209 116.852 51.3089C115.052 50.5279 113.528 49.4819 113.826 48.3799C113.866 48.2128 113.946 48.0579 114.059 47.9288C114.169 47.7937 114.31 47.6862 114.469 47.6149C115.459 47.1319 117.569 47.6149 119.427 48.2149C118.566 47.4499 118.179 46.8388 118.276 46.3878C118.314 46.224 118.404 46.0772 118.534 45.9699C118.664 45.8635 118.825 45.8015 118.993 45.7929C120.482 45.5349 125.142 47.6118 127.411 49.2778C128.538 50.1068 129.111 50.8309 129.182 51.4829C129.407 53.6159 126.945 58.2598 124.771 62.0748C124.53 62.4938 124.371 62.7829 124.328 62.8749C124.277 62.9456 124.208 63.0013 124.128 63.0359C124.049 63.0688 123.963 63.0824 123.878 63.0758H123.881Z" fill="#231F20"/>
<path d="M113.418 36.2509L111.776 40.5728L121.836 40.2829L123.454 36.2509H113.418Z" fill="#231F20"/>
<path d="M111.777 41.0229C111.705 41.0232 111.633 41.0068 111.568 40.9749C111.504 40.943 111.449 40.8959 111.407 40.8378C111.36 40.7805 111.329 40.7114 111.318 40.6379C111.307 40.5653 111.312 40.4911 111.334 40.4209L112.976 36.0909C113.011 36.0021 113.073 35.9263 113.153 35.8739C113.23 35.8255 113.32 35.8001 113.411 35.8009H123.459C123.531 35.8005 123.603 35.8171 123.668 35.849C123.733 35.8869 123.788 35.9392 123.829 36.0019C123.875 36.0591 123.903 36.1287 123.909 36.2019C123.917 36.2751 123.909 36.3492 123.885 36.4189L122.267 40.4509C122.234 40.532 122.178 40.6017 122.106 40.651C122.031 40.7053 121.941 40.7336 121.848 40.7319L111.788 41.0219L111.777 41.0229ZM113.733 36.7089L112.433 40.0969L121.512 39.8399L122.767 36.7089H113.733Z" fill="#231F20"/>
<path d="M120.839 37.0069C120.96 36.6136 120.96 36.1932 120.839 35.7999C120.714 35.4785 120.507 35.1955 120.239 34.979C119.969 34.7614 119.647 34.6173 119.305 34.5609C118.959 34.511 118.606 34.53 118.267 34.6169C117.932 34.7016 117.617 34.8522 117.341 35.0599C116.796 35.4264 116.408 35.9837 116.254 36.6219C116.187 36.9102 116.184 37.2095 116.246 37.4989C116.305 37.7923 116.426 38.0698 116.601 38.3126C116.776 38.5554 117 38.7581 117.26 38.907C117.518 39.0627 117.806 39.1615 118.105 39.1969C118.74 39.1794 119.353 38.9562 119.851 38.5609C120.341 38.1645 120.688 37.6188 120.839 37.0069Z" fill="#231F20"/>
<path d="M118.231 39.6639H118.07C117.715 39.6372 117.369 39.5349 117.056 39.3639C116.745 39.1941 116.476 38.9578 116.267 38.6719C116.042 38.3665 115.88 38.019 115.792 37.6499C115.71 37.2792 115.705 36.8957 115.776 36.5228C115.973 35.7857 116.423 35.1417 117.048 34.7038C117.717 34.2198 118.548 34.0124 119.366 34.1249C119.784 34.2011 120.175 34.384 120.501 34.6559C120.823 34.9264 121.07 35.2758 121.217 35.6699C121.362 36.1475 121.362 36.6573 121.217 37.1349C121.039 37.8082 120.657 38.4098 120.123 38.8569C119.588 39.3105 118.929 39.5918 118.231 39.6639ZM118.899 34.9798C118.426 34.9864 117.967 35.1413 117.587 35.4228C117.128 35.7267 116.798 36.1899 116.661 36.7229C116.612 36.9674 116.614 37.2195 116.669 37.4629C116.726 37.7039 116.836 37.9293 116.991 38.1229C117.12 38.3049 117.288 38.4561 117.482 38.5659C117.676 38.6709 117.89 38.7339 118.11 38.7508C118.636 38.7299 119.141 38.541 119.551 38.2119C119.956 37.8852 120.244 37.436 120.372 36.9319C120.461 36.635 120.461 36.3187 120.372 36.0218C120.274 35.7796 120.113 35.5682 119.905 35.4099C119.697 35.2535 119.454 35.1505 119.197 35.1098C119.103 35.0553 119.002 35.012 118.897 34.9808L118.899 34.9798Z" fill="#231F20"/>
<path d="M25.6033 96.0819C25.6033 96.0819 21.5293 89.563 15.6253 89.764C11.5573 89.909 5.48633 92.8639 5.48633 92.8639L33.1133 120.389C33.1133 120.389 42.0223 127.077 43.4393 124.944C44.8563 122.811 45.7093 120.686 44.8803 119.294C44.0513 117.902 39.3193 115.471 39.3193 115.471L38.7313 109.901C38.7313 109.901 35.4233 111.06 34.3693 110.481C33.3153 109.902 25.6033 96.0819 25.6033 96.0819Z" fill="white"/>
<path d="M42.52 125.868C39.743 125.868 33.546 121.312 32.83 120.768L5.13699 93.1929C5.08416 93.1382 5.04445 93.0722 5.02097 92.9999C4.9983 92.9295 4.99351 92.8546 5.00699 92.7819C5.02028 92.709 5.05078 92.6405 5.09598 92.5819C5.13929 92.5194 5.19828 92.4694 5.267 92.4369C5.517 92.3159 11.476 89.4369 15.601 89.2979H15.901C21.842 89.2979 25.842 95.5679 26.011 95.8419C29.649 102.377 33.89 109.604 34.611 110.112C35.199 110.434 37.275 109.951 38.563 109.492C38.6327 109.468 38.7068 109.46 38.78 109.468C38.8514 109.477 38.9199 109.501 38.98 109.541C39.0421 109.576 39.0946 109.626 39.133 109.686C39.1724 109.746 39.1974 109.814 39.206 109.886L39.769 115.206C40.807 115.753 44.485 117.758 45.274 119.093C46.32 120.856 45.065 123.415 43.817 125.25C43.7029 125.407 43.5575 125.538 43.39 125.636C43.2248 125.741 43.0377 125.807 42.843 125.829C42.7369 125.851 42.6292 125.864 42.521 125.869L42.52 125.868ZM6.301 92.9989L33.457 120.049C35.308 121.481 40.813 125.216 42.721 124.91C42.7857 124.903 42.8485 124.884 42.906 124.854C42.9649 124.825 43.0171 124.784 43.059 124.733C44.596 122.455 45.103 120.633 44.483 119.574C43.863 118.515 40.411 116.588 39.131 115.936C39.0617 115.898 39.0013 115.846 38.954 115.783C38.9132 115.717 38.8882 115.643 38.881 115.566L38.35 110.584C37.255 110.922 35.131 111.493 34.173 110.938C33.073 110.351 27.042 99.6139 25.215 96.3629C25.038 96.0889 21.101 90.1089 15.661 90.2859C12.454 90.3519 7.914 92.2759 6.301 92.9999V92.9989Z" fill="#231F20"/>
<path d="M48.2021 184.574H38.6401C38.5821 184.575 38.5246 184.564 38.4711 184.542C38.4226 184.517 38.3767 184.488 38.334 184.454C38.2944 184.416 38.264 184.369 38.2451 184.317C38.2229 184.266 38.212 184.211 38.2131 184.156C38.2106 184.073 38.2341 183.991 38.2803 183.922C38.3266 183.853 38.3933 183.799 38.4711 183.77C38.5246 183.748 38.5821 183.737 38.6401 183.738H48.2021C48.3161 183.736 48.4259 183.78 48.508 183.859C48.5867 183.939 48.6308 184.047 48.6308 184.159C48.6308 184.271 48.5867 184.379 48.508 184.459C48.4229 184.533 48.3145 184.573 48.2021 184.574Z" fill="#231F20"/>
<path d="M80.6448 184.574H71.1108C70.9976 184.572 70.889 184.529 70.8048 184.453C70.7261 184.373 70.6821 184.265 70.6821 184.153C70.6821 184.041 70.7261 183.933 70.8048 183.853C70.8869 183.774 70.9969 183.73 71.1108 183.732H80.6478C80.7034 183.731 80.7586 183.741 80.8102 183.762C80.8617 183.783 80.9086 183.814 80.9479 183.853C80.9892 183.891 81.0221 183.938 81.0447 183.989C81.0672 184.041 81.0789 184.097 81.0789 184.153C81.0789 184.209 81.0672 184.265 81.0447 184.317C81.0221 184.368 80.9892 184.415 80.9479 184.453C80.8663 184.529 80.7593 184.572 80.6478 184.574H80.6448Z" fill="#231F20"/>
<path d="M64.4363 8.49285C64.9047 8.48418 65.36 8.33746 65.7454 8.07097C66.1307 7.80449 66.4289 7.43015 66.6023 6.99492C66.7757 6.5597 66.8167 6.08291 66.7202 5.62444C66.6238 5.16598 66.3942 4.74622 66.0601 4.41778C65.726 4.08933 65.3023 3.86687 64.8423 3.77825C64.3822 3.68963 63.9062 3.73878 63.474 3.91961C63.0418 4.10043 62.6726 4.40491 62.4127 4.79473C62.1528 5.18455 62.0139 5.64239 62.0132 6.11089C62.0155 6.42649 62.0801 6.73849 62.2032 7.0291C62.3264 7.31971 62.5055 7.58324 62.7306 7.80449C62.9557 8.02575 63.2222 8.2004 63.5149 8.31853C63.8076 8.43666 64.1207 8.49588 64.4363 8.49285Z" fill="#30C684"/>
</svg>
