<svg width="248" height="222" viewBox="0 0 248 222" fill="none" xmlns="http://www.w3.org/2000/svg">
<path d="M246.712 201.87H3.34515C3.28692 201.872 3.22907 201.861 3.17529 201.839C3.12152 201.816 3.0731 201.783 3.0332 201.74C2.99208 201.7 2.95942 201.651 2.93713 201.598C2.91484 201.545 2.90332 201.488 2.90332 201.43C2.90332 201.372 2.91484 201.315 2.93713 201.262C2.95942 201.209 2.99208 201.161 3.0332 201.12C3.11654 201.038 3.22828 200.992 3.34515 200.99H246.712C246.829 200.992 246.941 201.038 247.024 201.12C247.065 201.161 247.097 201.209 247.12 201.262C247.142 201.315 247.153 201.373 247.153 201.43C247.153 201.488 247.142 201.545 247.12 201.598C247.097 201.651 247.065 201.699 247.024 201.74C246.984 201.783 246.936 201.816 246.882 201.838C246.828 201.861 246.77 201.872 246.712 201.87Z" fill="#D1D3D4"/>
<path d="M196.444 214.87H91.7359C90.8239 214.877 89.9201 214.697 89.0804 214.341C88.2406 213.985 87.4829 213.461 86.8539 212.8C86.2268 212.135 85.744 211.348 85.4359 210.487C85.1279 209.627 85.0013 208.712 85.0639 207.8L95.5829 7.88007C95.6927 5.98484 96.5178 4.20187 97.8913 2.89142C99.2649 1.58097 101.085 0.840642 102.983 0.820009H207.7C208.612 0.806939 209.518 0.984344 210.358 1.34076C211.198 1.69718 211.954 2.22485 212.579 2.89008C213.205 3.55359 213.686 4.33949 213.993 5.19831C214.3 6.05712 214.426 6.97022 214.363 7.88007L203.852 207.82C203.738 209.713 202.912 211.493 201.539 212.801C200.166 214.109 198.348 214.848 196.452 214.87H196.444Z" fill="#231F20"/>
<path d="M196.444 215.26H91.736C90.7739 215.27 89.8203 215.079 88.9359 214.7C87.6 214.131 86.4733 213.163 85.7111 211.927C84.9488 210.691 84.5886 209.249 84.6799 207.8L95.1899 7.86007C95.323 5.87147 96.1989 4.00561 97.6439 2.6329C99.0888 1.26019 100.997 0.480982 102.99 0.450038H207.7C208.663 0.437665 209.619 0.625012 210.506 1.00021C211.394 1.37541 212.194 1.93037 212.856 2.63009C213.517 3.33127 214.027 4.16098 214.354 5.06759C214.681 5.9742 214.818 6.93835 214.756 7.90011L204.237 207.85C204.101 209.836 203.225 211.699 201.782 213.071C200.339 214.443 198.434 215.224 196.444 215.26ZM102.988 1.23007C101.193 1.25224 99.4726 1.95192 98.1715 3.18881C96.8705 4.4257 96.0848 6.10849 95.9719 7.90011L85.4609 207.85C85.4035 208.706 85.5237 209.564 85.814 210.371C86.1043 211.177 86.5584 211.915 87.1478 212.538C87.7372 213.161 88.4491 213.655 89.2387 213.989C90.0283 214.323 90.8786 214.49 91.736 214.48H196.444C198.248 214.467 199.98 213.771 201.29 212.531C202.6 211.291 203.392 209.601 203.504 207.8L214.015 7.86007C214.076 7.00195 213.959 6.1404 213.67 5.33004C213.38 4.52216 212.926 3.78337 212.335 3.16024C211.745 2.53711 211.032 2.04323 210.241 1.71005C209.449 1.3816 208.598 1.21828 207.741 1.23007H102.988Z" fill="#231F20"/>
<path d="M188.705 214.51H84.0001C83.0879 214.52 82.1834 214.342 81.3436 213.985C80.5038 213.629 79.7469 213.102 79.1203 212.439C78.4938 211.776 78.0112 210.991 77.703 210.132C77.3947 209.273 77.2674 208.36 77.3291 207.45L87.8222 7.5302C87.9371 5.63362 88.7652 3.85072 90.1402 2.53936C91.5151 1.228 93.3352 0.485183 95.2351 0.460135H199.957C200.869 0.4515 201.774 0.631681 202.613 0.98931C203.452 1.34694 204.209 1.87429 204.834 2.53826C205.46 3.20223 205.942 3.98852 206.249 4.84759C206.557 5.70665 206.683 6.61999 206.62 7.5302L196.109 207.47C195.995 209.362 195.169 211.141 193.795 212.447C192.422 213.754 190.604 214.491 188.709 214.51H188.705Z" fill="white"/>
<path d="M188.705 215H84.0001C83.0302 215.01 82.0687 214.82 81.1761 214.44C79.8309 213.867 78.6963 212.891 77.9283 211.646C77.1603 210.402 76.7966 208.95 76.8871 207.49L87.4071 7.51016C87.5275 5.50461 88.4042 3.61942 89.8601 2.2349C91.3161 0.850374 93.243 0.0696297 95.2521 0.0502028H199.957C200.925 0.0398778 201.885 0.2305 202.776 0.610139C204.119 1.18291 205.253 2.15755 206.02 3.40018C206.787 4.64281 207.151 6.09255 207.061 7.5502L196.55 207.49C196.441 209.504 195.57 211.402 194.113 212.797C192.656 214.192 190.722 214.979 188.705 215ZM95.2481 0.930208C93.4653 0.950631 91.7561 1.64424 90.4633 2.87198C89.1704 4.09972 88.3895 5.77083 88.2771 7.5502L77.7661 207.49C77.7108 208.339 77.8315 209.19 78.1204 209.99C78.4093 210.79 78.8603 211.522 79.4451 212.14C80.0299 212.757 80.736 213.248 81.5191 213.58C82.3022 213.912 83.1455 214.079 83.9961 214.07H188.705C190.487 214.05 192.196 213.357 193.488 212.129C194.779 210.901 195.558 209.229 195.668 207.45L206.179 7.51016C206.232 6.6612 206.11 5.81032 205.821 5.01041C205.532 4.2105 205.081 3.4786 204.497 2.86014C203.914 2.24277 203.21 1.75258 202.429 1.42044C201.648 1.0883 200.806 0.921465 199.957 0.930208H95.2481Z" fill="#231F20"/>
<path d="M181.972 201.87H91.9568C91.1746 201.878 90.3992 201.725 89.6787 201.421C88.9582 201.116 88.308 200.667 87.7688 200.1C87.2308 199.531 86.8157 198.858 86.5492 198.121C86.2828 197.385 86.1706 196.602 86.2198 195.82L95.4508 19.8401C95.5493 18.2251 96.2559 16.7074 97.4283 15.5923C98.6007 14.4772 100.152 13.8476 101.77 13.8301H191.785C192.567 13.8209 193.343 13.9745 194.062 14.2809C194.782 14.5873 195.43 15.0399 195.966 15.6101C196.504 16.1753 196.919 16.8461 197.185 17.5801C197.45 18.3163 197.562 19.0992 197.512 19.8801L188.29 195.87C188.188 197.483 187.48 198.997 186.308 200.11C185.137 201.223 183.588 201.851 181.972 201.87ZM101.772 14.7101C100.381 14.7282 99.0482 15.2709 98.0403 16.2295C97.0324 17.1881 96.4236 18.492 96.3358 19.8801L87.0778 195.87C87.0366 196.531 87.1316 197.193 87.357 197.816C87.5823 198.439 87.9332 199.009 88.3878 199.49C88.8442 199.97 89.3937 200.351 90.0028 200.61C90.6121 200.87 91.2693 201 91.9318 200.99H181.947C183.337 200.971 184.67 200.428 185.677 199.47C186.685 198.511 187.294 197.208 187.383 195.82L196.658 19.8401C196.703 19.1782 196.61 18.5142 196.387 17.8895C196.163 17.2649 195.813 16.6931 195.358 16.2101C194.901 15.7304 194.351 15.3492 193.742 15.0901C193.132 14.8298 192.475 14.7004 191.813 14.7101H101.772Z" fill="#D1D3D4"/>
<path d="M149.539 8.44009H129.86C129.743 8.4388 129.632 8.39215 129.55 8.30996C129.467 8.22778 129.42 8.11662 129.418 8.00015C129.418 7.94237 129.429 7.8851 129.451 7.83181C129.474 7.77853 129.506 7.73028 129.548 7.69009C129.588 7.64764 129.636 7.61423 129.69 7.59182C129.744 7.56942 129.802 7.55865 129.86 7.56021H149.539C149.597 7.55865 149.655 7.56942 149.709 7.59182C149.763 7.61423 149.811 7.64764 149.851 7.69009C149.892 7.73028 149.925 7.77853 149.948 7.83181C149.97 7.8851 149.981 7.94237 149.981 8.00015C149.979 8.11662 149.932 8.22778 149.849 8.30996C149.767 8.39215 149.655 8.4388 149.539 8.44009Z" fill="#D1D3D4"/>
<path d="M155.894 8.44008H152.452C152.336 8.43831 152.225 8.39186 152.142 8.3102C152.059 8.22831 152.012 8.11675 152.011 8.00014C152.01 7.94242 152.021 7.88521 152.043 7.83192C152.066 7.77864 152.098 7.73032 152.14 7.69008C152.18 7.64768 152.228 7.61421 152.282 7.59181C152.336 7.56941 152.394 7.5587 152.452 7.5602H155.894C155.952 7.5587 156.01 7.56941 156.064 7.59181C156.117 7.61421 156.166 7.64768 156.206 7.69008C156.247 7.73069 156.279 7.77909 156.301 7.83229C156.323 7.88549 156.335 7.94251 156.335 8.00014C156.335 8.05776 156.323 8.11478 156.301 8.16798C156.279 8.22119 156.247 8.26958 156.206 8.3102C156.122 8.39198 156.011 8.43841 155.894 8.44008Z" fill="#D1D3D4"/>
<path d="M208.72 48.5402C208.662 48.542 208.604 48.5281 208.553 48.5001C208.501 48.477 208.454 48.4429 208.416 48.4002C208.379 48.355 208.35 48.3044 208.329 48.2501C208.311 48.1953 208.303 48.1377 208.305 48.0801L209.391 27.4102C209.392 27.3515 209.405 27.2935 209.429 27.2401C209.453 27.1877 209.487 27.1402 209.529 27.1001C209.572 27.0605 209.623 27.0299 209.678 27.0101C209.733 26.9935 209.791 26.9867 209.849 26.9901C209.907 26.9932 209.963 27.0068 210.016 27.0302C210.069 27.0538 210.117 27.0882 210.157 27.1312C210.197 27.1742 210.227 27.2249 210.246 27.2802C210.267 27.3344 210.275 27.3922 210.272 27.4501L209.178 48.1201C209.176 48.1789 209.163 48.2368 209.138 48.2902C209.113 48.3423 209.079 48.3897 209.038 48.4302C208.996 48.47 208.946 48.5006 208.891 48.5202C208.837 48.5419 208.778 48.5489 208.72 48.5402Z" fill="#D1D3D4"/>
<path d="M178.088 126.12H102.52C101.796 126.13 101.078 125.99 100.411 125.71C99.7445 125.426 99.1437 125.008 98.6461 124.482C98.1485 123.955 97.7648 123.332 97.5189 122.65C97.275 121.968 97.1749 121.243 97.2249 120.52L98.1069 104.4C98.2074 102.894 98.8719 101.481 99.9678 100.443C101.064 99.4054 102.511 98.8188 104.02 98.8002H179.6C180.323 98.7898 181.041 98.9292 181.708 99.2098C182.375 99.4903 182.976 99.9058 183.475 100.43C183.971 100.96 184.354 101.587 184.6 102.27C184.845 102.952 184.945 103.677 184.895 104.4L184.012 120.48C183.921 121.995 183.259 123.419 182.161 124.465C181.062 125.512 179.607 126.103 178.09 126.12H178.088Z" fill="white"/>
<path d="M178.088 126.56H102.52C101.736 126.568 100.959 126.413 100.238 126.106C99.5172 125.799 98.8673 125.347 98.3294 124.777C97.7915 124.207 97.3773 123.532 97.1127 122.794C96.8481 122.056 96.7388 121.272 96.7918 120.49L97.6748 104.38C97.7825 102.76 98.4976 101.24 99.6772 100.124C100.857 99.0078 102.414 98.3779 104.038 98.3601H179.606C180.389 98.3484 181.166 98.5018 181.886 98.8102C182.606 99.1182 183.256 99.5708 183.794 100.14C184.331 100.709 184.746 101.383 185.01 102.119C185.275 102.856 185.386 103.639 185.334 104.42L184.451 120.55C184.34 122.169 183.624 123.686 182.445 124.8C181.266 125.914 179.71 126.542 178.088 126.56ZM104.073 99.2802C102.674 99.297 101.333 99.8406 100.317 100.803C99.3013 101.765 98.6856 103.074 98.5928 104.47L97.7098 120.59C97.6635 121.252 97.7548 121.916 97.9778 122.54C98.1997 123.166 98.5502 123.738 99.0068 124.22C99.4635 124.7 100.014 125.081 100.624 125.34C101.234 125.6 101.892 125.73 102.555 125.72H178.124C179.525 125.694 180.864 125.139 181.874 124.168C182.883 123.196 183.489 121.879 183.569 120.48L184.451 104.37C184.519 103.372 184.276 102.378 183.753 101.525C183.231 100.672 182.457 100.003 181.537 99.6101C180.93 99.3498 180.275 99.2204 179.615 99.2301L104.073 99.2802Z" fill="#231F20"/>
<path d="M128.227 112.24C128.843 112.397 129.399 112.73 129.827 113.2C130.048 113.461 130.213 113.763 130.313 114.09C130.432 114.437 130.476 114.805 130.445 115.17C130.435 115.793 130.255 116.402 129.925 116.93C129.631 117.402 129.228 117.796 128.751 118.08C128.255 118.379 127.712 118.592 127.145 118.71C126.543 118.83 125.931 118.89 125.318 118.89H119.59L120.314 106.22H125.521C126.064 106.222 126.606 106.258 127.145 106.33C127.693 106.401 128.226 106.56 128.724 106.8C129.242 107.04 129.671 107.439 129.949 107.938C130.227 108.438 130.339 109.013 130.269 109.58C130.251 110.191 130.038 110.78 129.66 111.26C129.29 111.709 128.806 112.051 128.26 112.25L128.227 112.24ZM124.071 109.47L123.982 111.02H125.13C125.395 111.035 125.658 110.965 125.88 110.82C125.979 110.747 126.059 110.651 126.113 110.54C126.169 110.428 126.198 110.305 126.197 110.18C126.208 110.074 126.189 109.966 126.142 109.87C126.089 109.777 126.014 109.698 125.924 109.64C125.677 109.519 125.404 109.461 125.13 109.47H124.071ZM123.832 113.76L123.732 115.53H125.003C125.292 115.539 125.578 115.462 125.824 115.31C125.931 115.235 126.019 115.136 126.08 115.02C126.143 114.907 126.178 114.78 126.18 114.65C126.193 114.505 126.156 114.36 126.074 114.24C125.989 114.131 125.88 114.042 125.756 113.98C125.627 113.912 125.486 113.868 125.341 113.85C125.202 113.822 125.06 113.808 124.918 113.81L123.832 113.76Z" fill="black"/>
<path d="M139.426 119.19C138.555 119.21 137.688 119.071 136.867 118.78C136.205 118.533 135.603 118.148 135.102 117.65C134.644 117.173 134.305 116.593 134.113 115.96C133.907 115.28 133.826 114.569 133.875 113.86L134.308 106.16H138.57L138.12 113.42C138.059 113.922 138.188 114.429 138.482 114.84C138.63 115.013 138.816 115.15 139.024 115.24C139.234 115.331 139.463 115.369 139.691 115.35C139.929 115.359 140.167 115.322 140.391 115.24C140.611 115.149 140.81 115.012 140.974 114.84C141.304 114.44 141.485 113.939 141.486 113.42L141.901 106.18H146.137L145.705 113.88C145.667 114.608 145.498 115.323 145.205 115.99C144.912 116.629 144.492 117.201 143.969 117.67C143.407 118.172 142.75 118.556 142.036 118.8C141.195 119.08 140.312 119.212 139.426 119.19Z" fill="black"/>
<path d="M156.838 118.83H152.584L152.875 113.64L148.525 106.16H153.661L155.426 109.87L157.553 106.16H162.553L157.108 113.64L156.838 118.83Z" fill="black"/>
<path d="M163.28 78.0701H122.78L129.646 43.9202H160.286L163.28 78.0701Z" fill="white"/>
<path d="M163.28 78.5101H122.78C122.714 78.5083 122.649 78.4912 122.591 78.4601C122.53 78.4378 122.477 78.3999 122.436 78.3501C122.395 78.2974 122.366 78.2358 122.353 78.1702C122.337 78.108 122.336 78.043 122.348 77.9801L129.214 43.8401C129.237 43.7392 129.291 43.6481 129.369 43.5801C129.448 43.5175 129.545 43.4824 129.646 43.4801H160.287C160.397 43.4823 160.502 43.5256 160.582 43.6014C160.662 43.6773 160.711 43.7802 160.719 43.8901L163.719 78.0302C163.726 78.0909 163.719 78.1523 163.699 78.2101C163.678 78.269 163.646 78.3234 163.605 78.3701C163.563 78.4132 163.512 78.4472 163.456 78.4701C163.4 78.4932 163.34 78.5067 163.28 78.5101ZM123.321 77.6201H162.83L159.909 44.3701H130.009L123.321 77.6201Z" fill="#231F20"/>
<path d="M154.773 44.3702H135.164C135.104 44.367 135.045 44.3534 134.99 44.3301C134.938 44.3034 134.889 44.2698 134.846 44.2301C134.766 44.1388 134.722 44.0216 134.722 43.9002L135.093 37.4701C135.276 34.7201 136.488 32.1401 138.489 30.2442C140.489 28.3482 143.13 27.2756 145.886 27.2402C147.888 27.2148 149.847 27.815 151.491 28.9569C153.135 30.0989 154.381 31.7257 155.056 33.6101C155.503 34.8624 155.687 36.1937 155.594 37.5202L155.232 43.9501C155.223 44.0651 155.17 44.1724 155.085 44.2503C155 44.3282 154.889 44.371 154.773 44.3702ZM135.631 43.4801H154.349L154.693 37.4701C154.779 36.2647 154.613 35.0545 154.207 33.9163C153.801 32.7781 153.163 31.7367 152.333 30.8578C151.504 29.979 150.501 29.2818 149.388 28.8106C148.275 28.3393 147.077 28.1042 145.868 28.1202C143.337 28.1541 140.912 29.1403 139.075 30.8824C137.239 32.6244 136.126 34.9944 135.958 37.5202L135.631 43.4801Z" fill="#231F20"/>
<path d="M157.482 51.5001H131.651C131.534 51.4985 131.422 51.4519 131.339 51.3701C131.257 51.2839 131.21 51.1694 131.21 51.0502C131.211 50.9339 131.257 50.8225 131.339 50.7401C131.422 50.6583 131.534 50.6118 131.651 50.6101H157.482C157.598 50.6118 157.709 50.6584 157.791 50.7401C157.871 50.8238 157.918 50.9342 157.923 51.0502C157.922 51.1694 157.876 51.2839 157.794 51.3701C157.71 51.4519 157.599 51.4985 157.482 51.5001Z" fill="#D1D3D4"/>
<path d="M174.55 138.91H104.664C104.547 138.909 104.436 138.862 104.352 138.78C104.311 138.74 104.279 138.691 104.257 138.638C104.235 138.585 104.223 138.528 104.223 138.47C104.223 138.412 104.235 138.355 104.257 138.302C104.279 138.249 104.311 138.201 104.352 138.16C104.392 138.118 104.44 138.084 104.494 138.062C104.548 138.04 104.606 138.029 104.664 138.03H174.55C174.608 138.029 174.666 138.04 174.72 138.062C174.774 138.084 174.822 138.118 174.862 138.16C174.903 138.201 174.935 138.249 174.958 138.302C174.98 138.355 174.991 138.412 174.991 138.47C174.991 138.528 174.98 138.585 174.958 138.638C174.935 138.691 174.903 138.74 174.862 138.78C174.779 138.862 174.667 138.909 174.55 138.91Z" fill="#D1D3D4"/>
<path d="M173.694 154H103.808C103.691 153.998 103.58 153.952 103.496 153.87C103.416 153.786 103.37 153.676 103.367 153.56C103.368 153.441 103.414 153.327 103.496 153.24C103.58 153.158 103.691 153.112 103.808 153.11H173.694C173.811 153.112 173.923 153.158 174.006 153.24C174.088 153.327 174.134 153.441 174.135 153.56C174.132 153.676 174.086 153.786 174.006 153.87C173.923 153.952 173.811 153.998 173.694 154Z" fill="#D1D3D4"/>
<path d="M172.838 169.07H102.952C102.835 169.069 102.723 169.022 102.64 168.94C102.56 168.856 102.514 168.746 102.511 168.63C102.512 168.511 102.558 168.397 102.64 168.31C102.723 168.228 102.835 168.182 102.952 168.18H172.838C172.955 168.182 173.066 168.228 173.15 168.31C173.232 168.397 173.278 168.511 173.279 168.63C173.276 168.746 173.23 168.856 173.15 168.94C173.066 169.022 172.955 169.069 172.838 169.07Z" fill="#D1D3D4"/>
<path d="M161.621 184.17H112.448C112.39 184.172 112.332 184.161 112.278 184.138C112.224 184.116 112.176 184.083 112.136 184.04C112.094 184 112.062 183.952 112.04 183.898C112.017 183.845 112.006 183.788 112.007 183.73C112.007 183.672 112.019 183.615 112.042 183.562C112.064 183.509 112.097 183.461 112.139 183.42C112.221 183.338 112.332 183.292 112.448 183.29H161.621C161.679 183.289 161.737 183.299 161.791 183.322C161.844 183.344 161.893 183.378 161.933 183.42C161.974 183.461 162.006 183.509 162.028 183.562C162.05 183.615 162.062 183.672 162.062 183.73C162.062 183.788 162.05 183.845 162.028 183.898C162.006 183.951 161.974 184 161.933 184.04C161.893 184.083 161.844 184.116 161.791 184.138C161.737 184.161 161.679 184.172 161.621 184.17Z" fill="#D1D3D4"/>
<path d="M227.3 173.97C227.391 172.687 227.119 171.405 226.515 170.27C225.925 169.519 225.374 168.738 224.865 167.93C224.159 166.43 224.653 164.66 224.485 163.01C224.329 161.619 223.707 160.322 222.72 159.33C221.838 158.45 220.752 157.87 219.92 156.96C218.57 155.46 218.155 153.36 217.413 151.5C216.325 148.871 214.439 146.65 212.021 145.15C213.495 148.11 210.133 151.88 211.66 154.86C212.136 155.8 213.06 156.47 213.425 157.46C214.307 159.85 211.43 162.43 212.339 164.8C212.798 165.97 214.06 166.66 214.651 167.79C215.437 169.3 214.819 171.12 214.881 172.83C214.969 175.19 216.399 177.25 218.102 178.92C219.161 179.93 220.335 180.81 221.482 181.72C222.85 182.82 223.423 183.98 224.632 182.22C226.306 179.789 227.232 176.921 227.297 173.97H227.3Z" fill="#231F20"/>
<path d="M228.832 175.32C228.4 173.5 228.082 171.52 228.832 169.81C229.715 167.87 231.762 166.49 232.009 164.39C232.168 163.01 231.471 161.62 231.745 160.26C232.019 158.9 233.13 157.97 234.039 156.97C236.138 154.65 237.383 151.683 237.569 148.56C238.987 150.235 240.128 152.125 240.949 154.16C241.356 155.177 241.524 156.274 241.44 157.367C241.356 158.459 241.022 159.517 240.464 160.46C240.104 160.885 239.806 161.36 239.581 161.87C239.166 163.21 240.314 164.46 240.905 165.73C241.259 166.456 241.406 167.266 241.332 168.07C241.26 168.875 240.965 169.643 240.481 170.29C239.281 171.79 236.951 172.38 236.381 174.2C236.235 174.88 236.164 175.574 236.169 176.27C236.048 177.479 235.567 178.624 234.788 179.556C234.009 180.489 232.968 181.166 231.8 181.5C230.38 181.85 230.406 181.28 230.15 180.08C229.838 178.47 229.221 176.92 228.832 175.32Z" fill="#231F20"/>
<path d="M224.314 162.23C223.299 158.7 222.893 155.07 221.834 151.63C220.93 148.901 219.824 146.244 218.524 143.68L222.858 145.51C224.252 146.09 225.752 146.78 226.388 148.16C227.535 150.53 225.505 153.56 226.679 155.9C227.2 156.661 227.775 157.382 228.4 158.06C229.67 159.83 229.476 162.32 228.779 164.4C228.479 165.29 227.164 169.94 225.99 168.65C225.523 168.13 225.479 166.21 225.284 165.51C224.993 164.39 224.6 163.32 224.314 162.23Z" fill="#231F20"/>
<path d="M226.617 208.69C225.734 202.98 223.087 182.83 223.017 182.63L223.9 182.51C223.9 182.71 226.636 202.83 227.492 208.56L226.617 208.69Z" fill="#231F20"/>
<path d="M227.764 214.12H226.882C226.926 207.33 229.768 181.36 231.409 179.57L232.053 180.17C230.783 181.48 227.817 206.55 227.764 214.12Z" fill="#231F20"/>
<path d="M229.229 212.79L228.347 212.75C228.991 198.13 225.893 167.4 225.867 167.09L226.749 167C226.776 167.3 229.9 198.1 229.229 212.79Z" fill="#231F20"/>
<path d="M219.257 192.31H235.389L234.26 210.65C234.244 212.095 233.681 213.48 232.683 214.525C231.685 215.571 230.328 216.198 228.885 216.28H225.761C224.317 216.2 222.959 215.574 221.96 214.528C220.962 213.482 220.4 212.096 220.387 210.65L219.257 192.31Z" fill="white"/>
<path d="M228.885 216.77H225.761C224.202 216.688 222.732 216.016 221.649 214.891C220.566 213.766 219.951 212.272 219.928 210.71L218.798 192.37C218.795 192.242 218.839 192.118 218.922 192.02C219.013 191.934 219.132 191.885 219.257 191.88H235.389C235.45 191.883 235.51 191.897 235.567 191.92C235.623 191.943 235.674 191.977 235.716 192.02C235.759 192.066 235.793 192.121 235.816 192.18C235.837 192.241 235.846 192.306 235.842 192.37L234.713 210.71C234.692 212.271 234.078 213.766 232.996 214.891C231.914 216.016 230.444 216.688 228.885 216.77ZM219.742 192.79L220.837 210.58C221.022 213.5 223.184 215.79 225.761 215.79H228.885C231.462 215.79 233.624 213.5 233.801 210.57L234.901 192.72L219.742 192.79Z" fill="#231F20"/>
<path d="M18.833 141.73L13.882 148.97C13.882 148.97 13.564 152.83 12.54 152.91C11.516 152.99 11.914 149.68 11.914 149.68C11.914 149.68 1.527 154.98 1.324 152.43C1.121 149.88 8.38404 145.75 8.48104 145.51C8.57804 145.27 12.726 139.32 12.726 139.32L18.833 141.73Z" fill="white"/>
<path d="M2.4 153.55C2.06265 153.559 1.72767 153.491 1.421 153.35C1.25562 153.267 1.11699 153.138 1.02097 152.98C0.92165 152.828 0.864074 152.652 0.853981 152.47C0.668981 150.47 4.03098 147.95 7.34898 145.74L8.09898 145.23C8.29298 144.9 9.061 143.72 12.335 139.04C12.394 138.959 12.4775 138.9 12.573 138.87C12.669 138.843 12.771 138.847 12.865 138.88L19.042 141.32C19.1 141.349 19.1538 141.387 19.202 141.43C19.2467 141.479 19.2808 141.537 19.302 141.6C19.322 141.665 19.3277 141.733 19.3189 141.8C19.3115 141.865 19.2875 141.927 19.249 141.98L14.36 149.13C14.237 150.46 13.8479 153.26 12.5949 153.36C12.4673 153.37 12.3391 153.35 12.221 153.3C12.1033 153.252 11.9965 153.18 11.907 153.09C11.4547 152.285 11.2867 151.352 11.43 150.44C9.40697 151.4 4.765 153.55 2.4 153.55ZM12.8579 139.83C11.3139 142.05 9.00999 145.38 8.85099 145.68C8.85099 145.84 8.73695 145.89 7.84495 146.48C6.29195 147.51 1.57096 150.66 1.72996 152.39C1.72937 152.429 1.74015 152.467 1.76096 152.5C1.78023 152.532 1.8094 152.556 1.84397 152.57C2.96497 153.19 8.29498 151.02 11.711 149.29C11.7807 149.25 11.8597 149.23 11.94 149.23C12.0206 149.23 12.0999 149.25 12.17 149.29C12.2327 149.337 12.2832 149.399 12.317 149.47C12.3502 149.542 12.3632 149.621 12.355 149.7C12.1664 150.616 12.2272 151.566 12.531 152.45C12.849 152.34 13.299 150.61 13.414 148.92C13.4208 148.844 13.4481 148.772 13.493 148.71L18.135 141.91L12.8579 139.83Z" fill="#231F20"/>
<path d="M34.1699 98.2902C32.7499 98.7502 10.4219 140.31 10.4219 140.31L18.0999 144.09C18.0999 144.09 42.2889 121.05 43.2339 113.73C44.1789 106.41 34.1699 98.2902 34.1699 98.2902Z" fill="#30C684"/>
<path d="M46.6582 165.28C46.8782 165.94 50.1882 170.37 49.7462 172.34C49.3042 174.31 48.2202 214.66 48.2202 214.66L54.6092 216.86C54.6092 216.86 62.5522 176.77 63.4342 171.02C63.9542 167.352 63.9542 163.628 63.4342 159.96L46.6582 165.28Z" fill="white"/>
<path d="M54.6093 217.31C54.5628 217.32 54.5148 217.32 54.4683 217.31L48.0792 215.11C47.9913 215.075 47.9151 215.016 47.8593 214.94C47.8048 214.861 47.7768 214.766 47.7793 214.67C47.8233 213.03 48.8733 174.3 49.3143 172.27C49.6053 170.97 47.7963 168.05 46.9313 166.65C46.6662 166.266 46.4322 165.861 46.2313 165.44C46.1872 165.328 46.1872 165.203 46.2313 165.09C46.2597 165.037 46.2969 164.99 46.3413 164.95C46.3896 164.917 46.4416 164.891 46.4962 164.87L63.2633 159.57C63.3238 159.553 63.3872 159.549 63.4494 159.558C63.5117 159.566 63.5715 159.588 63.6253 159.62C63.6818 159.65 63.7288 159.695 63.7612 159.75C63.7964 159.801 63.8193 159.859 63.8283 159.92C64.3503 163.635 64.3503 167.405 63.8283 171.12C62.9463 176.81 55.0653 216.58 55.0033 216.99C54.9916 217.051 54.9667 217.109 54.9303 217.16C54.8932 217.21 54.8458 217.251 54.7913 217.28C54.7344 217.31 54.6696 217.32 54.6063 217.31H54.6093ZM48.6702 214.35L54.2703 216.29C55.1523 211.65 62.2123 176.28 63.0073 170.96C63.4985 167.506 63.5221 164.001 63.0773 160.54L47.2893 165.53C47.4043 165.73 47.5452 165.95 47.6782 166.16C48.7452 167.93 50.5462 170.79 50.1782 172.45C49.8702 173.98 49.0492 200.34 48.6702 214.35Z" fill="#231F20"/>
<path d="M31.5412 163.62C31.5412 163.62 31.6292 168.15 31.1882 169.48C30.7472 170.81 16.8882 209.06 16.8882 209.06L21.9012 211.56C21.9012 211.56 45.3132 174.84 45.9142 171.81C46.2431 169.318 46.2431 166.793 45.9142 164.3L31.5412 163.62Z" fill="white"/>
<path d="M21.8998 212.01C21.8309 212.004 21.7634 211.987 21.6998 211.96L16.6878 209.45C16.5915 209.401 16.5159 209.32 16.4748 209.22C16.4345 209.118 16.4317 209.004 16.4668 208.9C16.6078 208.53 30.3218 170.65 30.7548 169.34C31.0526 167.452 31.1648 165.54 31.0899 163.63C31.0862 163.569 31.0967 163.507 31.1208 163.45C31.1415 163.393 31.1759 163.341 31.2208 163.3C31.3097 163.218 31.4258 163.172 31.5468 163.17L45.9228 163.88C46.0272 163.889 46.1261 163.931 46.2048 164C46.2813 164.071 46.3313 164.167 46.3468 164.27C46.6848 166.812 46.6848 169.388 46.3468 171.93C45.7378 174.98 23.2338 210.3 22.2718 211.8C22.2332 211.867 22.1772 211.922 22.1098 211.96C22.0439 211.991 21.9725 212.008 21.8998 212.01ZM17.4868 208.84L21.7868 210.99C28.3968 200.56 45.0138 174.13 45.4548 171.72C45.7579 169.393 45.7579 167.037 45.4548 164.71L31.9179 164.04C31.9878 165.895 31.8604 167.752 31.5378 169.58C31.1768 170.88 18.9798 204.66 17.4448 208.82L17.4868 208.84Z" fill="#231F20"/>
<path d="M48.22 214.66L47.8311 220.78H50.3381L50.6291 219.3C50.6291 219.3 52.8701 221.3 55.2441 221.22C57.6181 221.14 62.419 221.82 62.569 221.22C62.719 220.62 54.6271 216.86 54.6271 216.86L48.22 214.66Z" fill="#231F20"/>
<path d="M61.2807 221.92C60.6277 221.92 59.7447 221.86 58.5807 221.79C57.4167 221.72 56.1447 221.63 55.2627 221.66C53.6897 221.597 52.174 221.053 50.9208 220.1L50.7707 220.87C50.753 220.969 50.6988 221.059 50.6188 221.12C50.541 221.187 50.4412 221.223 50.3387 221.22H47.8317C47.7727 221.22 47.7142 221.21 47.6587 221.19C47.6063 221.164 47.5579 221.13 47.5147 221.09C47.4711 221.044 47.437 220.99 47.4147 220.93C47.3934 220.873 47.3845 220.811 47.3887 220.75L47.7767 214.63C47.7815 214.563 47.8017 214.498 47.8357 214.44C47.8692 214.38 47.9157 214.329 47.9717 214.29C48.0296 214.256 48.0929 214.233 48.1587 214.22C48.2261 214.212 48.2944 214.219 48.3587 214.24L54.7477 216.46C63.2287 220.39 63.0878 220.95 62.9908 221.33C62.8938 221.71 62.4097 221.92 61.2807 221.92ZM55.6498 220.78C56.5328 220.78 57.5917 220.84 58.6327 220.91C59.6737 220.98 60.9807 221.06 61.7327 221.02C59.3654 219.641 56.9264 218.389 54.4258 217.27L48.6257 215.27L48.2987 220.34H49.9757L50.1957 219.22C50.2091 219.142 50.2438 219.07 50.2958 219.01C50.3484 218.952 50.4147 218.907 50.4887 218.88C50.5639 218.857 50.6438 218.853 50.7207 218.87C50.8002 218.882 50.8732 218.921 50.9277 218.98C50.9277 218.98 53.0367 220.87 55.2337 220.74L55.6498 220.78Z" fill="#231F20"/>
<path d="M16.8909 209.06L14.7549 215.4L16.8909 216.14L18.4438 214.22C18.4438 214.22 21.3919 217.02 22.1239 217.61C22.8559 218.2 28.9719 219.92 29.1239 218.81C29.2759 217.7 22.4969 214 21.9059 211.56L16.8909 209.06Z" fill="#231F20"/>
<path d="M28.1598 219.61C25.9704 219.47 23.8284 218.91 21.8509 217.96C21.2509 217.47 19.2908 215.63 18.4878 214.87L17.2168 216.41C17.1621 216.483 17.0848 216.536 16.9969 216.56C16.91 216.587 16.8165 216.584 16.7319 216.55L14.5959 215.81C14.4879 215.771 14.3987 215.692 14.3459 215.59C14.3201 215.539 14.3048 215.484 14.3008 215.427C14.2969 215.371 14.3044 215.314 14.3229 215.26L16.4579 208.91C16.5048 208.795 16.5934 208.702 16.7059 208.65C16.764 208.624 16.827 208.61 16.8909 208.61C16.9547 208.61 17.0178 208.624 17.0759 208.65L22.0759 211.15C22.1336 211.179 22.1846 211.22 22.2256 211.27C22.2666 211.32 22.2967 211.378 22.3139 211.44C22.6059 212.65 24.8468 214.39 26.6468 215.79C28.6678 217.35 29.6299 218.13 29.5469 218.84C29.5256 218.984 29.4639 219.12 29.3689 219.23C29.2745 219.339 29.1532 219.422 29.0169 219.47C28.7432 219.571 28.4526 219.619 28.1609 219.61H28.1598ZM18.4529 213.78C18.5647 213.779 18.6724 213.822 18.7529 213.9C18.7529 213.9 21.6918 216.7 22.4068 217.27C23.1218 217.84 27.7809 219.04 28.6719 218.69C27.9048 217.876 27.0564 217.142 26.1399 216.5C24.2159 215.01 22.0538 213.34 21.5398 211.87L17.1269 209.68L15.2999 215.12L16.7209 215.62L18.0979 213.94C18.1322 213.891 18.1797 213.853 18.2348 213.83C18.2869 213.799 18.3462 213.782 18.4068 213.78H18.4529Z" fill="#231F20"/>
<path d="M60.6192 130.44C60.6192 130.44 64.8111 159.19 64.3701 166.27C64.3701 166.27 43.5341 172.8 29.8291 166.39C29.8291 166.39 31.0022 156.96 28.7962 149.78C26.5902 142.6 25.6962 135.08 28.7962 130.44C28.8002 130.44 50.2322 138.62 60.6192 130.44Z" fill="#231F20"/>
<path d="M44.6453 169.63C39.5273 169.63 34.1883 168.92 29.6453 166.79C29.5616 166.751 29.4925 166.686 29.4481 166.606C29.4037 166.525 29.3862 166.432 29.3983 166.34C29.3983 166.24 30.5273 156.91 28.3743 149.91C26.4863 143.79 24.9683 135.39 28.4273 130.19C28.4859 130.109 28.569 130.05 28.6643 130.02C28.7596 129.99 28.8619 129.99 28.9572 130.02C29.1682 130.1 50.2782 138.03 60.3472 130.09C60.4087 130.045 60.4795 130.014 60.5543 130C60.6302 129.992 60.707 129.998 60.7803 130.02C60.8527 130.05 60.9164 130.099 60.9653 130.16C61.0147 130.224 61.0452 130.3 61.0532 130.38C61.2302 131.55 65.2532 159.25 64.8132 166.3C64.8092 166.388 64.7762 166.473 64.7192 166.54C64.6665 166.613 64.5908 166.666 64.5043 166.69C58.0459 168.551 51.3677 169.539 44.6472 169.63H44.6453ZM30.3052 166.1C42.8192 171.74 61.3952 166.66 63.9462 165.91C64.2192 159.15 60.9193 135.67 60.2833 131.21C54.7943 135.07 46.6833 134.83 40.7453 133.92C36.7404 133.282 32.8005 132.288 28.9722 130.95C25.9542 135.88 27.4193 143.79 29.2193 149.62C31.2193 156.17 30.4552 164.38 30.3052 166.13V166.1Z" fill="#231F20"/>
<path d="M93.0152 109L100.464 108.01C100.464 108.01 105.044 104.83 106.288 104.48C107.532 104.13 114.416 105.03 114.088 105.63C113.76 106.23 112.023 106.18 111.44 106.24C110.64 106.31 109.825 106.35 109.022 106.4C109.8 107.774 110.093 109.37 109.852 110.93C109.769 111.546 109.526 112.129 109.146 112.62C108.766 113.112 108.264 113.495 107.689 113.73C107.367 113.861 107.009 113.879 106.675 113.78C106.511 113.726 106.368 113.622 106.266 113.482C106.165 113.342 106.11 113.173 106.11 113L105.977 113.05C104.926 113.424 103.826 113.647 102.712 113.71C101.83 113.71 101.044 113.25 100.212 113.43C98.9793 113.77 97.7704 114.191 96.5932 114.69L90.1162 116.95L93.0152 109Z" fill="white"/>
<path d="M90.121 117.37C90.0208 117.372 89.9231 117.339 89.8443 117.277C89.7656 117.215 89.7107 117.128 89.689 117.03C89.6709 116.947 89.6767 116.86 89.706 116.78L92.606 108.83C92.6343 108.755 92.6817 108.689 92.7437 108.638C92.8056 108.587 92.8799 108.553 92.959 108.54L100.31 107.57C101.069 107.04 104.952 104.39 106.17 104.04C107.388 103.69 113.75 104.39 114.421 105.23C114.491 105.31 114.534 105.41 114.545 105.515C114.557 105.621 114.535 105.727 114.483 105.82C114.139 106.46 113.062 106.58 111.883 106.64H111.53C110.965 106.69 110.392 106.73 109.83 106.77C110.391 108.091 110.577 109.54 110.368 110.96C110.276 111.656 110 112.314 109.569 112.868C109.138 113.421 108.567 113.85 107.915 114.11C107.499 114.281 107.036 114.299 106.609 114.16C106.293 114.051 106.031 113.826 105.876 113.53C104.886 113.872 103.852 114.068 102.805 114.11C102.4 114.094 101.998 114.037 101.605 113.94C101.213 113.811 100.797 113.77 100.387 113.82C99.578 114.021 98.787 114.289 98.022 114.62C97.616 114.78 97.222 114.94 96.831 115.07L90.3 117.36C90.2432 117.378 90.1826 117.382 90.124 117.37H90.121ZM93.342 109.36L90.8531 116.21L96.501 114.23C96.881 114.1 97.269 113.94 97.657 113.79C98.4659 113.436 99.305 113.155 100.164 112.95C100.699 112.871 101.245 112.908 101.764 113.06C102.089 113.158 102.425 113.212 102.764 113.22C103.837 113.158 104.895 112.942 105.906 112.58H106.021C106.091 112.558 106.164 112.552 106.237 112.56C106.311 112.57 106.381 112.601 106.437 112.65C106.496 112.694 106.541 112.752 106.568 112.82C106.597 112.886 106.61 112.958 106.605 113.03C106.614 113.105 106.645 113.175 106.693 113.232C106.742 113.289 106.807 113.33 106.879 113.35C107.116 113.409 107.366 113.391 107.593 113.3C108.096 113.097 108.535 112.762 108.864 112.33C109.195 111.9 109.405 111.389 109.473 110.85C109.692 109.401 109.425 107.921 108.714 106.64C108.659 106.537 108.645 106.418 108.673 106.305C108.702 106.193 108.771 106.094 108.868 106.03C108.934 105.988 109.008 105.961 109.085 105.95H109.817C110.373 105.95 110.929 105.89 111.485 105.84H111.885C112.359 105.822 112.831 105.768 113.297 105.68C111.762 105.25 107.438 104.69 106.458 104.96C104.473 105.966 102.57 107.126 100.766 108.43C100.711 108.476 100.643 108.503 100.572 108.51L93.342 109.36Z" fill="#231F20"/>
<path d="M28.0898 131.08C28.0898 131.08 32.1578 98.3601 36.8348 91.7501C41.5118 85.1401 53.0198 84.0801 58.3418 88.3401C63.6638 92.6001 60.8658 131.62 60.8658 131.62C60.8658 131.62 43.9568 136.43 28.0898 131.08Z" fill="#30C684"/>
<path d="M58.3417 88.3701C61.6068 89.2703 64.3946 91.4037 66.1168 94.3201C68.6668 99.0401 71.4117 105.5 71.4117 105.5L96.8278 107.62L98.0007 115.72C98.0007 115.72 81.6007 120.75 73.4767 122.18C66.7427 123.37 63.1768 120 60.2388 116.6C59.0903 115.054 58.0664 113.419 57.1768 111.71L58.3417 88.3701Z" fill="#30C684"/>
<path d="M59.5159 73.9102C59.5159 73.9102 61.8809 77.8301 61.3339 78.6001C60.7869 79.3701 59.0659 78.7802 59.0659 78.7802" fill="white"/>
<path d="M60.3 79.4302C59.8319 79.4291 59.3671 79.3513 58.9241 79.2001C58.869 79.1804 58.8184 79.15 58.7753 79.1105C58.7322 79.071 58.6974 79.0233 58.673 78.9702C58.6476 78.9194 58.6324 78.8641 58.6285 78.8074C58.6245 78.7508 58.6319 78.694 58.6501 78.6402C58.6662 78.5844 58.6949 78.5331 58.7341 78.4902C58.7716 78.4474 58.818 78.4133 58.8701 78.3902C58.9219 78.3637 58.9782 78.3467 59.0361 78.3401C59.0941 78.34 59.1516 78.3502 59.2061 78.3702C59.7801 78.5502 60.7331 78.6802 60.9711 78.3702C61.2091 78.0602 60.2561 76.0302 59.1351 74.1702C59.1012 74.1215 59.0759 74.0674 59.0601 74.0102C59.0476 73.9475 59.0476 73.8828 59.0601 73.8201C59.0719 73.7623 59.0961 73.7078 59.131 73.6602C59.1653 73.608 59.2104 73.5637 59.2631 73.5302C59.3159 73.5 59.3739 73.4796 59.4341 73.4702C59.4942 73.4634 59.5551 73.4668 59.6141 73.4802C59.7316 73.5182 59.8296 73.6008 59.8871 73.7101C60.8321 75.2701 62.3231 78.0002 61.6971 78.8902C61.5212 79.0813 61.3054 79.2315 61.0651 79.3301C60.8221 79.423 60.5607 79.4574 60.3021 79.4302H60.3Z" fill="#231F20"/>
<path d="M59.1718 68.8501C60.7248 70.2201 60.1508 72.9801 60.0538 74.7801C59.9418 77.3134 59.7682 79.8434 59.5328 82.3701C59.3828 83.9701 55.2268 83.84 54.5118 83.34L55.3948 87.3501L46.3398 86.0301L46.9048 80.8001C46.9048 80.8001 46.3218 73.5201 48.0698 70.3001C48.5817 69.3808 49.3391 68.6218 50.2573 68.108C51.1756 67.5941 52.2185 67.3456 53.2698 67.3901C53.2698 67.3901 57.6538 67.4801 59.1718 68.8501Z" fill="white"/>
<path d="M55.4002 87.8002H55.3302L46.2582 86.4801C46.1452 86.4618 46.0436 86.4007 45.9745 86.3095C45.9054 86.2182 45.8741 86.1039 45.8872 85.9901L46.4431 80.7602C46.4431 80.5402 45.8692 73.3801 47.6612 70.0901C48.2095 69.0904 49.0285 68.2655 50.0243 67.7101C51.0202 67.1547 52.1524 66.8912 53.2912 66.9501C53.4502 66.9501 57.8362 67.1102 59.4692 68.5302C60.9252 69.8202 60.7311 72.0701 60.5812 73.8301C60.5812 74.1701 60.5282 74.5002 60.5102 74.8002C60.3952 77.3102 60.2192 79.8802 59.9892 82.4102C59.9511 82.701 59.8311 82.9749 59.6432 83.2001C59.458 83.4291 59.2103 83.5993 58.9301 83.6901C57.7129 84.1262 56.402 84.2331 55.1302 84.0002L55.8362 87.2502C55.8533 87.3191 55.8533 87.3912 55.8362 87.4601C55.8194 87.5309 55.785 87.5963 55.7362 87.6502C55.6952 87.6965 55.6451 87.7339 55.5891 87.7602C55.5307 87.7896 55.4656 87.8034 55.4002 87.8002ZM46.8001 85.6502L54.8222 86.8301L54.0802 83.4401C54.0616 83.3536 54.0694 83.2636 54.1025 83.1815C54.1357 83.0995 54.1927 83.0294 54.2661 82.9801C54.3394 82.9288 54.4267 82.9014 54.5161 82.9014C54.6056 82.9014 54.6929 82.9288 54.7661 82.9801C56.0066 83.3457 57.3304 83.3143 58.5522 82.8902C58.8872 82.7302 59.0722 82.5401 59.0902 82.3201C59.3192 79.8101 59.4962 77.2602 59.6112 74.7502C59.5997 74.4182 59.6262 74.0861 59.6902 73.7602C59.8222 72.1702 59.9902 70.2202 58.8612 69.1802C57.7222 68.1702 54.4481 67.8501 53.2301 67.8201C52.2618 67.7612 51.2967 67.9798 50.4482 68.4501C49.5985 68.9201 48.8988 69.6203 48.4292 70.4701C46.7612 73.5301 47.3092 80.6501 47.3092 80.7201L46.8001 85.6502Z" fill="#231F20"/>
<path d="M44.5752 87.2501L45.4572 84.4801L56.5952 85.5602L57.2392 88.1001C55.1972 88.9055 53.0017 89.2471 50.8115 89.1001C48.6213 88.9531 46.4912 88.3212 44.5752 87.2501Z" fill="white"/>
<path d="M51.8731 89.5701C49.2406 89.5565 46.6521 88.8937 44.3371 87.6402C44.2481 87.5908 44.1778 87.5135 44.1372 87.4202C44.0989 87.3245 44.0946 87.2186 44.1251 87.1202L45.0072 84.3501C45.0377 84.2526 45.1009 84.1686 45.1861 84.1121C45.2714 84.0556 45.3734 84.0302 45.4751 84.0402L56.5752 85.1502C56.6658 85.1613 56.7508 85.1996 56.8191 85.2602C56.8886 85.321 56.9388 85.401 56.9632 85.4901L57.5991 88.0302C57.6253 88.1271 57.6153 88.23 57.5711 88.3201C57.531 88.415 57.4552 88.4905 57.3601 88.5302C55.6222 89.2531 53.7531 89.6072 51.8711 89.5701H51.8731ZM45.0782 87.0202C46.8494 87.9412 48.7907 88.4891 50.7821 88.6302C52.7735 88.7712 54.7728 88.5023 56.6562 87.8401L56.1801 85.9701L45.7132 84.9601L45.0782 87.0202Z" fill="#231F20"/>
<path d="M27.8688 127.55C27.752 127.548 27.6402 127.502 27.5568 127.42C27.5154 127.38 27.4826 127.332 27.4605 127.278C27.4383 127.225 27.4271 127.168 27.4278 127.11C27.4278 118.58 31.9198 101.93 32.2988 100.79C32.3383 100.68 32.4195 100.59 32.5248 100.54C32.6308 100.491 32.7508 100.48 32.8638 100.51C32.9622 100.559 33.0407 100.64 33.0858 100.74C33.1301 100.838 33.1358 100.948 33.1018 101.05C32.7318 102.17 28.2658 118.65 28.2748 127.08C28.2754 127.138 28.2643 127.195 28.2421 127.248C28.2199 127.302 28.1872 127.35 28.1458 127.39C28.1058 127.432 28.0574 127.466 28.0036 127.488C27.9499 127.511 27.892 127.522 27.8338 127.52L27.8688 127.55Z" fill="#231F20"/>
<path d="M51.6351 81.3501V81.5401C51.6753 85.2247 50.8976 88.8723 49.3581 92.2201C48.517 94.2708 47.1944 96.0887 45.5021 97.5201C43.7249 98.8121 41.6467 99.628 39.4652 99.8901C37.6069 100.247 35.6874 100.113 33.8971 99.5001C32.4552 98.8608 31.2069 97.8534 30.2775 96.5791C29.3481 95.3047 28.7703 93.8083 28.6021 92.2401C28.3183 89.097 29.0782 85.948 30.7641 83.2801C32.4501 80.4201 34.9821 78.25 36.6941 75.44C38.5481 72.4 39.6331 68.83 41.7071 65.95C43.476 63.6807 45.9645 62.081 48.7634 61.414C51.5623 60.747 54.5049 61.0525 57.1071 62.2801C58.2361 61.1801 60.3811 62.0801 60.9721 63.5301C61.2029 64.1923 61.297 64.8944 61.2485 65.594C61.2001 66.2935 61.0101 66.976 60.6901 67.6001C60.5901 67.7601 59.0132 69.4401 59.0902 68.9101C58.8902 70.3401 57.9521 71.0201 56.8221 71.9201C55.6375 72.7612 54.4091 73.5389 53.1422 74.2501C50.0822 76.1601 51.4941 78.3401 51.6351 81.3501Z" fill="white"/>
<path d="M37.2239 100.45C36.0194 100.469 34.8221 100.262 33.6938 99.8401C32.1884 99.1653 30.8874 98.1056 29.9218 96.7679C28.9562 95.4301 28.3602 93.8615 28.1938 92.2201C27.9149 88.9759 28.7086 85.7298 30.4529 82.9801C31.358 81.5348 32.3854 80.1699 33.5238 78.9002C34.5733 77.7232 35.5292 76.466 36.3829 75.1402C37.163 73.8007 37.8674 72.4185 38.4928 71.0002C39.3012 69.1172 40.2817 67.3128 41.4219 65.6101C43.2227 63.2968 45.7468 61.6536 48.591 60.943C51.4353 60.2325 54.4356 60.4954 57.1128 61.6901C57.3893 61.5 57.7028 61.3705 58.0329 61.3102C58.3629 61.2499 58.7021 61.2601 59.0279 61.3401C59.5596 61.4527 60.0568 61.6901 60.4788 62.0326C60.9008 62.3751 61.2353 62.8131 61.4549 63.3102C61.7061 64.028 61.8076 64.7895 61.753 65.548C61.6985 66.3065 61.4892 67.0457 61.1379 67.7201C60.6792 68.3209 60.1207 68.8385 59.4869 69.2502C59.1081 70.411 58.3253 71.3975 57.2809 72.0302L57.1308 72.1602C56.3469 72.7524 55.521 73.2872 54.6598 73.7602C54.2448 74.0102 53.7769 74.2602 53.4159 74.5102C51.3059 75.8602 51.5089 77.1601 51.8089 79.1901C51.926 79.8884 52.0028 80.593 52.0389 81.3002V81.4302C52.0941 85.1871 51.3165 88.9095 49.7619 92.3301C48.8881 94.4345 47.5197 96.2972 45.7729 97.7602C43.9369 99.1003 41.7896 99.9504 39.5339 100.23C38.7694 100.358 37.9968 100.432 37.2218 100.45H37.2239ZM51.7848 61.4302C49.9125 61.4028 48.0597 61.8135 46.3743 62.6296C44.6888 63.4456 43.2175 64.6443 42.0779 66.1302C40.9829 67.7855 40.0454 69.5398 39.2779 71.3702C38.6443 72.823 37.9223 74.2356 37.1159 75.6001C36.2419 76.9616 35.2622 78.2522 34.1858 79.4601C33.0783 80.6967 32.0774 82.0249 31.1938 83.4302C29.5644 86.0201 28.8269 89.0719 29.0939 92.1202C29.2404 93.606 29.7782 95.0265 30.6525 96.2369C31.5268 97.4472 32.7063 98.4041 34.0708 99.0102C35.7881 99.6096 37.6341 99.7407 39.4189 99.3902C41.5268 99.1404 43.5339 98.3479 45.2439 97.0901C46.8801 95.7189 48.1607 93.9728 48.9769 92.0002C50.4723 88.7218 51.2236 85.1532 51.1769 81.5502V81.3702C51.1418 80.6965 51.068 80.0254 50.9559 79.3601C50.6559 77.3601 50.3739 75.4701 52.9559 73.8201C53.3709 73.5501 53.8379 73.3002 54.2269 73.0502C55.0528 72.5892 55.8457 72.0712 56.5998 71.5002L56.7499 71.3902C57.7829 70.5702 58.5149 69.9702 58.7099 68.7902C58.7283 68.6754 58.7893 68.5718 58.8808 68.5002C58.9263 68.4653 58.9784 68.4402 59.034 68.4264C59.0896 68.4127 59.1474 68.4105 59.2038 68.4202C59.6031 68.0698 59.9777 67.6923 60.3249 67.2902C60.6074 66.7272 60.7748 66.1135 60.8172 65.485C60.8596 64.8566 60.7762 64.226 60.5719 63.6302C60.4067 63.2727 60.1616 62.9578 59.8556 62.7099C59.5496 62.462 59.1909 62.2876 58.8069 62.2001C58.5706 62.1402 58.3231 62.1402 58.0868 62.2001C57.8492 62.2539 57.6293 62.3676 57.4479 62.5302C57.3813 62.5944 57.2964 62.6364 57.2049 62.6502C57.1132 62.6623 57.02 62.6484 56.9358 62.6101C55.3309 61.8271 53.5676 61.4234 51.7818 61.4302H51.7848Z" fill="#231F20"/>
<path d="M59.578 80.4801C59.3243 80.6314 59.0427 80.73 58.75 80.7701C58.4566 80.8038 58.1594 80.7765 57.877 80.6901C57.5958 80.5988 57.3371 80.4493 57.1177 80.2511C56.8984 80.0529 56.7233 79.8107 56.604 79.5402" fill="white"/>
<path d="M58.3421 81.2301C58.1026 81.2286 57.8647 81.1915 57.6361 81.1201C57.3071 81.0067 57.007 80.8223 56.7571 80.5801C56.5066 80.341 56.3098 80.0512 56.1801 79.7301C56.155 79.6767 56.1405 79.6191 56.1371 79.5602C56.1333 79.5024 56.1418 79.4444 56.1621 79.3901C56.1799 79.3338 56.2107 79.2824 56.2521 79.2401C56.2907 79.1942 56.3384 79.1568 56.3921 79.1301C56.4986 79.0868 56.6172 79.0833 56.7261 79.1201C56.7807 79.1399 56.8308 79.1705 56.8734 79.21C56.916 79.2495 56.9502 79.2971 56.9741 79.3501C57.0533 79.5491 57.1728 79.7296 57.3251 79.8801C57.4773 80.0311 57.6582 80.1501 57.8571 80.2301C58.3436 80.3438 58.8548 80.2763 59.2951 80.0402C59.3999 79.9904 59.5191 79.9797 59.6311 80.0101C59.7432 80.0429 59.838 80.1182 59.8951 80.2201C59.9221 80.2699 59.94 80.3241 59.9481 80.3801C59.9551 80.4371 59.9507 80.495 59.9351 80.5502C59.9215 80.6057 59.8947 80.6571 59.8571 80.7001C59.8253 80.7485 59.7801 80.7869 59.7271 80.8102C59.3053 81.0581 58.8305 81.202 58.3421 81.2301Z" fill="#231F20"/>
<path d="M54.5912 75.3502C54.5449 74.7164 54.3252 74.1075 53.9562 73.5901C53.7224 73.1519 53.4248 72.7509 53.0732 72.4002C52.8975 72.226 52.6855 72.0928 52.4522 72.0102C52.2176 71.9322 51.9684 71.9082 51.7232 71.9401C51.5108 71.9818 51.3092 72.0669 51.1312 72.1901C50.9545 72.3212 50.8076 72.4883 50.7002 72.6802C50.4858 73.0608 50.3591 73.4844 50.3292 73.9202C50.2503 74.8714 50.4227 75.8265 50.8292 76.6901C51.2331 77.5558 51.8607 78.298 52.6472 78.8401L52.5142 78.6802" fill="white"/>
<path d="M52.6678 79.2801C52.5803 79.2823 52.4942 79.2579 52.4208 79.21C51.5754 78.6261 50.8993 77.8293 50.4608 76.9001C50.0193 75.9685 49.8277 74.9381 49.9048 73.9101C49.9384 73.4079 50.0831 72.9194 50.3288 72.4801C50.4727 72.2375 50.6643 72.0266 50.8918 71.8601C51.1219 71.6961 51.3844 71.5836 51.6618 71.5301C51.9727 71.4881 52.2891 71.5224 52.5838 71.6301C52.8801 71.7282 53.1502 71.8923 53.3738 72.1101C53.7552 72.4875 54.0793 72.9188 54.3358 73.3901C54.75 73.9827 54.9923 74.6784 55.0358 75.4001C55.0277 75.5139 54.9779 75.6207 54.8958 75.7C54.8129 75.7813 54.702 75.8279 54.5858 75.83C54.5276 75.8299 54.4701 75.8174 54.4172 75.7933C54.3642 75.7691 54.317 75.7339 54.2788 75.69C54.2382 75.6494 54.2061 75.601 54.1845 75.5478C54.1629 75.4946 54.1521 75.4375 54.1528 75.3801C54.1087 74.822 53.9068 74.2879 53.5708 73.84C53.3606 73.4481 53.096 73.0879 52.7848 72.7701C52.6637 72.6337 52.5099 72.5304 52.3378 72.47C52.168 72.4071 51.9862 72.3832 51.8058 72.4001C51.6565 72.4375 51.5163 72.5046 51.3934 72.5974C51.2706 72.6901 51.1677 72.8066 51.0908 72.94C50.9078 73.2649 50.802 73.6277 50.7818 74.0001C50.7193 74.8099 50.8527 75.6228 51.1708 76.3701C51.4917 77.1147 51.9845 77.7728 52.6088 78.2901C52.709 78.3089 52.7995 78.3618 52.8648 78.44L53.0058 78.6001C53.0731 78.678 53.1106 78.7772 53.1118 78.8801C53.1124 78.9863 53.0748 79.0893 53.0058 79.1701C52.9603 79.2101 52.9072 79.2407 52.8498 79.2601C52.7918 79.2821 52.7292 79.289 52.6678 79.2801Z" fill="#231F20"/>
<path d="M58.86 72.8301C59.06 72.8301 59.207 72.4202 59.199 71.9202C59.191 71.4202 59.027 71.0101 58.832 71.0101C58.637 71.0101 58.485 71.4302 58.493 71.9302C58.501 72.4302 58.665 72.8301 58.86 72.8301Z" fill="#231F20"/>
<path d="M65.3929 121.72C65.3169 121.719 65.242 121.702 65.1729 121.67C55.6149 116.2 52.1639 99.1001 52.0229 98.3601C52.007 98.2731 52.0172 98.1834 52.0523 98.1022C52.0873 98.021 52.1457 97.952 52.2199 97.9038C52.2941 97.8557 52.3809 97.8306 52.4694 97.8317C52.5578 97.8328 52.6439 97.8602 52.7169 97.9102C52.7659 97.9437 52.8078 97.9865 52.8402 98.0363C52.8727 98.0861 52.895 98.1417 52.9059 98.2001C52.9059 98.3701 56.4359 115.63 65.6229 120.9C65.6743 120.927 65.7194 120.964 65.7549 121.01C65.7912 121.054 65.8181 121.105 65.8339 121.16C65.8498 121.219 65.8539 121.28 65.8459 121.34C65.8377 121.397 65.8186 121.451 65.7899 121.5C65.7524 121.57 65.6936 121.626 65.6219 121.66C65.5521 121.7 65.4732 121.72 65.3929 121.72Z" fill="#231F20"/>
</svg>
