<svg width="227" height="202" viewBox="0 0 227 202" fill="none" xmlns="http://www.w3.org/2000/svg">
<path d="M165.28 184.76C165.28 184.76 174.23 198.19 175.72 197.44C177.21 196.69 195.93 184.1 193.2 182.85C190.47 181.6 180.6 184.18 180.6 184.18L173.23 175.35L165.28 184.76Z" fill="white"/>
<path d="M175.67 197.89C173.9 197.89 168.89 190.98 164.91 185.01C164.851 184.932 164.819 184.837 164.82 184.74C164.818 184.645 164.85 184.553 164.91 184.48L172.85 175.02C172.89 174.972 172.942 174.934 173 174.91C173.059 174.879 173.124 174.862 173.19 174.86C173.253 174.861 173.315 174.878 173.37 174.91C173.43 174.931 173.482 174.969 173.52 175.02L180.72 183.68C182.38 183.26 190.72 181.26 193.34 182.45C193.492 182.522 193.623 182.632 193.72 182.77C193.81 182.911 193.862 183.073 193.87 183.24C193.92 186.17 176.68 197.44 175.87 197.84C175.808 197.872 175.74 197.889 175.67 197.89ZM165.83 184.79C169.77 190.68 174.57 196.97 175.54 197.04C176.11 196.73 180.59 193.79 184.97 190.54C192.98 184.62 193 183.37 192.98 183.25C190.84 182.28 183.37 183.9 180.67 184.61C180.591 184.632 180.507 184.628 180.43 184.6C180.351 184.569 180.279 184.521 180.22 184.46L173.16 176L165.83 184.79Z" fill="#231F20"/>
<path d="M134.47 181.77C134.47 181.77 130.25 197.61 131.4 198.94C132.55 200.27 159.9 201.59 158.9 200.1C157.9 198.61 145.05 190.31 145.05 190.31L146.27 182.89L134.47 181.77Z" fill="white"/>
<path d="M152.95 201.16C144.93 201.16 131.95 200.23 131.08 199.23C129.86 197.83 133.04 185.43 134.04 181.66C134.067 181.56 134.131 181.474 134.22 181.42C134.304 181.359 134.407 181.331 134.51 181.34L146.32 182.45C146.442 182.47 146.552 182.534 146.63 182.63C146.663 182.679 146.687 182.733 146.7 182.79C146.713 182.846 146.716 182.903 146.71 182.96L145.53 190.1C147.65 191.47 158.3 198.4 159.27 199.82C159.31 199.882 159.34 199.949 159.36 200.02C159.37 200.093 159.37 200.167 159.36 200.24C159.35 200.315 159.323 200.387 159.28 200.45C159.237 200.51 159.182 200.561 159.12 200.6C158.65 201.01 156.21 201.16 152.95 201.16ZM134.8 182.27C132.83 189.72 131.16 197.8 131.74 198.67C133.14 199.76 155.09 200.87 158.28 200.07C156.73 198.57 149.58 193.78 144.81 190.7C144.734 190.657 144.674 190.591 144.64 190.51C144.61 190.43 144.599 190.345 144.61 190.26L145.76 183.31L134.8 182.27Z" fill="#231F20"/>
<path d="M118.47 127.34H84.8599V197.45H118.47V127.34Z" fill="white"/>
<path d="M118.47 197.88H84.8798C84.7634 197.879 84.6521 197.832 84.5698 197.75C84.4876 197.668 84.4408 197.556 84.4397 197.44V127.34C84.4376 127.282 84.4482 127.224 84.4706 127.171C84.4931 127.117 84.5269 127.069 84.5697 127.03C84.6103 126.989 84.6586 126.956 84.7118 126.934C84.765 126.912 84.8221 126.9 84.8798 126.9H118.49C118.547 126.9 118.605 126.912 118.658 126.934C118.711 126.956 118.759 126.989 118.8 127.03C118.843 127.069 118.876 127.117 118.899 127.171C118.921 127.224 118.932 127.282 118.93 127.34V197.44C118.93 197.501 118.919 197.562 118.9 197.62C118.872 197.67 118.839 197.717 118.8 197.76C118.752 197.797 118.702 197.83 118.65 197.86C118.592 197.881 118.53 197.888 118.47 197.88ZM85.2998 197H118.03V127.78H85.2998V197Z" fill="#231F20"/>
<path d="M75.5001 109.55H41.8901V197.44H75.5001V109.55Z" fill="white"/>
<path d="M75.5002 197.88H41.8903C41.8322 197.882 41.7745 197.871 41.7209 197.849C41.6674 197.827 41.6193 197.793 41.5802 197.75C41.5392 197.709 41.5067 197.661 41.4844 197.608C41.4621 197.555 41.4504 197.497 41.4502 197.44V109.55C41.4512 109.434 41.498 109.322 41.5803 109.24C41.6626 109.158 41.7739 109.111 41.8903 109.11H75.5002C75.6163 109.112 75.7272 109.159 75.8103 109.24C75.8513 109.28 75.8838 109.329 75.9061 109.382C75.9284 109.435 75.9399 109.492 75.9402 109.55V197.44C75.9399 197.497 75.9284 197.555 75.9061 197.608C75.8838 197.661 75.8513 197.709 75.8103 197.75C75.7705 197.792 75.7223 197.825 75.6689 197.848C75.6156 197.87 75.5581 197.881 75.5002 197.88ZM42.3302 197H75.0603V109.99H42.3302V197Z" fill="#231F20"/>
<path d="M34.6 75.3701H1V197.44H34.6V75.3701Z" fill="white"/>
<path d="M34.5701 197.88H1.04016C0.982151 197.882 0.924382 197.872 0.87085 197.849C0.817317 197.827 0.769247 197.793 0.730103 197.75C0.689131 197.709 0.656583 197.661 0.634277 197.608C0.611971 197.555 0.600339 197.498 0.600098 197.44V75.38C0.602573 75.2639 0.649043 75.1531 0.730103 75.0699C0.770701 75.029 0.819001 74.9964 0.872192 74.9741C0.925384 74.9518 0.982482 74.9402 1.04016 74.9399H34.5701C34.6891 74.9423 34.8032 74.9886 34.8901 75.0699C34.9712 75.1531 35.0177 75.2639 35.0201 75.38V197.44C35.0196 197.498 35.0075 197.556 34.9846 197.61C34.9617 197.664 34.9284 197.713 34.8866 197.754C34.8448 197.794 34.7953 197.827 34.741 197.848C34.6867 197.87 34.6285 197.881 34.5701 197.88ZM1.41016 197H34.1301V75.8199H1.44006L1.41016 197Z" fill="#231F20"/>
<path d="M128.16 111.21L179.94 178.64L164.7 188.99L94.8501 111.21H128.16Z" fill="#231F20"/>
<path d="M164.7 189.43C164.637 189.431 164.576 189.417 164.52 189.39C164.462 189.365 164.411 189.327 164.37 189.28L94.5099 111.5C94.4568 111.437 94.4222 111.361 94.4099 111.28C94.4 111.195 94.4102 111.11 94.4398 111.03C94.4826 110.956 94.5405 110.891 94.6098 110.84C94.6823 110.796 94.7651 110.772 94.8498 110.77H128.16C128.229 110.768 128.297 110.781 128.36 110.81C128.421 110.839 128.473 110.884 128.51 110.94L180.29 178.37C180.329 178.419 180.357 178.475 180.373 178.535C180.388 178.596 180.391 178.659 180.38 178.72C180.37 178.777 180.35 178.831 180.32 178.88C180.284 178.931 180.24 178.975 180.19 179.01L164.95 189.33C164.881 189.392 164.792 189.427 164.7 189.43ZM95.8598 111.65L164.77 188.45L179.3 178.54L127.94 111.65H95.8598Z" fill="#231F20"/>
<path d="M79.3999 112.41C79.3999 112.41 83.9798 125.81 88.9698 131.29C93.9598 136.77 135.47 152.18 135.47 152.18L131.69 185.46L150.88 187.5C150.88 187.5 163.99 151.18 159.55 145.21C155.11 139.24 106.6 107.23 106.6 107.23L79.3999 112.41Z" fill="#231F20"/>
<path d="M150.88 187.94L131.65 185.9C131.534 185.884 131.428 185.827 131.35 185.74C131.313 185.692 131.286 185.638 131.27 185.58C131.256 185.524 131.253 185.467 131.26 185.41L134.99 152.47C130.82 150.91 93.5199 136.88 88.6499 131.58C83.6499 126.1 79.1698 113.1 78.9398 112.55C78.9103 112.495 78.8966 112.432 78.8999 112.37C78.8988 112.308 78.9124 112.246 78.9398 112.19C78.972 112.134 79.0165 112.086 79.0698 112.05C79.1213 112.013 79.1789 111.986 79.2399 111.97L106.45 106.79C106.561 106.777 106.674 106.802 106.77 106.86C108.84 108.17 155.48 138.98 159.89 144.95C161.82 147.54 160.95 155.55 157.3 168.71C154.65 178.42 151.32 187.56 151.29 187.65C151.255 187.732 151.2 187.804 151.13 187.86C151.057 187.912 150.969 187.939 150.88 187.94ZM132.19 185.07L150.58 187.02C151.19 185.31 154.06 177.13 156.46 168.47C160.87 152.41 160.4 147.1 159.19 145.5C154.96 139.83 109.5 109.69 106.52 107.72L79.9899 112.77C80.8699 115.21 84.9599 126.25 89.2999 131.02C94.1699 136.32 135.19 151.64 135.63 151.79C135.722 151.827 135.799 151.894 135.85 151.98C135.9 152.064 135.921 152.163 135.91 152.26L132.19 185.07Z" fill="#231F20"/>
<path d="M130.5 63.49C130.5 63.49 139.22 82.9301 140.55 83.0601L145.93 74.69C145.93 74.69 146.42 68.9701 147.91 66.6501C149.4 64.3301 151.07 64.99 151.07 64.99C151.07 64.99 152.54 62.2 154.36 61.87C156.18 61.54 161.85 65.06 158.52 67.23C155.19 69.4 144.46 100.48 140.48 100.87C127.83 102.09 118.85 67.08 118.93 66.97L130.5 63.49Z" fill="white"/>
<path d="M139.8 101.34C134.94 101.34 130.1 96.44 125.51 86.76C121.98 79.31 118.07 67.2201 118.62 66.6601C118.67 66.6116 118.732 66.5771 118.8 66.5601L130.38 63.0301C130.483 63.0016 130.592 63.0087 130.69 63.0501C130.783 63.0955 130.86 63.1689 130.91 63.26C134.66 71.62 139.09 80.74 140.44 82.37L145.5 74.49C145.58 73.66 146.11 68.6 147.54 66.36C148.79 64.42 150.19 64.34 150.84 64.44C151.3 63.67 152.61 61.69 154.28 61.39C155.78 61.12 159.08 62.9201 159.82 64.7801C160.031 65.2911 160.039 65.8639 159.84 66.38C159.644 66.8948 159.257 67.3141 158.76 67.5501C157.41 68.4301 154.35 75.3 151.44 81.94C146.33 93.47 142.82 101.04 140.5 101.26C140.27 101.3 140.04 101.32 139.8 101.34ZM119.45 67.2801C120.991 73.2062 123.007 78.9983 125.48 84.6C128.87 92.15 134.2 101.04 140.42 100.43C142.4 100.23 147.16 89.48 150.63 81.62C153.89 74.24 156.71 67.88 158.28 66.86C159.27 66.21 159.16 65.58 159 65.15C158.39 63.61 155.47 62.1101 154.44 62.3001C153.11 62.5401 151.83 64.47 151.45 65.19C151.402 65.2863 151.32 65.3613 151.22 65.4C151.117 65.44 151.003 65.44 150.9 65.4C150.85 65.4 149.55 64.92 148.25 66.89C146.84 69.09 146.33 74.67 146.33 74.72C146.331 74.7929 146.306 74.8639 146.26 74.9201L140.92 83.33C140.874 83.4012 140.808 83.457 140.73 83.49C140.656 83.5276 140.573 83.5449 140.49 83.5401C139.14 83.3701 133.57 71.43 130.26 64.1L119.45 67.2801Z" fill="#231F20"/>
<path d="M91.1 12.2601C90.5044 12.7973 89.9402 13.3682 89.41 13.9701C87.47 16.1601 86.39 18.96 85.35 21.69C83.77 25.84 82.81 33.9101 80.23 37.2201C77.38 40.8501 71 39.28 68.5 43.57C66.9 46.3 68.21 49.8601 67.34 52.9001C65.76 58.4101 58.31 59.6701 54.88 64.2701C52.15 67.9401 52.5 73.1001 53.76 77.4701C54.4984 80.5408 56.0175 83.3689 58.17 85.6801C65.52 92.7001 79.62 86.9001 84.65 79.7501C87.16 76.1301 88.58 71.3601 92.51 69.3801C95.36 67.9501 98.7401 68.43 101.93 68.32C105.445 68.1923 108.887 67.2874 112.01 65.6701C115.28 63.9601 118.44 60.4401 117.16 56.9801C116.36 54.8401 114.02 53.4501 113.63 51.1801C113.03 48.0701 116.22 45.7701 118.46 43.5201C124.29 37.6301 124.23 26.9401 118.32 21.1201C119.649 19.3099 120.31 17.0948 120.19 14.852C120.07 12.6093 119.176 10.4776 117.66 8.82003C116.986 8.04989 116.098 7.49667 115.11 7.23007C114.118 7.08819 113.11 7.12201 112.13 7.33004C103.94 8.41004 97.44 6.5401 91.1 12.2601Z" fill="white"/>
<path d="M66.7899 89.2999C63.509 89.4009 60.3198 88.2085 57.9099 85.9798C55.8899 84.0598 54.4298 81.3798 53.3398 77.5698C52.2498 73.7598 51.4899 68.0598 54.5299 63.9898C56.185 62.0503 58.1897 60.439 60.4398 59.2398C63.3298 57.4698 66.0499 55.7599 66.9199 52.7599C67.2091 51.461 67.31 50.1275 67.2198 48.7999C67.2198 46.9299 67.1398 44.9998 68.0998 43.3298C69.5098 40.9098 72.0499 40.2398 74.4999 39.5998C76.6199 39.0398 78.6198 38.5198 79.8598 36.9498C81.4598 34.9098 82.4598 30.8298 83.3298 27.2298C83.7602 25.3067 84.2911 23.4075 84.9199 21.5399C85.9299 18.8899 87.0598 15.9698 89.0698 13.6898C89.6234 13.0678 90.211 12.477 90.8298 11.9199C95.5398 7.67989 100.23 7.50991 105.66 7.30991C107.71 7.22991 109.82 7.14982 112.07 6.84982L112.4 6.7999C113.325 6.62985 114.274 6.62985 115.2 6.7999C116.275 7.08192 117.24 7.68127 117.97 8.51987C119.507 10.2097 120.43 12.3682 120.59 14.6471C120.749 16.9259 120.136 19.1921 118.85 21.0798C121.666 24.2066 123.214 28.2721 123.19 32.4801C123.166 36.6881 121.572 40.7354 118.72 43.8298C118.36 44.1998 117.97 44.5698 117.57 44.9398C115.6 46.8098 113.57 48.7299 114.04 51.1299C114.37 52.2593 114.978 53.2875 115.81 54.1198C116.542 54.9311 117.136 55.8566 117.57 56.8598C118.88 60.3898 115.87 64.1698 112.23 66.0898C109.043 67.7483 105.529 68.6806 101.94 68.8198H99.6098C97.2298 68.8198 94.7798 68.8198 92.7098 69.8198C90.0598 71.1298 88.6398 73.7599 87.1098 76.5199C86.4598 77.7099 85.7799 78.9299 85.0099 80.0599C81.7199 84.7599 74.8098 88.6299 68.5898 89.2599C67.9698 89.2699 67.3699 89.2999 66.7899 89.2999ZM91.3999 12.5898C90.8095 13.1119 90.2549 13.6733 89.7398 14.2699C87.8298 16.4199 86.7699 19.1898 85.7599 21.8498C85.1305 23.6775 84.6096 25.5408 84.1998 27.4299C83.2498 31.3099 82.2798 35.3098 80.5698 37.4898C79.1398 39.3198 76.8998 39.9098 74.7298 40.4698C72.3498 41.0898 70.0999 41.6799 68.8799 43.7999C67.9999 45.2399 68.0698 46.9699 68.0998 48.7999C68.1949 50.2151 68.0838 51.6366 67.7699 53.0199C66.8099 56.3599 63.7999 58.2098 60.8999 59.9998C58.7515 61.1545 56.8303 62.6894 55.2298 64.5299C52.4198 68.3199 53.1099 73.6198 54.1799 77.3398C55.2499 81.0598 56.6099 83.5298 58.5199 85.3698C61.6099 88.3198 65.6599 88.6198 68.4999 88.3198C74.4899 87.7298 81.1299 84.0098 84.2899 79.4898C85.0316 78.379 85.7158 77.2309 86.3398 76.0499C87.8698 73.2899 89.4499 70.4198 92.3099 68.9898C94.5799 67.8598 97.1398 67.8799 99.6098 67.8999H101.91C105.365 67.7572 108.746 66.8522 111.81 65.2498C115.12 63.4798 117.88 60.1598 116.74 57.1198C116.337 56.2058 115.786 55.3645 115.11 54.6299C114.162 53.6891 113.476 52.5171 113.12 51.2298C112.58 48.3898 114.88 46.1999 116.94 44.2599C117.33 43.8999 117.72 43.5399 118.07 43.1799C120.8 40.2029 122.304 36.3037 122.28 32.2644C122.256 28.225 120.705 24.3441 117.94 21.3999C117.869 21.3199 117.83 21.2167 117.83 21.1098C117.83 21.003 117.869 20.8997 117.94 20.8198C119.199 19.0977 119.825 16.9931 119.71 14.8625C119.595 12.732 118.747 10.7066 117.31 9.12985C116.69 8.42883 115.881 7.92186 114.98 7.66989C114.156 7.5399 113.316 7.56017 112.5 7.72983L112.16 7.77988C109.87 8.08988 107.74 8.16985 105.67 8.24985C100.37 8.43985 95.8599 8.59989 91.3999 12.6699V12.5898Z" fill="#231F20"/>
<path d="M119.66 49.1001C119.66 49.1001 130.49 60.3701 133.51 67.3601C128.322 67.881 123.212 68.9983 118.28 70.6901L119.66 49.1001Z" fill="#30C684"/>
<path d="M103 42.4001C103 42.4001 92.9398 38.2801 80.4598 48.76C74.8998 53.49 73.7399 58.6001 71.3799 63.9001C73.1499 81.6601 79.3999 112.4 79.3999 112.4L128.16 111.2C128.16 111.2 124.8 57.36 120.9 50.72C117 44.08 103 42.4001 103 42.4001Z" fill="#30C684"/>
<path d="M96.3901 44.6499C97.1501 46.1399 105.52 78.1299 105.52 78.1299L110.03 48.4199L96.3901 44.6499Z" fill="#231F20"/>
<path d="M105.52 78.5698C105.422 78.5707 105.327 78.539 105.25 78.4798C105.173 78.42 105.12 78.335 105.1 78.2398C102.77 69.3498 96.6099 46.0298 96.0099 44.8498C95.9694 44.773 95.952 44.6862 95.9598 44.5998C95.9656 44.5139 96.001 44.4327 96.0599 44.3698C96.1097 44.2983 96.1847 44.2483 96.2699 44.2298C96.3503 44.2014 96.4374 44.1979 96.5199 44.2198L110.15 47.9998C110.202 48.0115 110.25 48.0334 110.293 48.0643C110.336 48.0952 110.372 48.1346 110.4 48.1799C110.463 48.2702 110.488 48.3813 110.47 48.4898L105.95 78.1998C105.938 78.2989 105.892 78.3908 105.82 78.4598C105.747 78.5291 105.651 78.5684 105.55 78.5698H105.52ZM97.0898 45.2999C98.5098 49.7699 103.69 69.4198 105.4 75.9498L109.53 48.7298L97.0898 45.2999Z" fill="#231F20"/>
<path d="M116.25 18.85C116.25 18.85 118.53 26.08 117.08 31.46C116.711 32.9589 115.914 34.3183 114.787 35.3728C113.66 36.4274 112.25 37.1317 110.73 37.4L110.36 46.99C110.36 46.99 110.21 51.9001 104.24 50.9101C102.508 50.6187 100.878 49.8912 99.5049 48.796C98.1315 47.7008 97.0596 46.274 96.3901 44.65V26.99C96.3901 26.99 103.36 23.33 103.01 16.97C103.02 16.96 110.96 21.2 116.25 18.85Z" fill="white"/>
<path d="M105.75 51.4801C105.221 51.477 104.693 51.4335 104.17 51.3501C102.355 51.0578 100.646 50.2997 99.2102 49.15C97.7748 48.0003 96.6619 46.4982 95.9802 44.7901C95.9701 44.744 95.9701 44.6963 95.9802 44.6501V26.9901C95.9786 26.9094 95.9994 26.8298 96.0402 26.7601C96.0824 26.6896 96.1452 26.6337 96.2202 26.6001C96.2802 26.6001 102.92 22.9901 102.6 17.0001C102.591 16.92 102.609 16.8393 102.65 16.7701C102.683 16.7005 102.735 16.6416 102.8 16.6001C102.867 16.5606 102.943 16.5399 103.02 16.5401C103.098 16.5384 103.174 16.5592 103.24 16.6001C103.32 16.6001 111.06 20.7101 116.09 18.4601C116.148 18.4373 116.208 18.4239 116.27 18.4201C116.332 18.4228 116.393 18.4362 116.45 18.4601C116.506 18.4885 116.556 18.5256 116.6 18.5701C116.64 18.621 116.67 18.6786 116.69 18.7401C116.79 19.0401 119 26.1601 117.52 31.5901C117.134 33.1037 116.342 34.4832 115.23 35.5801C114.11 36.6719 112.707 37.4302 111.18 37.7701L110.82 47.0201C110.735 48.3297 110.135 49.5522 109.15 50.4201C108.179 51.1669 106.974 51.5427 105.75 51.4801ZM96.8402 44.5602C97.4856 46.0917 98.5066 47.4359 99.8087 48.4689C101.111 49.5018 102.652 50.19 104.29 50.4701C105.012 50.6629 105.766 50.6966 106.502 50.5688C107.237 50.4411 107.936 50.1548 108.55 49.7301C109.338 49.0204 109.824 48.0367 109.91 46.9801L110.29 37.4001C110.296 37.2957 110.339 37.1966 110.41 37.1201C110.48 37.0413 110.576 36.9914 110.68 36.9801C112.12 36.7246 113.453 36.0521 114.514 35.046C115.576 34.0399 116.318 32.7443 116.65 31.3201C117.84 26.9101 116.42 21.0902 115.96 19.4302C111.41 21.1102 105.44 18.6201 103.46 17.6701C103.3 23.2001 98.0402 26.5001 96.8402 27.2201V44.5602Z" fill="#231F20"/>
<path d="M99.7701 25.8601C99.7701 25.8601 97.0601 19.0902 93.6001 23.1602C90.1401 27.2302 94.7901 31.9902 97.7501 31.7402" fill="white"/>
<path d="M97.4699 32.2C96.4179 32.086 95.4117 31.7083 94.5446 31.1016C93.6776 30.495 92.9777 29.6793 92.51 28.7301C92.0016 27.803 91.7987 26.7391 91.93 25.69C92.0605 24.638 92.5147 23.6525 93.2299 22.8701C93.5609 22.3845 94.017 21.9975 94.55 21.7501C95.0789 21.4974 95.6666 21.3936 96.25 21.45C98.62 21.84 100.12 25.55 100.18 25.7C100.212 25.7512 100.229 25.81 100.23 25.8701C100.239 25.9341 100.232 25.9994 100.21 26.0601C100.189 26.1187 100.156 26.1722 100.113 26.217C100.07 26.2618 100.018 26.2969 99.9599 26.32C99.9048 26.3493 99.8417 26.3598 99.78 26.3501C99.718 26.3485 99.6568 26.335 99.5999 26.3101C99.5418 26.2816 99.4906 26.2405 99.4499 26.19C99.4095 26.1409 99.382 26.0826 99.37 26.0201C98.99 25.0901 97.66 22.58 96.11 22.32C95.678 22.2998 95.248 22.3892 94.86 22.58C94.473 22.7779 94.1453 23.0746 93.91 23.44C93.3008 24.0837 92.9123 24.9046 92.8009 25.7838C92.6894 26.663 92.8607 27.5547 93.29 28.33C94.21 30.09 96.1899 31.4501 97.6999 31.3001C97.7574 31.2913 97.8161 31.2981 97.87 31.32C97.9272 31.3302 97.9797 31.3583 98.02 31.4001C98.0672 31.4374 98.1049 31.4854 98.13 31.5401C98.157 31.5896 98.1741 31.6439 98.18 31.7C98.1839 31.7574 98.1771 31.8151 98.16 31.8701C98.1436 31.9279 98.1164 31.9822 98.0799 32.0301C98.0421 32.0743 97.994 32.1086 97.9399 32.1301C97.8924 32.1616 97.837 32.179 97.78 32.1801L97.4699 32.2Z" fill="#231F20"/>
<path d="M112.3 31.6098C111.595 31.5987 110.895 31.4911 110.22 31.2899C110.111 31.2485 110.019 31.1707 109.96 31.0698C109.91 30.9635 109.9 30.8432 109.93 30.7298C109.971 30.6205 110.049 30.5287 110.15 30.4698C110.256 30.4202 110.377 30.4096 110.49 30.4398C111.371 30.7491 112.325 30.791 113.23 30.5599C113.35 30.1699 112.16 27.8699 110.66 25.6799C110.622 25.6349 110.595 25.5815 110.581 25.5243C110.567 25.467 110.567 25.4073 110.58 25.3498C110.589 25.2931 110.61 25.2387 110.64 25.1898C110.669 25.1404 110.711 25.0992 110.76 25.0698C110.829 25.014 110.914 24.9829 111.003 24.981C111.092 24.9792 111.179 25.007 111.25 25.0599C111.3 25.0884 111.344 25.1256 111.38 25.1699C112.09 26.1899 114.36 29.5898 114.03 30.8498C113.999 30.9632 113.944 31.0689 113.87 31.1599C113.798 31.2509 113.706 31.323 113.6 31.3698C113.189 31.5444 112.746 31.6263 112.3 31.6098Z" fill="#231F20"/>
<path d="M109.91 34.5001C109.333 34.4987 108.758 34.4214 108.2 34.2701C106.546 33.8017 105.12 32.7456 104.19 31.3001C104.171 31.2483 104.163 31.1931 104.167 31.138C104.17 31.0829 104.185 31.0291 104.21 30.98C104.257 30.881 104.339 30.8028 104.44 30.7601C104.542 30.7169 104.656 30.7133 104.76 30.7501C104.863 30.7883 104.949 30.863 105 30.96C105.864 32.1916 107.136 33.0774 108.59 33.46C109.603 33.6624 110.65 33.628 111.647 33.3591C112.644 33.0902 113.566 32.5943 114.34 31.9101C114.383 31.8719 114.435 31.8444 114.49 31.83C114.546 31.817 114.604 31.8136 114.66 31.82C114.718 31.8276 114.772 31.8482 114.82 31.8801C114.87 31.9085 114.914 31.9458 114.95 31.99C114.987 32.0379 115.014 32.0922 115.03 32.1501C115.044 32.2057 115.047 32.2632 115.04 32.32C115.031 32.3767 115.011 32.4311 114.98 32.48C114.951 32.5323 114.91 32.5769 114.86 32.61C113.466 33.7725 111.724 34.4375 109.91 34.5001Z" fill="#231F20"/>
<path d="M110.73 37.4C110.73 37.4 105.59 37.84 102.68 36.98C102.68 36.98 105.6 44.6601 110.47 44.8101L110.73 37.4Z" fill="#231F20"/>
<path d="M110.47 45.2501C105.36 45.0901 102.4 37.4601 102.28 37.1301C102.253 37.0531 102.246 36.9705 102.26 36.8901C102.28 36.8127 102.318 36.7409 102.37 36.6802C102.427 36.6187 102.499 36.5737 102.58 36.5502C102.659 36.5302 102.741 36.5302 102.82 36.5502C105.62 37.3902 110.66 36.9601 110.72 36.9601C110.781 36.9518 110.842 36.9587 110.9 36.9801C110.958 37.0052 111.012 37.0389 111.06 37.0801C111.105 37.1232 111.142 37.174 111.17 37.2301C111.191 37.291 111.198 37.3561 111.19 37.4202L110.93 44.8301C110.926 44.8886 110.913 44.9461 110.89 45.0001C110.862 45.0506 110.829 45.0977 110.79 45.1401C110.745 45.1773 110.694 45.2076 110.64 45.2301C110.586 45.252 110.527 45.259 110.47 45.2501ZM103.41 37.6101C104.29 39.4601 106.63 43.8701 110.02 44.3301L110.25 37.8801C107.967 38.0504 105.672 37.9598 103.41 37.6101Z" fill="#231F20"/>
<path d="M107.73 25.6C108.14 25.6 108.47 25 108.46 24.27C108.45 23.54 108.1 22.95 107.69 22.95C107.28 22.95 106.94 23.56 106.96 24.29C106.98 25.02 107.31 25.61 107.73 25.6Z" fill="#231F20"/>
<path d="M114.67 25.5C115.08 25.49 115.41 24.89 115.4 24.16C115.39 23.43 115.04 22.84 114.63 22.85C114.22 22.86 113.89 23.4501 113.9 24.1801C113.91 24.9101 114.25 25.5 114.67 25.5Z" fill="#231F20"/>
<path d="M71.3799 63.8999C71.3799 63.8999 61.2399 97.1699 68.3699 104.91C73.3299 110.29 86.02 104.46 91.55 102.33C118.85 91.8498 128.52 83.2699 126.34 83.6799C127.01 81.4299 120.16 84.5599 119.01 84.9899C118.55 83.1599 121.91 79.9198 123.8 79.8198C125.69 79.7198 127.86 80.4799 128.15 78.6099C128.31 77.5399 127.26 76.4498 126.34 75.9598C125.42 75.4698 117.42 74.9899 115.75 76.5099C114.65 77.4899 114.1 78.9499 113.1 79.9899C111.99 80.9599 110.679 81.6704 109.26 82.0698C103.85 84.0098 98.3732 85.7598 92.8299 87.3198C90.1799 88.0798 83.81 89.5399 83.81 89.5399L86.9999 69.8999" fill="white"/>
<path d="M74.5198 107.6C71.9298 107.6 69.6398 106.95 68.0498 105.22C60.8298 97.3799 70.5497 65.15 70.9597 63.79C70.9944 63.6744 71.0736 63.5773 71.1798 63.52C71.2309 63.491 71.2873 63.4725 71.3457 63.4657C71.4041 63.4588 71.4633 63.4637 71.5198 63.48C71.6286 63.5211 71.7184 63.6011 71.7719 63.7044C71.8255 63.8078 71.839 63.9273 71.8098 64.04C71.7098 64.37 61.8197 97.15 68.6997 104.62C72.9697 109.27 83.7997 104.95 89.6197 102.63L91.3797 101.93C114.24 93.16 124.59 85.74 126.03 83.9799C125.98 83.9215 125.942 83.8535 125.92 83.78C125.901 83.7047 125.898 83.6266 125.91 83.55C125.92 83.4938 125.92 83.4362 125.91 83.38C125.81 83.29 125.03 82.91 119.5 85.27L119.15 85.41C119.094 85.4384 119.032 85.4521 118.97 85.4499C118.904 85.4521 118.839 85.4385 118.78 85.41C118.726 85.3785 118.679 85.3379 118.64 85.29C118.6 85.239 118.57 85.1815 118.55 85.12C118.499 84.6183 118.55 84.1115 118.7 83.63C118.858 83.1521 119.11 82.7103 119.44 82.3299C120.44 80.9699 122.29 79.47 123.73 79.39C124.23 79.37 124.73 79.37 125.23 79.39C126.85 79.49 127.53 79.44 127.67 78.51C127.81 77.58 126.97 76.7399 126.1 76.3299C125.23 75.9199 117.52 75.4499 115.96 76.8299C115.429 77.3587 114.969 77.9536 114.59 78.5999C114.038 79.5921 113.277 80.4521 112.36 81.12C111.447 81.7861 110.405 82.2529 109.3 82.49C103.9 84.42 98.3597 86.19 92.8297 87.79C90.1797 88.53 83.8498 89.99 83.7898 90.01C83.7212 90.03 83.6483 90.03 83.5797 90.01C83.5115 89.9867 83.4475 89.953 83.3897 89.91C83.3381 89.8566 83.3003 89.7913 83.2798 89.7199C83.2582 89.6522 83.2514 89.5806 83.2597 89.51L86.4497 69.86C86.4608 69.8037 86.4811 69.7496 86.5097 69.6999C86.5384 69.6532 86.5757 69.6125 86.6197 69.5799C86.6648 69.5419 86.718 69.515 86.7752 69.5011C86.8325 69.4872 86.8922 69.4868 86.9497 69.5C87.0078 69.5085 87.0635 69.5289 87.1134 69.5599C87.1633 69.5909 87.2063 69.6318 87.2397 69.68C87.2745 69.7249 87.2996 69.7764 87.3133 69.8315C87.3271 69.8866 87.3292 69.944 87.3197 70L84.2297 89C85.9197 88.61 90.4497 87.53 92.5897 86.93C98.1097 85.38 103.62 83.6199 109 81.6899C110.016 81.4918 110.975 81.0719 111.81 80.4599C112.649 79.8506 113.345 79.0658 113.85 78.16C114.271 77.4512 114.786 76.802 115.38 76.2299C117.27 74.5399 125.38 75.0399 126.5 75.5999C127.62 76.1599 128.74 77.4499 128.54 78.7099C128.26 80.4799 126.63 80.4099 125.18 80.3299C124.714 80.3 124.246 80.3 123.78 80.3299C122.79 80.3799 121.13 81.54 120.14 82.91C119.792 83.3495 119.54 83.8571 119.4 84.4C123.69 82.64 125.75 82.12 126.46 82.79C126.545 82.8657 126.615 82.9577 126.665 83.0608C126.715 83.1638 126.744 83.2757 126.75 83.39C126.861 83.4626 126.942 83.5725 126.98 83.6999C127.41 85.1899 115.89 93.4999 91.6798 102.82L89.9198 103.51C85.6898 105.14 79.5798 107.6 74.5198 107.6Z" fill="#231F20"/>
<path d="M86.9202 70.36H86.8401C86.783 70.3523 86.7284 70.3319 86.6802 70.3001C86.6324 70.2652 86.5888 70.225 86.5502 70.1801C86.5227 70.1287 86.4993 70.0751 86.4802 70.0201C86.4702 69.9605 86.4702 69.8996 86.4802 69.84L88.5402 58.36C88.5626 58.2459 88.6281 58.1448 88.7231 58.0778C88.8181 58.0108 88.9352 57.9829 89.0502 58C89.1067 58.0094 89.1605 58.0302 89.2087 58.0612C89.2568 58.0921 89.2981 58.1326 89.3301 58.1801C89.3651 58.2267 89.3896 58.2803 89.4017 58.3373C89.4138 58.3943 89.4133 58.4533 89.4002 58.51L87.3501 70C87.3306 70.101 87.2777 70.1925 87.2001 70.26C87.1198 70.3223 87.0218 70.3573 86.9202 70.36Z" fill="#231F20"/>
<path d="M149.16 73.1402C149.061 73.1391 148.966 73.1038 148.89 73.0402C148.844 73.0054 148.805 72.9618 148.776 72.912C148.747 72.8623 148.728 72.8073 148.72 72.7502C148.709 72.6329 148.741 72.5158 148.81 72.4202C150.07 70.8802 149.16 67.4202 149.15 67.3802C149.119 67.2769 149.13 67.1655 149.18 67.0701C149.234 66.9752 149.319 66.9012 149.42 66.8602C149.523 66.8201 149.637 66.8201 149.74 66.8602C149.839 66.9059 149.92 66.9833 149.97 67.0801C149.97 67.0801 150.85 68.9702 152.27 69.1102C152.47 68.7802 151.72 66.9501 150.69 65.2201C150.629 65.1178 150.611 64.9957 150.64 64.8802C150.653 64.8238 150.677 64.7706 150.712 64.7242C150.746 64.6777 150.79 64.6389 150.84 64.6102C150.889 64.5801 150.943 64.5603 151 64.5517C151.056 64.5431 151.114 64.546 151.17 64.5602C151.227 64.5736 151.281 64.5993 151.328 64.6356C151.375 64.6718 151.413 64.7177 151.44 64.7702C152.12 65.9102 153.64 68.6602 153.03 69.6202C152.938 69.7598 152.805 69.868 152.65 69.9302C152.493 69.9997 152.319 70.0205 152.15 69.9902C151.441 69.8916 150.785 69.557 150.29 69.0402C150.509 70.4052 150.221 71.8031 149.48 72.9701C149.441 73.0181 149.393 73.0587 149.34 73.0901C149.285 73.1205 149.223 73.1377 149.16 73.1402Z" fill="#231F20"/>
<path d="M153.81 85.39C152.207 85.4364 150.615 85.1219 149.15 84.47C147.69 83.8189 146.392 82.8525 145.35 81.64C144.313 80.3514 143.576 78.8488 143.19 77.2406C142.804 75.6324 142.78 73.9586 143.12 72.34C144.41 65.28 151.24 59.45 158.35 59.45C159.951 59.4067 161.542 59.722 163.005 60.3726C164.469 61.0231 165.769 61.9925 166.81 63.21C167.843 64.4996 168.577 66.0024 168.96 67.61C169.35 69.2145 169.37 70.8865 169.02 72.5C167.74 79.61 160.91 85.39 153.81 85.39ZM158.35 60.37C151.66 60.37 145.21 65.83 144 72.54C143.677 74.0288 143.691 75.5708 144.041 77.0535C144.39 78.5361 145.066 79.922 146.02 81.11C146.985 82.2241 148.183 83.1118 149.53 83.71C150.876 84.3037 152.339 84.5874 153.81 84.54C160.51 84.54 166.94 79.08 168.16 72.38C168.483 70.8913 168.468 69.3493 168.119 67.8666C167.77 66.3839 167.093 64.998 166.14 63.8101C165.178 62.693 163.979 61.8047 162.63 61.21C161.284 60.612 159.821 60.3249 158.35 60.37Z" fill="#D1D3D4"/>
<path d="M166.28 90.59H112.04C111.356 90.5891 110.683 90.4209 110.08 90.1C109.168 89.6121 108.47 88.8021 108.122 87.8279C107.775 86.8537 107.802 85.785 108.2 84.83L119.67 57.36C119.988 56.6043 120.52 55.958 121.2 55.5C121.884 55.0431 122.688 54.7995 123.51 54.8H177.72C178.403 54.8009 179.076 54.9691 179.68 55.29C180.287 55.6141 180.802 56.0851 181.18 56.66C181.56 57.2313 181.793 57.8872 181.86 58.5699C181.921 59.251 181.819 59.9369 181.56 60.5699L170.08 88.03C169.773 88.7865 169.248 89.4343 168.571 89.8904C167.894 90.3465 167.096 90.59 166.28 90.59ZM123.48 55.6899C122.831 55.6847 122.197 55.8765 121.66 56.24C121.12 56.5996 120.699 57.1111 120.45 57.71L108.98 85.16C108.77 85.6597 108.688 86.2035 108.74 86.7428C108.792 87.2821 108.978 87.8001 109.28 88.25C109.58 88.6987 109.986 89.0667 110.462 89.3213C110.938 89.5759 111.47 89.7094 112.01 89.71H166.24C166.888 89.7123 167.522 89.5208 168.06 89.16C168.6 88.8004 169.021 88.2888 169.27 87.6899L180.74 60.23C180.95 59.7321 181.032 59.1898 180.98 58.652C180.928 58.1142 180.742 57.598 180.44 57.15C180.146 56.6972 179.739 56.3284 179.26 56.08C178.788 55.8216 178.258 55.6873 177.72 55.6899H123.48Z" fill="#231F20"/>
<path d="M139.24 61.09H124.34C124.224 61.0876 124.113 61.0411 124.03 60.96C123.989 60.9195 123.956 60.8712 123.934 60.818C123.912 60.7648 123.9 60.7077 123.9 60.65C123.9 60.5923 123.912 60.5352 123.934 60.4819C123.956 60.4287 123.989 60.3804 124.03 60.34C124.114 60.2605 124.225 60.2142 124.34 60.21H139.24C139.357 60.21 139.469 60.2564 139.551 60.3389C139.634 60.4214 139.68 60.5333 139.68 60.65C139.68 60.7667 139.634 60.8787 139.551 60.9612C139.469 61.0437 139.357 61.09 139.24 61.09Z" fill="#231F20"/>
<path d="M137.25 64.35H122.36C122.302 64.3498 122.245 64.3382 122.192 64.3159C122.139 64.2936 122.091 64.261 122.05 64.22C121.989 64.1584 121.947 64.0803 121.931 63.9952C121.914 63.9102 121.923 63.8221 121.956 63.7419C121.989 63.6618 122.045 63.5933 122.117 63.5449C122.189 63.4965 122.273 63.4704 122.36 63.47H137.25C137.308 63.4698 137.365 63.4813 137.418 63.5037C137.472 63.526 137.52 63.5587 137.56 63.6C137.601 63.6405 137.634 63.6887 137.656 63.7419C137.678 63.7952 137.69 63.8523 137.69 63.91C137.69 63.9677 137.678 64.0248 137.656 64.078C137.634 64.1312 137.601 64.1795 137.56 64.22C137.476 64.2995 137.366 64.3457 137.25 64.35Z" fill="#231F20"/>
<path d="M153.76 179.09C153.675 179.088 153.593 179.064 153.52 179.02C153.452 178.975 153.397 178.913 153.36 178.84C153.29 178.7 153.29 178.7 159.95 152.69C159.983 152.574 160.058 152.475 160.16 152.41C160.262 152.349 160.385 152.331 160.5 152.36C160.617 152.391 160.718 152.466 160.78 152.57C160.841 152.672 160.859 152.795 160.83 152.91C160.83 152.91 154.25 178.58 154.22 178.75C154.194 178.837 154.142 178.914 154.07 178.97C154.005 179.029 153.926 179.071 153.84 179.09H153.76Z" fill="white"/>
<path d="M144.89 132.98C144.805 132.978 144.722 132.954 144.65 132.91L119.65 116.48C119.602 116.449 119.558 116.412 119.52 116.37C119.491 116.32 119.471 116.266 119.46 116.21C119.45 116.151 119.45 116.09 119.46 116.03C119.469 115.977 119.49 115.925 119.52 115.88C119.585 115.783 119.685 115.714 119.8 115.69C119.856 115.677 119.914 115.675 119.971 115.685C120.028 115.696 120.082 115.718 120.13 115.75L145.13 132.16C145.224 132.231 145.288 132.334 145.31 132.45C145.332 132.542 145.322 132.638 145.282 132.724C145.242 132.809 145.174 132.878 145.09 132.92C145.028 132.955 144.96 132.975 144.89 132.98Z" fill="white"/>
<path d="M164.89 118.24C164.89 125.861 167.918 133.17 173.306 138.559C178.695 143.948 186.004 146.975 193.625 146.975C201.246 146.975 208.555 143.948 213.944 138.559C219.333 133.17 222.36 125.861 222.36 118.24H193.63V89.52C186.012 89.5221 178.706 92.548 173.317 97.933C167.928 103.318 164.898 110.622 164.89 118.24Z" fill="#30C684"/>
<path d="M198.27 85.23V113.99H227C227.003 106.367 223.978 99.054 218.59 93.6606C213.203 88.2673 205.893 85.2348 198.27 85.23Z" fill="#E6E7E8"/>
<path d="M211.19 73.23H194.03C193.973 73.237 193.915 73.2336 193.86 73.22C193.801 73.2 193.747 73.1695 193.7 73.13C193.658 73.0902 193.624 73.0427 193.6 72.99C193.571 72.938 193.558 72.8792 193.56 72.82C193.559 72.7577 193.572 72.696 193.6 72.6401C193.624 72.5874 193.658 72.5399 193.7 72.5C193.748 72.4636 193.802 72.4365 193.86 72.4201C193.914 72.4016 193.973 72.3981 194.03 72.4101H211.19C211.239 72.4147 211.287 72.4295 211.33 72.4536C211.373 72.4778 211.41 72.5106 211.44 72.5501C211.507 72.6233 211.543 72.7203 211.54 72.82C211.542 72.9194 211.506 73.0158 211.44 73.09C211.374 73.163 211.286 73.2123 211.19 73.23Z" fill="#D1D3D4"/>
<path d="M217.65 73.2301H214.39C214.294 73.2123 214.206 73.1631 214.14 73.09C214.074 73.0159 214.038 72.9194 214.04 72.82C214.037 72.7203 214.073 72.6233 214.14 72.5501C214.17 72.5107 214.207 72.4778 214.251 72.4537C214.294 72.4296 214.341 72.4147 214.39 72.4101H217.65C217.71 72.3984 217.772 72.4019 217.83 72.4201C217.885 72.4366 217.936 72.4638 217.98 72.5001C218.025 72.5395 218.063 72.587 218.09 72.6401C218.11 72.6981 218.12 72.7588 218.12 72.82C218.121 72.8781 218.111 72.9358 218.09 72.9901C218.063 73.0431 218.025 73.0906 217.98 73.1301C217.936 73.1694 217.886 73.1999 217.83 73.22C217.771 73.2333 217.71 73.2367 217.65 73.2301Z" fill="#D1D3D4"/>
<path d="M219.18 65.9498H193.88C193.783 65.9344 193.694 65.8846 193.63 65.8094C193.565 65.7343 193.53 65.6387 193.53 65.5399C193.531 65.441 193.567 65.3456 193.63 65.2699C193.693 65.194 193.782 65.1441 193.88 65.1299H219.18C219.282 65.1417 219.375 65.1918 219.44 65.2699C219.504 65.3456 219.539 65.441 219.54 65.5399C219.54 65.6403 219.504 65.7373 219.438 65.8127C219.371 65.8882 219.28 65.9369 219.18 65.9498Z" fill="#D1D3D4"/>
<path d="M202.19 58.67H193.97C193.916 58.6705 193.862 58.6602 193.813 58.6396C193.763 58.6189 193.718 58.5885 193.68 58.55C193.607 58.471 193.568 58.3671 193.57 58.2599C193.562 58.209 193.569 58.1569 193.59 58.1099C193.61 58.0577 193.641 58.0101 193.68 57.9699C193.723 57.9374 193.77 57.9105 193.82 57.8899C193.867 57.8695 193.918 57.8592 193.97 57.8599H202.19C202.244 57.8593 202.297 57.8697 202.347 57.8903C202.397 57.9109 202.442 57.9414 202.48 57.9799C202.551 58.0559 202.59 58.156 202.59 58.2599C202.59 58.3139 202.58 58.3673 202.559 58.4171C202.539 58.467 202.508 58.5122 202.47 58.55C202.395 58.6236 202.295 58.6664 202.19 58.67Z" fill="#D1D3D4"/>
<path d="M221.89 58.9299H207.26C207.208 58.9297 207.157 58.9195 207.11 58.8999C207.058 58.8795 207.01 58.8489 206.97 58.8099C206.931 58.7733 206.901 58.7291 206.88 58.6799C206.868 58.6273 206.862 58.5737 206.86 58.5199C206.86 58.4129 206.902 58.31 206.976 58.2334C207.051 58.1568 207.153 58.1125 207.26 58.1099H221.89C221.996 58.1193 222.095 58.1653 222.17 58.2399C222.209 58.2751 222.24 58.3184 222.261 58.3667C222.281 58.415 222.291 58.4673 222.29 58.5199C222.29 58.5738 222.28 58.6273 222.26 58.6771C222.239 58.727 222.208 58.7722 222.17 58.8099C222.095 58.8835 221.995 58.9263 221.89 58.9299Z" fill="#D1D3D4"/>
<path d="M211.19 73.23H194.03C193.973 73.237 193.915 73.2336 193.86 73.22C193.801 73.2 193.747 73.1695 193.7 73.13C193.658 73.0902 193.624 73.0427 193.6 72.99C193.571 72.938 193.558 72.8792 193.56 72.82C193.559 72.7577 193.572 72.696 193.6 72.6401C193.624 72.5874 193.658 72.5399 193.7 72.5C193.748 72.4636 193.802 72.4365 193.86 72.4201C193.914 72.4016 193.973 72.3981 194.03 72.4101H211.19C211.239 72.4147 211.287 72.4295 211.33 72.4536C211.373 72.4778 211.41 72.5106 211.44 72.5501C211.507 72.6233 211.543 72.7203 211.54 72.82C211.542 72.9194 211.506 73.0158 211.44 73.09C211.374 73.163 211.286 73.2123 211.19 73.23V73.23Z" stroke="#E6E7E8" stroke-linecap="round" stroke-linejoin="round"/>
<path d="M217.65 73.2301H214.39C214.294 73.2123 214.206 73.1631 214.14 73.09C214.074 73.0159 214.038 72.9194 214.04 72.82C214.037 72.7203 214.073 72.6233 214.14 72.5501C214.17 72.5107 214.207 72.4778 214.251 72.4537C214.294 72.4296 214.341 72.4147 214.39 72.4101H217.65C217.71 72.3984 217.772 72.4019 217.83 72.4201C217.885 72.4366 217.936 72.4638 217.98 72.5001C218.025 72.5395 218.063 72.587 218.09 72.6401C218.11 72.6981 218.12 72.7588 218.12 72.82C218.121 72.8781 218.111 72.9358 218.09 72.9901C218.063 73.0431 218.025 73.0906 217.98 73.1301C217.936 73.1694 217.886 73.1999 217.83 73.22C217.771 73.2333 217.71 73.2367 217.65 73.2301Z" stroke="#E6E7E8" stroke-linecap="round" stroke-linejoin="round"/>
<path d="M219.18 65.9498H193.88C193.783 65.9344 193.694 65.8846 193.63 65.8094C193.565 65.7343 193.53 65.6387 193.53 65.5399C193.531 65.441 193.567 65.3456 193.63 65.2699C193.693 65.194 193.782 65.1441 193.88 65.1299H219.18C219.282 65.1417 219.375 65.1918 219.44 65.2699C219.504 65.3456 219.539 65.441 219.54 65.5399C219.54 65.6403 219.504 65.7373 219.438 65.8127C219.371 65.8882 219.28 65.9369 219.18 65.9498Z" stroke="#E6E7E8" stroke-linecap="round" stroke-linejoin="round"/>
<path d="M202.19 58.67H193.97C193.916 58.6705 193.862 58.6602 193.813 58.6396C193.763 58.6189 193.718 58.5885 193.68 58.55C193.607 58.471 193.568 58.3671 193.57 58.2599C193.562 58.209 193.569 58.1569 193.59 58.1099C193.61 58.0577 193.641 58.0101 193.68 57.9699C193.723 57.9374 193.77 57.9105 193.82 57.8899C193.867 57.8695 193.918 57.8592 193.97 57.8599H202.19C202.244 57.8593 202.297 57.8697 202.347 57.8903C202.397 57.9109 202.442 57.9414 202.48 57.9799C202.551 58.0559 202.59 58.156 202.59 58.2599C202.59 58.3139 202.58 58.3673 202.559 58.4171C202.539 58.467 202.508 58.5122 202.47 58.55C202.395 58.6236 202.295 58.6664 202.19 58.67V58.67Z" stroke="#E6E7E8" stroke-linecap="round" stroke-linejoin="round"/>
<path d="M221.89 58.9299H207.26C207.208 58.9297 207.157 58.9195 207.11 58.8999C207.058 58.8795 207.01 58.8489 206.97 58.8099C206.931 58.7733 206.901 58.7291 206.88 58.6799C206.868 58.6273 206.862 58.5737 206.86 58.5199C206.86 58.4129 206.902 58.31 206.976 58.2334C207.051 58.1568 207.153 58.1125 207.26 58.1099H221.89C221.996 58.1193 222.095 58.1653 222.17 58.2399C222.209 58.2751 222.24 58.3184 222.261 58.3667C222.281 58.415 222.291 58.4673 222.29 58.5199C222.29 58.5738 222.28 58.6273 222.26 58.6771C222.239 58.727 222.208 58.7722 222.17 58.8099C222.095 58.8835 221.995 58.9263 221.89 58.9299V58.9299Z" stroke="#E6E7E8" stroke-linecap="round" stroke-linejoin="round"/>
<path d="M222.08 157.36H193.78C193.722 157.36 193.665 157.348 193.612 157.326C193.559 157.303 193.51 157.271 193.47 157.23C193.429 157.19 193.396 157.141 193.374 157.088C193.351 157.035 193.34 156.978 193.34 156.92C193.339 156.862 193.35 156.803 193.372 156.749C193.393 156.695 193.426 156.645 193.466 156.604C193.507 156.562 193.556 156.528 193.61 156.505C193.664 156.483 193.721 156.47 193.78 156.47H222.08C222.138 156.47 222.195 156.482 222.248 156.504C222.301 156.526 222.349 156.559 222.39 156.6C222.471 156.687 222.518 156.801 222.52 156.92C222.516 157.036 222.469 157.146 222.39 157.23C222.349 157.271 222.301 157.304 222.248 157.326C222.195 157.348 222.138 157.36 222.08 157.36Z" fill="#D1D3D4"/>
<path d="M215.98 165.4H194.19C194.132 165.401 194.075 165.39 194.021 165.368C193.968 165.345 193.92 165.312 193.88 165.27C193.839 165.229 193.806 165.181 193.784 165.128C193.762 165.075 193.75 165.018 193.75 164.96C193.751 164.844 193.798 164.732 193.88 164.65C193.962 164.568 194.074 164.521 194.19 164.52H215.98C216.038 164.52 216.095 164.532 216.148 164.554C216.201 164.577 216.249 164.609 216.29 164.65C216.371 164.733 216.418 164.844 216.42 164.96C216.419 165.076 216.372 165.188 216.29 165.27C216.208 165.352 216.096 165.399 215.98 165.4Z" fill="#D1D3D4"/>
<path d="M219.02 173.17H193.78C193.722 173.17 193.665 173.158 193.612 173.136C193.559 173.114 193.511 173.081 193.47 173.04C193.428 173 193.395 172.952 193.372 172.899C193.35 172.845 193.339 172.788 193.34 172.73C193.339 172.671 193.35 172.612 193.372 172.557C193.394 172.502 193.428 172.452 193.47 172.41C193.511 172.371 193.56 172.34 193.613 172.319C193.666 172.298 193.723 172.289 193.78 172.29H219.02C219.078 172.29 219.135 172.301 219.188 172.324C219.241 172.346 219.29 172.379 219.33 172.42C219.371 172.461 219.404 172.509 219.426 172.562C219.448 172.615 219.46 172.672 219.46 172.73C219.459 172.847 219.412 172.958 219.33 173.04C219.248 173.122 219.136 173.169 219.02 173.17Z" fill="#D1D3D4"/>
<path d="M223.05 165.02H219.02C218.904 165.019 218.793 164.972 218.71 164.89C218.628 164.808 218.581 164.696 218.58 164.58C218.579 164.522 218.59 164.465 218.613 164.411C218.635 164.358 218.668 164.31 218.71 164.27C218.751 164.229 218.799 164.197 218.852 164.174C218.905 164.152 218.963 164.14 219.02 164.14H223.03C223.088 164.14 223.145 164.152 223.198 164.174C223.251 164.197 223.3 164.229 223.34 164.27C223.382 164.31 223.416 164.358 223.438 164.411C223.46 164.465 223.471 164.522 223.47 164.58C223.469 164.696 223.422 164.808 223.34 164.89C223.258 164.972 223.147 165.019 223.03 165.02H223.05Z" fill="#D1D3D4"/>
<path d="M53.7201 47.05H6.17013C6.11308 47.0516 6.05624 47.0417 6.00301 47.0211C5.94979 47.0005 5.90119 46.9696 5.86007 46.93C5.81784 46.8883 5.78452 46.8383 5.76217 46.7833C5.73982 46.7283 5.72891 46.6693 5.73006 46.6099V7.58993C5.73111 7.47355 5.77778 7.36228 5.86007 7.27999C5.94236 7.1977 6.05375 7.15103 6.17013 7.14998C6.22801 7.14883 6.28544 7.15982 6.33883 7.18221C6.39222 7.2046 6.44032 7.2379 6.48006 7.27999C6.52108 7.32055 6.5537 7.36876 6.57601 7.42196C6.59832 7.47516 6.60988 7.53224 6.61007 7.58993V46.17H53.7201C53.8364 46.1711 53.9478 46.2177 54.0301 46.3C54.1124 46.3823 54.1591 46.4936 54.1601 46.6099C54.1578 46.729 54.1115 46.8431 54.0301 46.93C53.946 47.0083 53.835 47.0512 53.7201 47.05Z" fill="#E6E7E8"/>
<path d="M6.17004 47.0499C6.1145 47.0514 6.05916 47.0415 6.00757 47.0208C5.95597 47.0002 5.90916 46.9693 5.87 46.9299C5.82494 46.8928 5.79047 46.8445 5.77002 46.7899C5.74621 46.7362 5.7326 46.6785 5.72998 46.6198C5.73375 46.5613 5.74731 46.5038 5.77002 46.4498C5.79043 46.3951 5.8249 46.3469 5.87 46.3099L25.84 24.8899C25.8885 24.842 25.9464 24.8046 26.01 24.7799C26.0747 24.7594 26.1421 24.7493 26.21 24.7499C26.2779 24.7581 26.343 24.782 26.4 24.8198C26.4515 24.8614 26.4984 24.9083 26.54 24.9598L30.95 32.0798L44.8199 16.8099C44.8567 16.7621 44.9048 16.7242 44.96 16.6998C45.0112 16.6683 45.0699 16.6511 45.13 16.6499C45.1907 16.6416 45.2526 16.6485 45.3101 16.6699C45.3654 16.69 45.4162 16.7205 45.46 16.7599C45.505 16.7993 45.5423 16.8468 45.5699 16.8999C45.588 16.9587 45.6014 17.0188 45.61 17.0798C45.6122 17.139 45.5984 17.1978 45.5699 17.2499C45.5524 17.3088 45.5176 17.3611 45.47 17.3999L31.22 33.1098C31.1741 33.161 31.1155 33.199 31.05 33.2198C30.9866 33.2451 30.9181 33.2554 30.85 33.2499C30.7837 33.2406 30.7196 33.2202 30.66 33.1898C30.6039 33.1537 30.5561 33.1061 30.52 33.0499L26.1 25.9199L6.47998 46.9099C6.44263 46.9571 6.39465 46.9947 6.33997 47.0199C6.28707 47.0451 6.22838 47.0555 6.17004 47.0499Z" fill="#E6E7E8"/>
<path d="M208.43 48.88C208.344 48.8795 208.26 48.8515 208.19 48.8001C208.121 48.7461 208.069 48.6731 208.04 48.59L192.2 4.51005L174.75 38.5C174.717 38.5669 174.665 38.6226 174.6 38.6601C174.542 38.7022 174.472 38.7265 174.4 38.73C174.324 38.7422 174.247 38.728 174.18 38.69C174.112 38.6643 174.053 38.6192 174.01 38.5601L156.79 16.0201L145.93 33.45C145.899 33.5002 145.858 33.5437 145.81 33.578C145.762 33.6124 145.708 33.6369 145.65 33.6501C145.537 33.6703 145.419 33.649 145.32 33.59L136.19 28.09C136.135 28.0617 136.084 28.0245 136.04 27.98C136.004 27.9322 135.977 27.8779 135.96 27.82C135.942 27.7618 135.938 27.7 135.95 27.6401C135.955 27.576 135.976 27.5141 136.01 27.46C136.042 27.4098 136.083 27.3657 136.13 27.33C136.182 27.2966 136.24 27.2729 136.3 27.26C136.36 27.25 136.421 27.25 136.48 27.26C136.539 27.2743 136.594 27.3016 136.64 27.34L145.41 32.6401L156.36 15.0201C156.4 14.9605 156.451 14.9095 156.51 14.87C156.571 14.8321 156.639 14.8082 156.71 14.8001C156.782 14.7979 156.854 14.8115 156.92 14.84C156.986 14.8697 157.042 14.9185 157.08 14.98L174.27 37.47L191.86 3.21C191.901 3.13375 191.964 3.07126 192.04 3.03007C192.114 2.98115 192.202 2.95984 192.29 2.97001C192.373 2.98031 192.452 3.01134 192.52 3.0601C192.589 3.11026 192.641 3.17988 192.67 3.26005L208.45 47.26L216.22 30.82C216.24 30.7616 216.271 30.7075 216.31 30.6601C216.355 30.617 216.406 30.58 216.46 30.5501C216.521 30.5296 216.586 30.5195 216.65 30.5201C216.713 30.5189 216.774 30.5326 216.83 30.5601C216.885 30.5844 216.934 30.6222 216.97 30.6701C217.01 30.7175 217.04 30.7716 217.06 30.83C217.077 30.8918 217.084 30.9561 217.08 31.0201C217.072 31.0818 217.048 31.1403 217.01 31.19L208.8 48.6C208.771 48.6802 208.719 48.7499 208.65 48.8001C208.588 48.8512 208.511 48.8794 208.43 48.88Z" fill="#D1D3D4"/>
<path d="M145.55 35.3299C145.979 35.3309 146.398 35.2047 146.755 34.9671C147.112 34.7296 147.39 34.3916 147.554 33.9958C147.719 33.6 147.762 33.1643 147.679 32.7439C147.595 32.3234 147.389 31.9372 147.086 31.6341C146.783 31.3311 146.397 31.1247 145.976 31.0414C145.556 30.958 145.12 31.0013 144.724 31.1658C144.328 31.3302 143.99 31.6085 143.753 31.9653C143.515 32.3221 143.389 32.7414 143.39 33.17C143.391 33.7426 143.619 34.2913 144.024 34.6961C144.429 35.101 144.978 35.3289 145.55 35.3299Z" fill="white"/>
<path d="M145.55 35.78C145.026 35.782 144.513 35.6281 144.077 35.3379C143.64 35.0476 143.3 34.6341 143.1 34.15C142.901 33.6656 142.849 33.1337 142.95 32.62C143.052 32.1039 143.306 31.6301 143.68 31.26C144.05 30.8919 144.519 30.6384 145.03 30.53C145.544 30.4268 146.078 30.4825 146.56 30.6899C147.044 30.888 147.458 31.2258 147.75 31.66C148.04 32.0954 148.197 32.6065 148.2 33.13C148.2 33.4793 148.132 33.8253 147.998 34.1479C147.864 34.4706 147.668 34.7636 147.42 35.01C146.921 35.5015 146.25 35.778 145.55 35.78ZM145.55 31.45C145.11 31.4509 144.687 31.616 144.363 31.9127C144.038 32.2094 143.836 32.6166 143.796 33.0543C143.756 33.4921 143.881 33.929 144.146 34.2797C144.411 34.6303 144.798 34.8693 145.23 34.95C145.578 35.0106 145.935 34.9689 146.26 34.83C146.581 34.6898 146.853 34.4564 147.04 34.16C147.228 33.8651 147.323 33.5198 147.31 33.17C147.3 32.7101 147.11 32.2724 146.781 31.9509C146.452 31.6294 146.01 31.4496 145.55 31.45Z" fill="#D1D3D4"/>
<path d="M156.75 17.4101C157.179 17.4111 157.598 17.2849 157.955 17.0473C158.311 16.8098 158.59 16.4717 158.754 16.0759C158.919 15.6801 158.962 15.2444 158.879 14.824C158.795 14.4035 158.589 14.0173 158.286 13.7142C157.983 13.4111 157.596 13.2048 157.176 13.1214C156.756 13.0381 156.32 13.0813 155.924 13.2458C155.528 13.4103 155.19 13.6886 154.953 14.0454C154.715 14.4022 154.589 14.8215 154.59 15.2501C154.591 15.8226 154.819 16.3714 155.224 16.7762C155.629 17.1811 156.177 17.4091 156.75 17.4101Z" fill="white"/>
<path d="M156.75 17.8499C156.222 17.8532 155.706 17.6963 155.27 17.4C154.838 17.106 154.501 16.6924 154.3 16.2099C154.103 15.7219 154.054 15.1869 154.159 14.6713C154.264 14.1558 154.518 13.6825 154.89 13.31C155.266 12.9434 155.742 12.6964 156.258 12.6003C156.774 12.5042 157.307 12.5633 157.79 12.77C158.276 12.9698 158.688 13.3157 158.97 13.76C159.305 14.2713 159.452 14.8837 159.384 15.4915C159.317 16.0994 159.039 16.6646 158.6 17.0899C158.108 17.578 157.443 17.8513 156.75 17.8499ZM156.75 13.52C156.401 13.5214 156.061 13.6256 155.771 13.8194C155.481 14.0133 155.254 14.2882 155.12 14.6099C154.983 14.9316 154.948 15.2877 155.02 15.63C155.085 15.9731 155.251 16.2889 155.497 16.5367C155.743 16.7845 156.057 16.9528 156.4 17.02C156.742 17.0929 157.098 17.058 157.42 16.92C157.746 16.7882 158.024 16.5618 158.22 16.27C158.41 15.9785 158.511 15.6379 158.51 15.29C158.509 15.0607 158.463 14.8338 158.374 14.6226C158.284 14.4114 158.154 14.2202 157.99 14.06C157.66 13.7327 157.214 13.5493 156.75 13.55V13.52Z" fill="#D1D3D4"/>
<path d="M192.28 5.56994C192.707 5.56994 193.125 5.44328 193.48 5.20593C193.835 4.96859 194.112 4.63126 194.276 4.23657C194.439 3.84188 194.482 3.40765 194.399 2.98865C194.315 2.56965 194.11 2.18477 193.807 1.88269C193.505 1.58061 193.121 1.37485 192.702 1.2915C192.283 1.20816 191.848 1.25094 191.453 1.41443C191.059 1.57791 190.721 1.85475 190.484 2.20996C190.247 2.56517 190.12 2.98283 190.12 3.41003C190.121 3.98258 190.349 4.53131 190.754 4.93616C191.159 5.34101 191.708 5.56889 192.28 5.56994Z" fill="white"/>
<path d="M192.27 6.0202C191.743 6.01875 191.228 5.86217 190.79 5.57012C190.357 5.27231 190.02 4.85554 189.82 4.37017C189.623 3.88385 189.574 3.3502 189.679 2.83611C189.784 2.32203 190.038 1.85036 190.41 1.48016C190.786 1.11075 191.262 0.860348 191.78 0.760187C192.295 0.660222 192.829 0.71956 193.31 0.930231C193.797 1.13392 194.209 1.4832 194.49 1.93023C194.776 2.37042 194.926 2.88529 194.92 3.41021C194.906 4.10493 194.621 4.76661 194.126 5.25421C193.631 5.7418 192.965 6.01669 192.27 6.0202ZM192.27 1.69012C191.922 1.6892 191.581 1.79004 191.29 1.98016C190.998 2.17584 190.772 2.45455 190.64 2.78021C190.502 3.10182 190.468 3.45803 190.54 3.80023C190.605 4.14182 190.773 4.45549 191.02 4.70013C191.265 4.9483 191.578 5.11871 191.92 5.19012C192.263 5.25307 192.616 5.21845 192.94 5.09014C193.264 4.955 193.541 4.72927 193.74 4.44012C193.929 4.14448 194.03 3.80101 194.03 3.45013C194.032 3.21833 193.988 2.98848 193.901 2.77386C193.813 2.55924 193.684 2.36416 193.52 2.20025C193.356 2.03634 193.161 1.90686 192.946 1.81927C192.732 1.73167 192.502 1.68771 192.27 1.69012Z" fill="#D1D3D4"/>
<path d="M208.42 50.5799C208.848 50.5809 209.268 50.4547 209.624 50.2171C209.981 49.9796 210.259 49.6416 210.424 49.2458C210.588 48.85 210.632 48.4143 210.548 47.9939C210.465 47.5734 210.259 47.1872 209.956 46.8841C209.653 46.5811 209.266 46.3747 208.846 46.2914C208.426 46.208 207.99 46.2513 207.594 46.4158C207.198 46.5802 206.86 46.8585 206.623 47.2153C206.385 47.5721 206.259 47.9914 206.26 48.42C206.261 48.9926 206.489 49.5413 206.894 49.9461C207.298 50.351 207.847 50.5789 208.42 50.5799Z" fill="white"/>
<path d="M208.43 51.02C207.904 51.0332 207.386 50.8877 206.943 50.6023C206.501 50.3169 206.155 49.9049 205.95 49.42C205.74 48.9355 205.68 48.3988 205.78 47.88C205.88 47.3625 206.13 46.886 206.5 46.51C206.87 46.1381 207.342 45.8836 207.856 45.7787C208.37 45.6737 208.904 45.723 209.39 45.92C209.876 46.1193 210.291 46.4588 210.583 46.8951C210.875 47.3315 211.031 47.8449 211.03 48.37C211.031 49.0645 210.759 49.7315 210.272 50.2272C209.786 50.7229 209.124 51.0077 208.43 51.02ZM208.43 46.6801C208.08 46.6757 207.736 46.7728 207.44 46.96C207.143 47.1485 206.909 47.4216 206.768 47.7441C206.627 48.0667 206.586 48.4239 206.65 48.77C206.709 49.1145 206.873 49.4323 207.12 49.6801C207.363 49.933 207.677 50.1071 208.02 50.1801C208.365 50.2508 208.723 50.2194 209.05 50.09C209.372 49.9521 209.649 49.727 209.85 49.4399C210.043 49.1457 210.147 48.802 210.15 48.45C210.15 47.9905 209.97 47.5493 209.65 47.22C209.327 46.891 208.891 46.6979 208.43 46.6801Z" fill="#D1D3D4"/>
<path d="M174.36 40.4598C174.788 40.4608 175.207 40.3348 175.564 40.0978C175.92 39.8607 176.199 39.5233 176.364 39.1281C176.528 38.7328 176.572 38.2976 176.49 37.8774C176.407 37.4573 176.202 37.0711 175.9 36.7676C175.598 36.4641 175.212 36.257 174.793 36.1725C174.373 36.088 173.937 36.1298 173.541 36.2927C173.145 36.4557 172.807 36.7324 172.568 37.0879C172.329 37.4434 172.201 37.8617 172.2 38.2899C172.199 38.5744 172.254 38.8565 172.362 39.1197C172.47 39.383 172.628 39.6223 172.829 39.824C173.03 40.0256 173.268 40.1857 173.531 40.2948C173.794 40.4039 174.076 40.46 174.36 40.4598Z" fill="white"/>
<path d="M174.36 40.9301C173.836 40.9334 173.323 40.7763 172.89 40.48C172.452 40.1894 172.111 39.7752 171.91 39.29C171.709 38.8025 171.66 38.2657 171.77 37.75C171.875 37.233 172.133 36.7594 172.51 36.39C172.886 36.0274 173.358 35.7809 173.87 35.6801C174.389 35.5806 174.925 35.6398 175.41 35.85C175.895 36.0549 176.307 36.401 176.592 36.8434C176.878 37.2857 177.023 37.8037 177.01 38.33C176.998 39.0243 176.713 39.6861 176.217 40.1725C175.721 40.6589 175.054 40.9309 174.36 40.9301ZM174.36 36.61C174.024 36.6143 173.697 36.7188 173.42 36.91C173.147 37.1076 172.936 37.3778 172.81 37.6899C172.681 37.9998 172.649 38.3418 172.72 38.67C172.789 39.0025 172.952 39.3081 173.19 39.55C173.429 39.7851 173.731 39.945 174.06 40.01C174.391 40.0787 174.734 40.0509 175.05 39.9301C175.361 39.8018 175.629 39.5862 175.82 39.3094C176.012 39.0327 176.119 38.7065 176.13 38.37C176.131 38.1338 176.087 37.8996 176 37.6801C175.915 37.4622 175.786 37.2645 175.62 37.1C175.459 36.9325 175.265 36.7998 175.05 36.71C174.831 36.6186 174.597 36.571 174.36 36.5699V36.61Z" fill="#D1D3D4"/>
<path d="M65.8899 12.85H53.7198C53.6605 12.8512 53.6015 12.8403 53.5465 12.818C53.4915 12.7956 53.4416 12.7622 53.3999 12.72C53.3226 12.6352 53.2798 12.5247 53.2798 12.41C53.2798 12.2953 53.3226 12.1847 53.3999 12.1C53.4868 12.0186 53.6008 11.9723 53.7198 11.97H65.8899C66.006 11.9723 66.1168 12.0188 66.1998 12.1C66.2409 12.1405 66.2736 12.1887 66.2959 12.2419C66.3182 12.2952 66.3297 12.3523 66.3297 12.41C66.3297 12.4677 66.3182 12.5248 66.2959 12.578C66.2736 12.6312 66.2409 12.6795 66.1998 12.72C66.1601 12.7621 66.112 12.7954 66.0586 12.8177C66.0052 12.8401 65.9478 12.8511 65.8899 12.85Z" fill="#D1D3D4"/>
<path d="M65.8903 15.9999H53.7203C53.6012 15.9976 53.4873 15.9512 53.4003 15.8699C53.3235 15.7849 53.2807 15.6745 53.2803 15.5599C53.2788 15.442 53.3217 15.3277 53.4003 15.2399C53.4873 15.1585 53.6012 15.1122 53.7203 15.1099H65.8903C66.0064 15.1122 66.1172 15.1587 66.2002 15.2399C66.2834 15.3236 66.3301 15.4369 66.3301 15.5549C66.3301 15.673 66.2834 15.7861 66.2002 15.8699C66.1172 15.951 66.0064 15.9975 65.8903 15.9999Z" fill="#D1D3D4"/>
<path d="M61.7899 19.1501H53.7198C53.6008 19.1478 53.4868 19.1015 53.3999 19.0201C53.3226 18.9354 53.2798 18.8247 53.2798 18.71C53.2798 18.5953 53.3226 18.4848 53.3999 18.4001C53.4416 18.3579 53.4915 18.3246 53.5465 18.3022C53.6015 18.2799 53.6605 18.2689 53.7198 18.2701H61.7899C61.9063 18.2711 62.0176 18.3178 62.0999 18.4001C62.1821 18.4824 62.2288 18.5937 62.2299 18.71C62.232 18.7681 62.2214 18.8258 62.199 18.8794C62.1765 18.9329 62.1427 18.981 62.0999 19.0201C62.0593 19.0611 62.011 19.0936 61.9578 19.1159C61.9046 19.1382 61.8476 19.1499 61.7899 19.1501Z" fill="#D1D3D4"/>
</svg>
