<svg width="255" height="186" viewBox="0 0 255 186" fill="none" xmlns="http://www.w3.org/2000/svg">
<path d="M254.178 179.476H0.44125C0.324223 179.476 0.211989 179.429 0.129239 179.346C0.0464884 179.263 0 179.151 0 179.034C0 178.917 0.0464884 178.805 0.129239 178.722C0.211989 178.639 0.324223 178.592 0.44125 178.592H254.178C254.295 178.592 254.407 178.639 254.49 178.722C254.572 178.805 254.619 178.917 254.619 179.034C254.619 179.151 254.572 179.263 254.49 179.346C254.407 179.429 254.295 179.476 254.178 179.476Z" fill="#D1D3D4"/>
<path d="M143.768 185.147C183.247 185.147 215.251 153.113 215.251 113.597C215.251 74.0807 183.247 42.0466 143.768 42.0466C104.289 42.0466 72.2855 74.0807 72.2855 113.597C72.2855 153.113 104.289 185.147 143.768 185.147Z" fill="white"/>
<path d="M143.768 185.588C129.541 185.588 115.633 181.365 103.804 173.453C91.9741 165.542 82.7543 154.296 77.3102 141.139C71.866 127.982 70.442 113.505 73.2183 99.538C75.9945 85.571 82.8463 72.7417 92.9072 62.6726C102.968 52.6035 115.786 45.7469 129.74 42.9697C143.694 40.1925 158.158 41.6197 171.302 47.0706C184.445 52.5215 195.679 61.7513 203.582 73.5929C211.485 85.4345 215.702 99.3559 215.701 113.597C215.68 132.685 208.094 150.986 194.608 164.482C181.123 177.979 162.839 185.57 143.768 185.588ZM143.768 42.4883C129.716 42.4883 115.979 46.6593 104.295 54.4737C92.6106 62.2882 83.504 73.3952 78.1263 86.3901C72.7487 99.3851 71.3417 113.684 74.0832 127.48C76.8247 141.275 83.5915 153.947 93.5281 163.893C103.465 173.839 116.125 180.612 129.907 183.356C143.689 186.1 157.975 184.692 170.958 179.309C183.94 173.926 195.037 164.811 202.844 153.116C210.651 141.421 214.818 127.671 214.818 113.605C214.799 94.749 207.308 76.67 193.988 63.3356C180.668 50.0012 162.607 42.5005 143.768 42.4795V42.4883Z" fill="#231F20"/>
<path d="M179.801 140.697C175.655 146.465 170.125 151.094 163.721 154.159C157.28 157.225 150.23 158.793 143.097 158.744C136.95 158.786 130.849 157.671 125.112 155.458C119.658 153.366 114.649 150.261 110.348 146.306C106.091 142.355 102.693 137.568 100.367 132.244C97.9719 126.618 96.7324 120.567 96.7217 114.451C96.7111 108.335 97.9297 102.28 100.305 96.6455C102.612 91.3345 105.944 86.5316 110.109 82.5121C114.322 78.4957 119.261 75.3208 124.662 73.1576C130.296 70.8626 136.327 69.7039 142.409 69.748C147.675 69.7487 152.904 70.6171 157.888 72.3185C162.847 73.9783 167.451 76.5552 171.461 79.9151C175.488 83.3261 178.764 87.5373 181.08 92.2818C183.58 97.5174 184.827 103.263 184.725 109.065C184.797 112.789 184.294 116.502 183.233 120.071C182.378 122.888 181.086 125.553 179.403 127.968C177.956 130.027 176.165 131.82 174.108 133.268C172.3 134.552 170.333 135.597 168.257 136.378C166.438 137.063 164.555 137.566 162.636 137.879C161.154 138.127 159.655 138.266 158.153 138.295C154.805 138.295 152.414 137.617 150.978 136.263C149.67 135.147 148.855 133.56 148.71 131.846H148.489C146.7 133.575 144.692 135.06 142.515 136.263C139.631 137.73 136.419 138.429 133.187 138.295C130.829 138.328 128.492 137.841 126.343 136.869C124.194 135.896 122.285 134.462 120.752 132.668C119.176 130.806 117.977 128.655 117.222 126.334C116.362 123.71 115.938 120.961 115.969 118.199C115.947 114.763 116.499 111.347 117.602 108.093C118.661 104.969 120.259 102.054 122.323 99.481C124.355 96.9689 126.904 94.9259 129.798 93.492C132.926 91.9773 136.367 91.2208 139.841 91.2837C142.572 91.1921 145.288 91.7238 147.783 92.8383C149.999 93.9786 151.751 95.8513 152.743 98.1383H152.99L153.943 92.75H165.257L160.844 116.326L160.13 119.674C159.887 120.815 159.766 121.979 159.768 123.145C159.702 124.28 159.93 125.411 160.43 126.431C160.712 126.839 161.101 127.161 161.554 127.362C162.007 127.563 162.506 127.635 162.998 127.571C164.317 127.56 165.611 127.21 166.757 126.555C168.106 125.768 169.238 124.657 170.049 123.322C171.108 121.599 171.894 119.721 172.379 117.757C173.019 115.136 173.315 112.443 173.261 109.745C173.35 105.423 172.557 101.128 170.931 97.1225C169.477 93.6334 167.271 90.5086 164.471 87.9712C161.617 85.4372 158.257 83.5402 154.614 82.4061C150.551 81.1342 146.313 80.5083 142.056 80.5511C137.434 80.4923 132.846 81.3447 128.554 83.0598C124.611 84.6539 121.047 87.0618 118.096 90.1265C115.145 93.2267 112.847 96.8883 111.336 100.894C109.714 105.216 108.903 109.801 108.945 114.418C108.869 119.26 109.769 124.066 111.592 128.551C113.247 132.555 115.756 136.149 118.943 139.081C122.194 142.014 125.995 144.272 130.125 145.723C134.609 147.285 139.33 148.053 144.077 147.994C148.316 148.041 152.534 147.394 156.564 146.077C160.216 144.876 163.634 143.057 166.669 140.697H179.801ZM140.829 102.051C138.972 102.021 137.132 102.411 135.446 103.191C133.899 103.917 132.533 104.979 131.448 106.3C130.345 107.664 129.513 109.226 128.995 110.902C128.428 112.724 128.145 114.622 128.157 116.529C128.157 117.165 128.218 118.102 128.342 119.338C128.469 120.61 128.831 121.847 129.41 122.986C130.094 124.281 131.104 125.374 132.34 126.158C134.074 127.174 136.07 127.654 138.076 127.536C140.033 127.605 141.974 127.15 143.697 126.219C145.156 125.399 146.388 124.227 147.28 122.81C148.176 121.381 148.804 119.8 149.134 118.146C149.49 116.473 149.67 114.768 149.672 113.058C149.784 110.268 149.035 107.51 147.528 105.161C146.092 103.088 143.859 102.051 140.829 102.051Z" fill="#30C684"/>
<path d="M37.7396 21.3677L35.6738 22.4072L45.3655 41.7034L47.4313 40.6639L37.7396 21.3677Z" fill="#231F20"/>
<path d="M45.3694 42.1438C45.2867 42.144 45.2056 42.1209 45.1354 42.0772C45.0652 42.0335 45.0086 41.9708 44.9723 41.8965L35.2648 22.6045C35.2409 22.5518 35.2285 22.4946 35.2285 22.4367C35.2285 22.3788 35.2409 22.3216 35.2648 22.2688C35.2993 22.1591 35.3753 22.0672 35.4766 22.0127L37.5504 20.9438C37.6537 20.8942 37.7723 20.8867 37.881 20.923C37.9897 20.9593 38.08 21.0364 38.1329 21.1382L47.8404 40.439C47.8845 40.5465 47.8845 40.6671 47.8404 40.7747C47.8231 40.8302 47.7946 40.8817 47.7567 40.9257C47.7187 40.9698 47.6721 41.0056 47.6198 41.0308L45.5635 42.1438C45.4994 42.156 45.4335 42.156 45.3694 42.1438ZM36.2708 22.6133L45.5635 41.1633L46.8432 40.5185L37.5504 21.9685L36.2708 22.6133Z" fill="#231F20"/>
<path d="M53.0736 48.9544C52.8265 48.1947 47.8492 42.1527 47.6638 40.8365C47.4785 39.5204 48.5993 34.1232 47.4873 33.3635C46.3754 32.6039 44.3545 37.6742 44.3545 37.6742C44.3545 37.6742 40.0126 29.7242 38.7682 30.2719C37.5239 30.8195 37.8857 35.1655 38.6182 37.8244C39.3507 40.4832 47.1785 53.6272 47.1785 53.6272L53.0736 48.9544Z" fill="white"/>
<path d="M47.1784 54.0953H47.099C47.0363 54.0848 46.9768 54.0603 46.9248 54.0236C46.8729 53.9869 46.8299 53.9389 46.799 53.8833C46.4724 53.3445 38.8565 40.6333 38.1593 37.9833C37.771 36.4728 36.6943 30.687 38.5741 29.9008C39.8007 29.3885 42.2717 33.1515 44.275 36.7113C44.8839 35.3598 45.9782 33.178 46.9225 32.9218C47.0508 32.8811 47.1866 32.8703 47.3197 32.8902C47.4528 32.9101 47.5795 32.9602 47.6903 33.0367C48.5728 33.6462 48.4492 35.6867 48.1845 38.5222C48.0867 39.2836 48.0454 40.0513 48.0609 40.8188C48.158 41.5167 50.2672 44.3522 51.5203 46.057C52.2478 46.928 52.8919 47.8655 53.4442 48.8572C53.4732 48.9429 53.4752 49.0354 53.45 49.1223C53.4247 49.2092 53.3734 49.2862 53.303 49.343L47.4079 54.0423C47.3375 54.0801 47.2583 54.0984 47.1784 54.0953ZM38.8653 30.6605C38.1593 30.9608 38.2122 34.5825 39.0153 37.7272C39.6154 40.0238 45.9341 50.7033 47.2932 53L52.5087 48.8483C52.2087 48.3713 51.4939 47.4085 50.8585 46.5517C48.8111 43.7868 47.3285 41.764 47.2314 40.9072C47.1972 40.0719 47.2386 39.2352 47.3549 38.4073C47.4785 37.0028 47.7609 34.0878 47.2402 33.7345C46.799 33.7345 45.6076 35.6955 44.7427 37.8508C44.71 37.9282 44.6562 37.9948 44.5876 38.0432C44.519 38.0916 44.4382 38.1198 44.3544 38.1247C44.2719 38.1292 44.1898 38.11 44.1179 38.0693C44.0459 38.0286 43.9871 37.9681 43.9485 37.895C42.0688 34.4588 39.5801 30.7488 38.8653 30.6605Z" fill="#231F20"/>
<path d="M31.4611 158.744C31.4611 158.744 25.2836 169.741 25.6896 169.786C26.0955 169.83 36.0413 172.762 36.0413 172.762C36.0413 172.762 41.8923 163.85 41.8129 163.62C41.7334 163.39 31.4611 158.744 31.4611 158.744Z" fill="white"/>
<path d="M36.0413 173.248C36.0006 173.256 35.9585 173.256 35.9178 173.248C32.0083 172.1 26.0514 170.36 25.6278 170.289C25.5551 170.274 25.4863 170.245 25.4255 170.202C25.3648 170.16 25.3135 170.105 25.2748 170.042C25.1424 169.785 24.9659 169.432 31.0817 158.558C31.1357 158.463 31.2242 158.391 31.3291 158.358C31.4341 158.325 31.5475 158.334 31.6465 158.382C42.0776 163.107 42.1394 163.284 42.2365 163.505C42.3335 163.726 42.4041 163.938 36.4296 173.045C36.3882 173.11 36.3305 173.163 36.2624 173.198C36.1943 173.234 36.1181 173.251 36.0413 173.248ZM26.2191 169.503C27.9311 169.953 33.5615 171.605 35.856 172.285C37.7534 169.379 40.5685 165.033 41.2392 163.832C39.9773 163.169 35.0617 160.881 31.6465 159.353C29.6873 162.834 26.828 168.054 26.2191 169.503Z" fill="#231F20"/>
<path d="M25.6895 169.821C25.6895 169.821 8.85142 168.937 8.03952 171.905C7.22762 174.873 32.0347 182.505 32.0347 182.505L36.0677 172.789L25.6895 169.821Z" fill="#231F20"/>
<path d="M31.9994 182.983H31.867C25.9455 181.154 6.69815 174.962 7.58065 171.8C8.46315 168.637 22.8302 169.247 25.6984 169.397H25.7954L36.156 172.383C36.2151 172.4 36.2699 172.429 36.317 172.468C36.3641 172.508 36.4025 172.557 36.4296 172.612C36.4536 172.67 36.466 172.731 36.466 172.793C36.466 172.855 36.4536 172.917 36.4296 172.974L32.3965 182.691C32.3668 182.774 32.3131 182.845 32.2424 182.897C32.1717 182.949 32.0871 182.979 31.9994 182.983ZM20.3857 170.121C14.623 170.121 8.82497 170.634 8.43667 172.02C7.99542 173.593 20.121 178.398 31.7523 182.002L35.45 173.089L25.6101 170.227C23.9863 170.174 22.186 170.121 20.3857 170.121Z" fill="#231F20"/>
<path d="M66.7083 160.802L70.9972 165.554L78.7632 157.366L72.5239 150.829L66.7083 160.802Z" fill="white"/>
<path d="M70.9971 165.996C70.9363 165.996 70.8762 165.983 70.8212 165.957C70.7662 165.931 70.7177 165.893 70.6794 165.846L66.4169 161.102C66.3549 161.032 66.3165 160.944 66.307 160.85C66.2975 160.757 66.3174 160.663 66.364 160.581L72.1708 150.608C72.2058 150.548 72.2544 150.497 72.3125 150.458C72.3707 150.42 72.437 150.396 72.5062 150.387C72.5739 150.38 72.6425 150.388 72.7067 150.411C72.7709 150.434 72.8291 150.471 72.8768 150.52L79.1161 157.065C79.1964 157.147 79.2415 157.256 79.2415 157.37C79.2415 157.484 79.1964 157.594 79.1161 157.675L71.3501 165.855C71.3063 165.904 71.2516 165.943 71.1903 165.967C71.1291 165.992 71.0629 166.002 70.9971 165.996ZM67.2994 160.749L71.0501 164.901L78.1983 157.375L72.5944 151.553L67.2994 160.749Z" fill="#231F20"/>
<path d="M70.9971 165.554C70.9971 165.554 65.3844 182.505 68.3496 182.276C71.3148 182.046 85.2583 164.388 85.2583 164.388L78.772 157.366L70.9971 165.554Z" fill="#231F20"/>
<path d="M68.2703 182.717C68.1112 182.719 67.9541 182.683 67.8115 182.612C67.6689 182.542 67.545 182.439 67.4495 182.311C65.7993 180.2 69.7705 167.869 70.5824 165.413C70.6025 165.351 70.6356 165.294 70.6795 165.245L78.4455 157.065C78.4909 157.029 78.5434 157.002 78.5995 156.987C78.6557 156.972 78.7144 156.969 78.772 156.977C78.8331 156.978 78.8934 156.991 78.9495 157.015C79.0056 157.039 79.0562 157.074 79.0985 157.118L85.5672 164.141C85.6333 164.22 85.6694 164.32 85.6694 164.424C85.6694 164.527 85.6333 164.627 85.5672 164.706C84.1288 166.535 71.3943 182.523 68.3497 182.753L68.2703 182.717ZM71.3855 165.81C69.5587 171.322 67.0965 180.465 68.1379 181.799C68.1535 181.823 68.1763 181.842 68.2031 181.853C68.23 181.865 68.2596 181.867 68.2879 181.861C70.2647 181.71 79.2662 171.261 84.6583 164.441L78.772 158.011L71.3855 165.81Z" fill="#231F20"/>
<path d="M61.8632 80.1802C61.8632 80.1802 27.9134 116.962 27.3751 120.584C26.3426 127.606 66.0816 163.655 66.0816 163.655L75.1801 151.218L51.5291 123.623L82.6108 81.09L61.8632 80.1802Z" fill="#231F20"/>
<path d="M66.0816 164.097C65.974 164.095 65.8706 164.054 65.7904 163.982C64.1578 162.507 25.8838 127.695 26.9604 120.513C27.4987 116.874 58.0685 83.6605 61.5544 79.8798C61.5981 79.8332 61.6517 79.7971 61.7113 79.7741C61.7709 79.7512 61.8349 79.742 61.8986 79.7473L82.6462 80.6306C82.7254 80.6355 82.802 80.6609 82.8685 80.7042C82.935 80.7476 82.9892 80.8074 83.0256 80.878C83.0605 80.9498 83.0749 81.0299 83.0671 81.1095C83.0593 81.189 83.0297 81.2648 82.9815 81.3285L52.094 123.587L75.5156 150.917C75.578 150.993 75.6121 151.089 75.6121 151.187C75.6121 151.285 75.578 151.38 75.5156 151.456L66.417 163.92C66.3798 163.969 66.3334 164.009 66.2803 164.04C66.2273 164.07 66.1687 164.089 66.1081 164.097H66.0816ZM62.0486 80.6306C48.4405 95.3823 28.1871 118.102 27.8164 120.646C26.9957 126.158 54.768 152.764 66.0199 163.001L74.6154 151.235L51.2027 123.914C51.1426 123.835 51.11 123.739 51.11 123.64C51.11 123.541 51.1426 123.445 51.2027 123.366L81.799 81.4875L62.0486 80.6306Z" fill="#231F20"/>
<path d="M89.8297 88.3422L40.1537 169.538L26.2014 161.5L67.3259 80.7632L89.8297 88.3422Z" fill="#231F20"/>
<path d="M40.1537 169.98C40.0757 169.981 39.999 169.96 39.9331 169.918L25.9808 161.888C25.8838 161.831 25.8123 161.739 25.7811 161.63C25.75 161.522 25.7614 161.406 25.8131 161.305L66.9376 80.56C66.9852 80.4663 67.0651 80.3932 67.1625 80.3542C67.2599 80.3152 67.3682 80.313 67.4671 80.3479L89.9709 87.927C90.0343 87.946 90.0922 87.9801 90.1398 88.0262C90.1874 88.0723 90.2233 88.1291 90.2444 88.192C90.2727 88.2513 90.2873 88.3162 90.2873 88.3819C90.2873 88.4476 90.2727 88.5125 90.2444 88.5718L40.5597 169.768C40.5203 169.839 40.4608 169.897 40.3886 169.935C40.3164 169.973 40.2347 169.988 40.1537 169.98ZM26.7839 161.332L40.0214 168.946L89.1855 88.563L67.5642 81.2843L26.7839 161.332Z" fill="#231F20"/>
<path d="M39.1918 135.318C39.1252 135.335 39.0554 135.335 38.9888 135.318C38.937 135.291 38.891 135.254 38.8536 135.209C38.8161 135.164 38.788 135.112 38.7707 135.056C38.7535 135 38.7475 134.942 38.7531 134.883C38.7588 134.825 38.7759 134.769 38.8035 134.717L62.0044 90.259L59.6658 86.0455C59.6363 85.9953 59.6172 85.9397 59.6097 85.8819C59.6022 85.8242 59.6063 85.7655 59.622 85.7094C59.6377 85.6534 59.6645 85.601 59.7008 85.5556C59.7371 85.5101 59.7823 85.4724 59.8335 85.4448C59.9353 85.3876 60.0557 85.3731 60.1682 85.4046C60.2807 85.4361 60.3761 85.5109 60.4336 85.6127L62.8958 90.0293C62.9284 90.0952 62.9454 90.1678 62.9454 90.2413C62.9454 90.3149 62.9284 90.3874 62.8958 90.4533L39.5448 135.079C39.5115 135.146 39.4615 135.203 39.3997 135.245C39.3378 135.287 39.2662 135.312 39.1918 135.318Z" fill="white"/>
<path d="M85.8937 27.0742C86.7512 27.2249 87.6336 27.1363 88.4441 26.818C88.7254 26.7264 88.9739 26.5544 89.1589 26.3233C89.2491 26.2071 89.298 26.0642 89.298 25.917C89.298 25.7699 89.2491 25.6269 89.1589 25.5107C88.8059 25.175 88.0823 25.4223 87.844 24.9983C89.8296 22.7282 90.7298 19.0535 90.6945 16.112C90.6214 12.6451 89.6711 9.25331 87.9323 6.25401C87.4391 5.25159 86.6627 4.41615 85.6995 3.85134C85.2128 3.58275 84.6489 3.48886 84.1015 3.58527C83.5541 3.68168 83.0561 3.96258 82.6902 4.38134C81.7012 3.56142 80.5395 2.97649 79.2922 2.67051C78.045 2.36452 76.7447 2.34543 75.489 2.61467C73.1504 3.02101 71.2089 4.16051 69.1262 5.22051C67.1258 6.11493 64.9958 6.68447 62.8163 6.90768C62.7062 6.90662 62.5973 6.93073 62.4978 6.97819C62.3984 7.02564 62.3112 7.09518 62.2427 7.18151C62.1895 7.32999 62.1895 7.49236 62.2427 7.64084C62.4305 8.70851 62.8303 9.72765 63.4184 10.638C64.0065 11.5483 64.7711 12.3314 65.6668 12.9408C65.1747 13.0553 64.6591 13.012 64.193 12.8172C64.4666 14.7517 66.6816 15.688 68.6055 16.0855C69.9998 16.377 71.6589 16.6067 72.7974 17.5518C73.9358 18.497 74.986 20.2018 76.1509 21.412C77.9767 23.3202 80.2438 24.7491 82.752 25.5725C83.6874 25.864 83.9345 26.3233 84.7552 26.712C85.1169 26.883 85.4998 27.0048 85.8937 27.0742Z" fill="white"/>
<path d="M86.7144 27.5865C86.4188 27.5891 86.1234 27.5655 85.8319 27.5158C85.3726 27.439 84.9267 27.2962 84.5082 27.0918C84.1977 26.9371 83.9022 26.7537 83.6257 26.5441C83.3149 26.2882 82.9586 26.0934 82.5755 25.97C79.9931 25.1324 77.6605 23.6629 75.7891 21.6946C75.2833 21.1595 74.8117 20.5931 74.3771 19.9986C73.8138 19.2275 73.1753 18.5144 72.4709 17.8698C71.4151 17.1662 70.203 16.7325 68.9409 16.6066L68.4467 16.5271C66.8141 16.1915 64.0342 15.2728 63.6988 12.879C63.6886 12.8096 63.6954 12.7389 63.7185 12.6727C63.7417 12.6066 63.7806 12.5471 63.8318 12.4993C63.883 12.4515 63.945 12.4169 64.0126 12.3984C64.0801 12.3799 64.1511 12.3781 64.2195 12.3931C62.9374 11.1468 62.0739 9.53238 61.7485 7.7733C61.6876 7.51843 61.7156 7.25037 61.8279 7.01364C61.9289 6.87054 62.0605 6.75186 62.2132 6.66627C62.3659 6.58068 62.5358 6.53035 62.7104 6.51897C64.8439 6.30427 66.9294 5.74961 68.8879 4.87597L69.7704 4.41664C71.5051 3.40195 73.3867 2.66293 75.3478 2.22597C76.5975 1.96307 77.8885 1.96642 79.1368 2.23579C80.3851 2.50517 81.5627 3.03454 82.5932 3.78947C83.0445 3.42944 83.5894 3.20646 84.1634 3.14697C84.7375 3.08748 85.3165 3.19396 85.8319 3.4538C86.8717 4.05956 87.7121 4.95602 88.25 6.03314C90.0524 9.09202 91.0428 12.5617 91.1269 16.112C91.189 19.2257 90.2823 22.2818 88.5324 24.857C88.855 24.8709 89.1645 24.9886 89.4149 25.1926C89.584 25.3783 89.6843 25.6166 89.6987 25.8675C89.7132 26.1184 89.641 26.3667 89.4943 26.5706C89.2709 26.8708 88.9639 27.0982 88.6118 27.2243C88.0091 27.4681 87.3645 27.5911 86.7144 27.5865ZM85.9731 26.6413C86.7509 26.7806 87.5522 26.6979 88.2853 26.4028C88.482 26.3422 88.6568 26.2256 88.7883 26.0671C88.8101 26.0312 88.8217 25.9899 88.8217 25.9479C88.8217 25.9058 88.8101 25.8646 88.7883 25.8286C88.668 25.7669 88.5352 25.7337 88.4 25.7315C88.2017 25.7383 88.005 25.694 87.8288 25.6027C87.6526 25.5114 87.5029 25.3763 87.394 25.2103C87.3513 25.1302 87.3344 25.0389 87.3454 24.9488C87.3565 24.8587 87.395 24.7742 87.4557 24.7068C89.5208 22.3395 90.2268 18.603 90.1915 16.1208C90.1246 12.7281 89.1953 9.40829 87.491 6.4748C87.0354 5.55202 86.3248 4.77946 85.4436 4.2488C85.0498 4.03098 84.5947 3.95093 84.1503 4.02133C83.7059 4.09174 83.2976 4.30857 82.9903 4.63747C82.9538 4.68944 82.9065 4.73292 82.8517 4.76493C82.7968 4.79694 82.7357 4.81674 82.6726 4.82297C82.5472 4.83161 82.4235 4.79034 82.3284 4.70814C81.3876 3.93623 80.284 3.3881 79.1008 3.10503C77.9176 2.82196 76.6857 2.81134 75.4979 3.07397C73.6362 3.50078 71.8506 4.20973 70.2029 5.1763L69.3204 5.63563C67.2795 6.56956 65.1009 7.16618 62.8693 7.4023C62.6751 7.4023 62.6222 7.4553 62.6045 7.47297C62.5869 7.49064 62.6045 7.47297 62.6045 7.63197C62.7877 8.6311 63.1676 9.58378 63.7221 10.4345C64.2766 11.2853 64.9947 12.0172 65.8345 12.5875C65.9069 12.6357 65.9637 12.704 65.9982 12.7839C66.0327 12.8639 66.0432 12.9521 66.0286 13.038C66.013 13.1222 65.9729 13.1998 65.9132 13.2611C65.8535 13.3225 65.7769 13.3647 65.6933 13.3825C65.3878 13.4592 65.0714 13.4831 64.7578 13.4531C65.4285 14.8135 67.4053 15.423 68.6055 15.6703L69.0997 15.7675C70.4957 15.9309 71.8312 16.431 72.9916 17.225C73.7494 17.9047 74.4301 18.6661 75.0213 19.4951C75.4626 20.0516 75.9038 20.6346 76.3804 21.1205C78.1526 22.9783 80.3568 24.3682 82.7961 25.1661C83.269 25.3204 83.7111 25.5566 84.1022 25.864C84.3418 26.0408 84.5957 26.1973 84.8612 26.3321C85.2063 26.5021 85.5753 26.6182 85.9555 26.6766L85.9731 26.6413Z" fill="#231F20"/>
<path d="M69.5057 17.8257C69.5057 17.8257 66.8582 22.5957 67.5289 23.4967C68.1996 24.3977 70.2382 23.6115 70.2382 23.6115" fill="white"/>
<path d="M68.6673 24.3711C68.3896 24.3939 68.1106 24.3505 67.8529 24.2445C67.5952 24.1386 67.3662 23.9731 67.1847 23.7616C66.3993 22.7458 68.279 19.1241 69.1262 17.5783C69.1538 17.527 69.1914 17.4819 69.2368 17.4455C69.2822 17.4091 69.3345 17.3823 69.3906 17.3666C69.4466 17.3509 69.5052 17.3468 69.5629 17.3543C69.6206 17.3618 69.6762 17.3809 69.7263 17.4105C69.828 17.468 69.9027 17.5635 69.9341 17.6761C69.9656 17.7887 69.9511 17.9092 69.894 18.0111C68.579 20.352 67.6436 22.7723 67.8819 23.1963C68.2525 23.6733 69.5233 23.3818 70.0793 23.1963C70.1341 23.1702 70.1937 23.1558 70.2544 23.1538C70.3151 23.1518 70.3755 23.1624 70.4319 23.1849C70.4883 23.2074 70.5394 23.2413 70.5822 23.2844C70.6249 23.3276 70.6582 23.3791 70.6802 23.4358C70.7021 23.4924 70.7121 23.553 70.7095 23.6137C70.707 23.6744 70.6919 23.734 70.6654 23.7886C70.6388 23.8432 70.6012 23.8918 70.5551 23.9312C70.5089 23.9707 70.4551 24.0001 70.397 24.0178C69.844 24.2308 69.2594 24.3502 68.6673 24.3711Z" fill="#231F20"/>
<path d="M69.7087 11.7748C67.9437 13.4796 68.7115 16.7391 68.8791 18.8856C69.1262 21.8949 69.441 24.9041 69.8234 27.9133C70.0705 29.8213 75.0213 29.5033 75.8597 28.8673V35.2273C75.8597 35.2273 77.2805 38.637 81.1547 36.4905C85.0289 34.344 85.7614 31.7205 85.7614 31.7205L84.7906 23.0108C84.7906 23.0108 81.5254 23.2758 79.3015 19.4775C77.0776 15.6791 76.7246 9.7608 76.7246 9.7608C76.7246 9.7608 71.4649 10.1141 69.7087 11.7748Z" fill="white"/>
<path d="M78.772 37.6476C78.3815 37.6468 77.9938 37.5812 77.6247 37.4533C76.657 37.0793 75.8744 36.3403 75.445 35.3951C75.4357 35.3396 75.4357 35.2829 75.445 35.2273V29.521C73.8735 29.9296 72.2189 29.8867 70.6706 29.3973C70.3481 29.3109 70.0567 29.1348 69.8302 28.8893C69.6037 28.6438 69.4514 28.3391 69.391 28.0105C69.0027 25.016 68.685 21.9685 68.4379 18.9563C68.4379 18.5941 68.3673 18.2055 68.3143 17.7991C68.0672 15.688 67.7496 13.0556 69.3998 11.4833C71.2531 9.71664 76.4598 9.37214 76.6716 9.35447C76.7318 9.3487 76.7925 9.35512 76.8501 9.37333C76.9077 9.39154 76.9611 9.42117 77.007 9.46047C77.0512 9.49699 77.0868 9.54286 77.1112 9.59479C77.1356 9.64672 77.1483 9.70341 77.1482 9.7608C77.1482 9.82264 77.5277 15.7056 79.6721 19.3185C81.7195 22.7811 84.6318 22.6133 84.7465 22.6045C84.8034 22.5984 84.8608 22.6036 84.9156 22.6199C84.9704 22.6361 85.0215 22.6631 85.0658 22.6993C85.1101 22.7354 85.1468 22.78 85.1738 22.8304C85.2008 22.8809 85.2176 22.9362 85.2231 22.9931L86.1938 31.694C86.2068 31.7521 86.2068 31.8125 86.1938 31.8706C86.1938 31.9855 85.3554 34.6973 81.3842 36.9056C80.5917 37.3738 79.692 37.6294 78.772 37.6476ZM76.2922 35.1301C76.633 35.8129 77.2147 36.3448 77.9248 36.623C78.4313 36.7537 78.9598 36.7757 79.4754 36.6874C79.991 36.5991 80.4821 36.4025 80.9165 36.1106C84.1905 34.2821 85.1348 32.1003 85.2848 31.694L84.4023 23.4701C83.3786 23.4171 80.8017 22.9401 78.922 19.7601C77.0423 16.5801 76.4422 11.7483 76.2745 10.2555C75.0037 10.3791 71.3237 10.8473 69.9823 12.1105C68.6497 13.3736 68.9409 15.7586 69.1704 17.6755C69.1704 18.0906 69.2674 18.497 69.2939 18.868C69.541 21.8625 69.8587 24.9011 70.2382 27.878C70.2382 28.1695 70.5206 28.408 70.9618 28.5935C72.4615 29.0661 74.0732 29.0445 75.5597 28.5316C75.6246 28.4803 75.7026 28.4483 75.7848 28.4392C75.867 28.4301 75.9502 28.4443 76.0247 28.4802C76.0992 28.5161 76.1622 28.5723 76.2063 28.6423C76.2505 28.7123 76.2741 28.7933 76.2745 28.8761L76.2922 35.1301Z" fill="#231F20"/>
<path d="M69.7351 25.6608C69.7351 25.6608 72.1796 26.924 73.2651 24.4153L69.7351 25.6608Z" fill="white"/>
<path d="M71.1031 26.4205C70.5582 26.4174 70.021 26.2906 69.5322 26.0495C69.4283 25.9966 69.3495 25.9046 69.3132 25.7937C69.2768 25.6828 69.2857 25.562 69.3381 25.4577C69.3943 25.3546 69.4879 25.2771 69.5995 25.241C69.7111 25.2048 69.8323 25.2128 69.9382 25.2633C70.4864 25.5327 71.1141 25.5923 71.7032 25.4312C71.9633 25.3225 72.1976 25.1601 72.3907 24.9546C72.5838 24.7491 72.7314 24.5052 72.8239 24.2387C72.8461 24.1855 72.8786 24.1373 72.9195 24.0969C72.9605 24.0564 73.0091 24.0246 73.0625 24.0032C73.116 23.9818 73.1731 23.9713 73.2306 23.9723C73.2882 23.9733 73.3449 23.9858 73.3976 24.009C73.5055 24.0557 73.5909 24.1429 73.6354 24.2519C73.6799 24.3609 73.6801 24.4829 73.6358 24.592C73.4609 25.1291 73.1191 25.5962 72.6603 25.9251C72.2015 26.254 71.6497 26.4276 71.0854 26.4205H71.1031Z" fill="#231F20"/>
<path d="M75.436 19.3362C75.4642 18.5765 75.7025 17.8395 76.1244 17.2074C76.3822 16.6744 76.7183 16.1831 77.1216 15.7499C77.3247 15.5368 77.5726 15.3716 77.8473 15.2662C78.1221 15.1608 78.4167 15.1178 78.7101 15.1404C78.9702 15.1885 79.2169 15.2924 79.4332 15.4448C79.6495 15.5973 79.8303 15.7948 79.9633 16.0237C80.2341 16.4693 80.4001 16.9707 80.4486 17.49C80.5828 18.6226 80.4169 19.7705 79.9677 20.8187C79.5185 21.8668 78.8017 22.7782 77.8894 23.4614L78.0394 23.267" fill="white"/>
<path d="M77.8895 23.8677C77.8282 23.8686 77.7674 23.8565 77.7111 23.8322C77.6548 23.8078 77.6043 23.7717 77.563 23.7263C77.4922 23.6457 77.4532 23.5421 77.4532 23.4348C77.4532 23.3275 77.4922 23.2239 77.563 23.1433L77.713 22.9578C77.7814 22.8728 77.8789 22.8162 77.9866 22.7988C78.7305 22.1469 79.3053 21.3241 79.6619 20.401C80.0185 19.4779 80.1462 18.4821 80.034 17.4988C79.9917 17.0425 79.8469 16.6016 79.6104 16.2092C79.5072 16.0421 79.371 15.8979 79.2102 15.7855C79.0493 15.6731 78.8671 15.5948 78.6749 15.5555C78.4466 15.5419 78.2182 15.5792 78.006 15.6647C77.7939 15.7503 77.6034 15.8819 77.4483 16.0502C77.0905 16.4557 76.7933 16.9109 76.5658 17.4017C76.191 17.9646 75.9718 18.6168 75.9304 19.292C75.9339 19.35 75.926 19.4082 75.9071 19.4631C75.8882 19.5181 75.8586 19.5688 75.8201 19.6123C75.7815 19.6558 75.7348 19.6912 75.6826 19.7166C75.6303 19.742 75.5736 19.7568 75.5156 19.7602C75.4573 19.765 75.3988 19.7579 75.3433 19.7394C75.2879 19.721 75.2368 19.6914 75.1931 19.6526C75.1494 19.6138 75.1139 19.5666 75.089 19.5137C75.064 19.4608 75.05 19.4034 75.0479 19.345C75.0665 18.5003 75.3269 17.6787 75.798 16.9777C76.0755 16.407 76.4353 15.8802 76.8658 15.4142C77.1163 15.1524 77.4226 14.9506 77.7617 14.8237C78.1009 14.6967 78.4643 14.648 78.825 14.681C79.1455 14.7335 79.451 14.8546 79.7205 15.036C79.9901 15.2174 80.2174 15.4548 80.387 15.7322C80.6804 16.2459 80.8525 16.82 80.89 17.4105C81.0267 18.6207 80.8454 19.8457 80.3641 20.9642C79.8827 22.0828 79.1179 23.0562 78.1454 23.7882C78.0716 23.8429 77.9813 23.8709 77.8895 23.8677Z" fill="#231F20"/>
<path d="M75.8596 28.8938C77.2996 28.3097 78.5406 27.3221 79.4338 26.0495C79.4338 26.0495 79.6014 30.6605 75.7626 32.2858L75.8596 28.8938Z" fill="#231F20"/>
<path d="M75.7626 32.701C75.6713 32.7006 75.5822 32.6729 75.5067 32.6215C75.4459 32.5793 75.397 32.5223 75.3645 32.4558C75.3321 32.3893 75.3172 32.3156 75.3214 32.2417L75.4184 28.8938C75.4194 28.8079 75.446 28.7242 75.4947 28.6534C75.5434 28.5826 75.6121 28.5279 75.692 28.4963C77.0398 27.9518 78.2035 27.0322 79.0455 25.8463C79.0954 25.7641 79.1703 25.7 79.2592 25.6634C79.3482 25.6269 79.4464 25.6198 79.5397 25.6432C79.6318 25.6658 79.7142 25.7176 79.7746 25.7908C79.835 25.864 79.8702 25.9547 79.8751 26.0495C79.8751 26.2527 79.9986 30.9873 75.9303 32.7098C75.8743 32.7151 75.8178 32.7122 75.7626 32.701ZM76.2921 29.1677L76.2215 31.5438C76.9333 31.0936 77.5387 30.4939 77.9959 29.7861C78.453 29.0784 78.751 28.2796 78.869 27.4452C78.106 28.1492 77.2362 28.7276 76.2921 29.1588V29.1677Z" fill="#231F20"/>
<path d="M71.3373 16.6701C71.5645 16.6142 71.6326 16.0965 71.4895 15.5138C71.3464 14.9311 71.0462 14.504 70.8191 14.5599C70.5919 14.6158 70.5237 15.1335 70.6668 15.7162C70.8099 16.2989 71.1101 16.726 71.3373 16.6701Z" fill="#231F20"/>
<path d="M89.2561 30.3779C89.2561 30.3779 77.6247 31.7647 73.3711 38.3809C69.1174 44.997 67.0789 69.2975 64.9079 71.0642C62.737 72.8309 56.8419 82.1765 56.9654 82.6182C57.089 83.0599 91.1888 91.2925 91.1888 91.2925C91.1888 91.2925 92.5919 83.4485 95.5483 73.2019C98.5047 62.9552 99.0695 30.3779 89.2561 30.3779Z" fill="#30C684"/>
<path d="M80.4398 40.8542C80.1927 41.2163 68.5172 63.229 68.5172 63.229L53.1 45.5623L45.0074 52.3375C45.0074 52.3375 58.8009 75.4278 67.5994 77.6538C76.398 79.8798 94.0744 47.6205 93.5626 44.2373C93.0507 40.8542 83.8992 35.8898 80.4398 40.8542Z" fill="#30C684"/>
<path d="M68.5174 63.6706C68.4541 63.6701 68.3917 63.6564 68.334 63.6306C68.2763 63.6048 68.2245 63.5673 68.182 63.5205L61.3868 55.7383C61.3059 55.6557 61.2606 55.5447 61.2606 55.4291C61.2606 55.3135 61.3059 55.2025 61.3868 55.12C61.4707 55.0385 61.5831 54.9929 61.7 54.9929C61.817 54.9929 61.9294 55.0385 62.0133 55.12L68.3938 62.4251L78.6661 43.1066C78.6939 43.0556 78.7315 43.0105 78.7767 42.974C78.8219 42.9375 78.8739 42.9103 78.9296 42.8939C78.9853 42.8775 79.0437 42.8722 79.1015 42.8784C79.1592 42.8846 79.2152 42.9021 79.2662 42.93C79.3172 42.9578 79.3622 42.9954 79.3987 43.0407C79.4351 43.0859 79.4623 43.1379 79.4787 43.1937C79.4951 43.2495 79.5004 43.308 79.4942 43.3658C79.488 43.4236 79.4705 43.4796 79.4427 43.5306C79.3015 43.7868 68.8527 63.4056 68.8527 63.4056C68.8182 63.4671 68.77 63.5198 68.7118 63.5596C68.6536 63.5995 68.5871 63.6254 68.5174 63.6353V63.6706Z" fill="#231F20"/>
<path d="M67.52 77.7333C67.0743 77.7347 66.6291 77.7052 66.1874 77.645C60.0099 76.7617 53.5677 65.7642 53.2941 65.2783C53.2578 65.2283 53.2324 65.1713 53.2195 65.1109C53.2066 65.0504 53.2065 64.988 53.2192 64.9275C53.2319 64.867 53.2572 64.8099 53.2934 64.7598C53.3295 64.7097 53.3758 64.6678 53.4292 64.6367C53.4826 64.6057 53.5419 64.5862 53.6032 64.5795C53.6646 64.5728 53.7267 64.5791 53.7855 64.5979C53.8443 64.6168 53.8985 64.6478 53.9446 64.6889C53.9907 64.73 54.0276 64.7803 54.0531 64.8367C54.1237 64.9427 60.5659 75.9578 66.311 76.7528C72.0561 77.5478 78.11 72.6012 84.2169 62.0365C84.2775 61.9356 84.3752 61.8625 84.489 61.8328C84.6028 61.8031 84.7237 61.8191 84.8258 61.8775C84.8763 61.9059 84.9206 61.9441 84.9561 61.9899C84.9915 62.0357 85.0174 62.0882 85.0322 62.1442C85.0471 62.2002 85.0505 62.2586 85.0423 62.316C85.0341 62.3734 85.0145 62.4285 84.9847 62.4782C79.1337 72.6188 73.2651 77.7333 67.52 77.7333Z" fill="#231F20"/>
<path d="M76.0097 101.804C75.9327 101.804 75.8572 101.783 75.7906 101.744C75.724 101.706 75.6688 101.65 75.6303 101.583C71.3413 94.4372 74.6419 91.1953 74.7478 91.0628C74.7901 91.0228 74.8398 90.9915 74.8942 90.9707C74.9486 90.95 75.0065 90.9401 75.0647 90.9418C75.1229 90.9434 75.1802 90.9565 75.2333 90.9803C75.2864 91.0041 75.3343 91.0381 75.3743 91.0805C75.4143 91.1228 75.4456 91.1726 75.4663 91.2271C75.4871 91.2815 75.4969 91.3395 75.4953 91.3977C75.4936 91.456 75.4806 91.5133 75.4568 91.5665C75.433 91.6197 75.399 91.6676 75.3567 91.7077C75.2331 91.8225 72.4621 94.6403 76.3539 101.133C76.3838 101.182 76.4033 101.238 76.4115 101.295C76.4197 101.352 76.4163 101.411 76.4014 101.467C76.3866 101.523 76.3607 101.575 76.3253 101.621C76.2898 101.667 76.2455 101.705 76.1951 101.733C76.1401 101.772 76.0764 101.796 76.0097 101.804Z" fill="white"/>
<path d="M226.9 123.41C227.024 121.604 226.642 119.799 225.796 118.199C225.099 117.042 224.031 116.123 223.458 114.904C222.469 112.784 223.167 110.302 222.937 107.979C222.736 106.029 221.877 104.206 220.501 102.811C219.292 101.583 217.722 100.744 216.566 99.4633C214.668 97.361 214.121 94.4106 213.036 91.7871C211.495 88.0856 208.839 84.9575 205.437 82.839C207.511 87.0083 202.79 92.3171 204.925 96.4511C205.605 97.7673 206.902 98.7213 207.396 100.117C208.597 103.474 204.599 107.104 205.878 110.434C206.514 112.095 208.297 113.084 209.117 114.639C210.238 116.759 209.364 119.338 209.453 121.706C209.576 125.018 211.588 127.977 213.98 130.274C215.471 131.696 217.13 132.924 218.736 134.222C220.66 135.768 221.472 137.385 223.149 134.911C225.483 131.521 226.785 127.526 226.9 123.41Z" fill="#231F20"/>
<path d="M229.044 125.301C228.426 122.739 227.985 120.001 229.044 117.545C230.218 114.807 233.157 112.881 233.501 109.922C233.73 107.979 232.751 106.018 233.13 104.11C233.51 102.202 235.08 100.886 236.369 99.481C239.33 96.2188 241.092 92.0436 241.364 87.6443C243.226 90.0912 245.106 92.6087 246.12 95.5149C247.135 98.421 247.153 101.848 245.432 104.401C244.935 104.995 244.527 105.659 244.223 106.371C243.641 108.261 245.256 110.019 246.085 111.812C246.586 112.832 246.797 113.969 246.694 115.101C246.591 116.232 246.179 117.313 245.503 118.225C243.808 120.337 240.552 121.158 239.714 123.737C239.508 124.695 239.413 125.673 239.431 126.652C239.252 128.354 238.567 129.964 237.466 131.274C236.366 132.583 234.898 133.533 233.254 134.002C231.25 134.488 231.294 133.693 230.933 132.005C230.456 129.744 229.591 127.562 229.044 125.301Z" fill="#231F20"/>
<path d="M222.681 106.883C221.261 101.954 220.687 96.8222 219.195 91.9197C217.919 88.0922 216.365 84.3633 214.545 80.7632L220.643 83.3337C222.593 84.164 224.711 85.1003 225.638 87.0525C227.235 90.3827 224.358 94.6492 226.044 97.9352C226.635 99.0924 227.703 99.9227 228.462 100.974C230.227 103.5 229.98 106.972 228.991 109.904C228.568 111.168 226.723 117.695 225.073 115.885C224.411 115.16 224.349 112.448 224.076 111.468C223.643 109.922 223.123 108.394 222.681 106.883Z" fill="#231F20"/>
<path d="M226.097 172.241C224.888 164.203 221.075 135.848 221.04 135.565L221.922 135.45C221.922 135.733 225.77 164.07 226.979 172.109L226.097 172.241Z" fill="#231F20"/>
<path d="M227.358 179.847H226.476C226.547 169.671 230.685 133.648 232.795 131.343L233.448 131.944C231.63 133.931 227.438 168.893 227.358 179.847Z" fill="#231F20"/>
<path d="M229.424 178.027L228.541 177.983C229.424 157.392 225.09 114.135 225.011 113.703L225.893 113.614C225.964 114.056 230.341 157.366 229.424 178.027Z" fill="#231F20"/>
<path d="M215.559 152.87H238.257L236.669 175.836C236.537 177.754 235.683 179.55 234.279 180.862C232.875 182.174 231.026 182.903 229.106 182.903H224.693C222.773 182.903 220.924 182.174 219.52 180.862C218.116 179.55 217.262 177.754 217.13 175.836L215.559 152.87Z" fill="white"/>
<path d="M229.115 183.398H224.702C222.666 183.392 220.708 182.615 219.22 181.224C217.732 179.833 216.825 177.931 216.68 175.898L215.092 152.932C215.087 152.87 215.096 152.808 215.117 152.75C215.139 152.692 215.172 152.64 215.215 152.596C215.258 152.549 215.31 152.512 215.367 152.486C215.425 152.46 215.487 152.446 215.551 152.446H238.249C238.312 152.446 238.374 152.46 238.432 152.486C238.49 152.512 238.541 152.549 238.584 152.596C238.668 152.687 238.712 152.808 238.707 152.932L237.119 175.898C236.972 177.927 236.067 179.826 234.583 181.216C233.1 182.606 231.147 183.385 229.115 183.398ZM216.054 153.364L217.607 175.881C217.736 177.683 218.541 179.37 219.86 180.603C221.179 181.836 222.915 182.525 224.72 182.532H229.132C230.937 182.523 232.672 181.834 233.99 180.601C235.309 179.368 236.114 177.682 236.245 175.881L237.798 153.364H216.054Z" fill="#231F20"/>
<path d="M225.867 0.424017H143.53C141.688 0.424017 139.921 1.15644 138.619 2.46016C137.316 3.76388 136.584 5.53211 136.584 7.37585V25.9259C136.584 27.7696 137.316 29.5378 138.619 30.8415C139.921 32.1453 141.688 32.8777 143.53 32.8777H206.734V47.4439C206.734 46.7814 212.135 38.0717 215.356 32.913H225.876C227.718 32.913 229.484 32.1806 230.787 30.8769C232.089 29.5732 232.821 27.8049 232.821 25.9612V7.41118C232.826 6.49454 232.649 5.58603 232.302 4.73794C231.954 3.88984 231.443 3.11891 230.796 2.46951C230.15 1.8201 229.382 1.30506 228.536 0.954009C227.69 0.60296 226.783 0.42284 225.867 0.424017Z" fill="white"/>
<path d="M206.735 47.8943C206.614 47.8897 206.501 47.8381 206.418 47.7505C206.336 47.663 206.291 47.5465 206.293 47.4262V33.3105H143.53C141.575 33.3105 139.699 32.5355 138.313 31.1549C136.927 29.7743 136.144 27.9006 136.135 25.9435V7.3935C136.137 5.43334 136.916 3.55413 138.301 2.16809C139.685 0.782042 141.563 0.0023377 143.521 0H225.858C227.817 0 229.696 0.778955 231.081 2.1655C232.467 3.55205 233.245 5.43262 233.245 7.3935V25.9435C233.238 27.8983 232.458 29.7707 231.075 31.1513C229.693 32.5318 227.82 33.3082 225.867 33.3105H215.56C208.041 45.315 207.202 47.1612 207.132 47.4438C207.135 47.4995 207.128 47.5554 207.11 47.6082C207.092 47.661 207.063 47.7098 207.027 47.7516C206.99 47.7935 206.945 47.8276 206.895 47.8521C206.845 47.8766 206.79 47.891 206.735 47.8943ZM143.53 0.865666C141.804 0.865665 140.149 1.55127 138.928 2.77191C137.707 3.99255 137.019 5.64842 137.017 7.37583V25.9258C137.022 27.6517 137.71 29.3053 138.931 30.524C140.152 31.7428 141.806 32.4272 143.53 32.4272H206.735C206.852 32.4272 206.964 32.4737 207.047 32.5565C207.129 32.6394 207.176 32.7517 207.176 32.8688V45.5093C208.191 43.7427 210.353 40.068 214.986 32.6657C215.024 32.6012 215.078 32.5478 215.143 32.5107C215.208 32.4735 215.282 32.4539 215.357 32.4537H225.876C227.6 32.4513 229.253 31.7647 230.472 30.5443C231.692 29.3239 232.378 27.6694 232.38 25.9435V7.3935C232.378 5.66761 231.692 4.01308 230.472 2.7927C229.253 1.57231 227.6 0.88567 225.876 0.883333L143.53 0.865666Z" fill="#D1D3D4"/>
<path d="M152.549 24.7598C157.155 24.7598 160.889 21.0225 160.889 16.4123C160.889 11.8021 157.155 8.06482 152.549 8.06482C147.943 8.06482 144.209 11.8021 144.209 16.4123C144.209 21.0225 147.943 24.7598 152.549 24.7598Z" fill="white"/>
<path d="M152.549 25.2015C150.799 25.212 149.086 24.7017 147.627 23.7355C146.168 22.7693 145.029 21.3908 144.354 19.7751C143.679 18.1594 143.499 16.3794 143.838 14.6613C144.176 12.9431 145.016 11.3642 146.253 10.1253C147.489 8.88644 149.066 8.04336 150.782 7.70321C152.498 7.36306 154.277 7.54119 155.892 8.21497C157.506 8.88874 158.885 10.0278 159.852 11.4873C160.818 12.9469 161.33 14.6611 161.321 16.4123C161.309 18.7382 160.382 20.9657 158.739 22.6113C157.097 24.2568 154.873 25.1876 152.549 25.2015ZM152.549 8.50648C150.974 8.496 149.431 8.95445 148.117 9.82356C146.803 10.6927 145.777 11.9332 145.169 13.3875C144.561 14.8418 144.399 16.4442 144.703 17.991C145.007 19.5379 145.764 20.9593 146.877 22.0747C147.99 23.19 149.409 23.949 150.954 24.255C152.499 24.5611 154.1 24.4005 155.554 23.7936C157.007 23.1866 158.248 22.1608 159.118 20.8465C159.988 19.5322 160.447 17.9888 160.439 16.4123C160.427 14.3207 159.592 12.3178 158.115 10.838C156.639 9.35808 154.639 8.5204 152.549 8.50648Z" fill="#D1D3D4"/>
<path d="M225.188 9.84916H167.675C167.558 9.84916 167.446 9.80262 167.363 9.71979C167.28 9.63697 167.234 9.52463 167.234 9.40749C167.234 9.29035 167.28 9.17801 167.363 9.09518C167.446 9.01235 167.558 8.96582 167.675 8.96582H225.188C225.305 8.96582 225.417 9.01235 225.5 9.09518C225.582 9.17801 225.629 9.29035 225.629 9.40749C225.629 9.52463 225.582 9.63697 225.5 9.71979C225.417 9.80262 225.305 9.84916 225.188 9.84916Z" fill="#D1D3D4"/>
<path d="M225.188 15.9795H167.675C167.558 15.9795 167.446 15.9329 167.363 15.8501C167.28 15.7673 167.234 15.6549 167.234 15.5378C167.234 15.4207 167.28 15.3083 167.363 15.2255C167.446 15.1427 167.558 15.0961 167.675 15.0961H225.188C225.305 15.0961 225.417 15.1427 225.5 15.2255C225.582 15.3083 225.629 15.4207 225.629 15.5378C225.629 15.6549 225.582 15.7673 225.5 15.8501C225.417 15.9329 225.305 15.9795 225.188 15.9795Z" fill="#D1D3D4"/>
<path d="M213.944 22.101H167.675C167.558 22.101 167.446 22.0545 167.363 21.9716C167.28 21.8888 167.234 21.7765 167.234 21.6593C167.234 21.5422 167.28 21.4298 167.363 21.347C167.446 21.2642 167.558 21.2177 167.675 21.2177H213.944C214.061 21.2177 214.174 21.2642 214.256 21.347C214.339 21.4298 214.386 21.5422 214.386 21.6593C214.386 21.7765 214.339 21.8888 214.256 21.9716C214.174 22.0545 214.061 22.101 213.944 22.101Z" fill="#D1D3D4"/>
<path d="M42.8983 60.8352H40.1802C40.1802 57.3018 40.0037 52.3905 40.0037 52.3905L34.7616 60.8352H11.7019C10.6314 60.8352 9.60473 61.2602 8.84698 62.017C8.08924 62.7738 7.66237 63.8006 7.66003 64.872V78.652C7.66003 79.1829 7.76464 79.7085 7.96787 80.1989C8.1711 80.6892 8.46896 81.1346 8.8444 81.5096C9.21984 81.8846 9.66547 82.1817 10.1558 82.3841C10.6461 82.5864 11.1715 82.69 11.7019 82.6888H42.9159C43.4463 82.69 43.9717 82.5864 44.462 82.3841C44.9523 82.1817 45.398 81.8846 45.7734 81.5096C46.1488 81.1346 46.4467 80.6892 46.6499 80.1989C46.8532 79.7085 46.9578 79.1829 46.9578 78.652V64.872C46.9566 64.34 46.8506 63.8134 46.6459 63.3224C46.4411 62.8314 46.1417 62.3857 45.7646 62.0107C45.3875 61.6358 44.9402 61.3389 44.4484 61.1372C43.9566 60.9355 43.4298 60.8328 42.8983 60.8352Z" fill="white"/>
<path d="M42.8983 83.1393H11.7019C10.5152 83.1347 9.37852 82.6601 8.54018 81.8193C7.70185 80.9786 7.22998 79.8399 7.22766 78.652V64.872C7.22999 63.685 7.70213 62.5472 8.54072 61.7078C9.3793 60.8684 10.516 60.3959 11.7019 60.3935H34.5146L39.6242 52.152C39.6772 52.0733 39.7529 52.0126 39.8411 51.9779C39.9294 51.9431 40.0261 51.9361 40.1184 51.9577C40.2096 51.9837 40.2903 52.0378 40.3489 52.1123C40.4075 52.1869 40.4412 52.278 40.445 52.3729C40.445 52.3729 40.5862 56.975 40.6126 60.3935H42.8983C44.0851 60.3958 45.2227 60.8681 46.0627 61.7073C46.9026 62.5464 47.3768 63.6841 47.3814 64.872V78.652C47.3791 79.8414 46.906 80.9814 46.0658 81.8225C45.2255 82.6635 44.0866 83.137 42.8983 83.1393ZM11.7019 61.2768C10.7501 61.2792 9.83783 61.6587 9.16474 62.3324C8.49166 63.0061 8.11249 63.9192 8.11016 64.872V78.652C8.11016 79.6063 8.4883 80.5217 9.16163 81.1973C9.83497 81.8729 10.7485 82.2537 11.7019 82.256H42.9248C43.8797 82.256 44.7956 81.8763 45.4708 81.2004C46.146 80.5245 46.5254 79.6078 46.5254 78.652V64.872C46.5231 63.9177 46.1427 63.0033 45.4677 62.3293C44.7927 61.6553 43.8782 61.2768 42.9248 61.2768H40.2067C40.0897 61.2768 39.9774 61.2303 39.8947 61.1475C39.8119 61.0647 39.7654 60.9523 39.7654 60.8352C39.7654 58.5562 39.6772 55.6058 39.6331 53.8657L35.1676 61.0737C35.1258 61.136 35.0693 61.1871 35.0031 61.2225C34.937 61.258 34.8632 61.2766 34.7881 61.2768H11.7019Z" fill="#D1D3D4"/>
<path d="M17.0588 77.5125C20.2317 77.5125 22.8039 74.9379 22.8039 71.762C22.8039 68.5861 20.2317 66.0115 17.0588 66.0115C13.8859 66.0115 11.3137 68.5861 11.3137 71.762C11.3137 74.9379 13.8859 77.5125 17.0588 77.5125Z" fill="white"/>
<path d="M17.0587 77.9542C15.8369 77.9542 14.6426 77.5915 13.6267 76.9121C12.6108 76.2327 11.819 75.267 11.3515 74.1371C10.8839 73.0073 10.7616 71.764 10.9999 70.5646C11.2383 69.3651 11.8266 68.2633 12.6906 67.3986C13.5545 66.5338 14.6552 65.9449 15.8536 65.7063C17.0519 65.4678 18.294 65.5902 19.4228 66.0582C20.5516 66.5262 21.5163 67.3187 22.1951 68.3356C22.8739 69.3524 23.2362 70.5479 23.2362 71.7709C23.2362 73.4108 22.5854 74.9835 21.4269 76.1431C20.2684 77.3027 18.6971 77.9542 17.0587 77.9542ZM17.0587 66.4709C16.0115 66.4709 14.9877 66.7817 14.117 67.3641C13.2462 67.9464 12.5676 68.7742 12.1668 69.7426C11.766 70.7111 11.6612 71.7767 11.8655 72.8048C12.0698 73.8329 12.5741 74.7773 13.3146 75.5185C14.0551 76.2597 14.9986 76.7645 16.0257 76.969C17.0529 77.1735 18.1175 77.0686 19.085 76.6674C20.0526 76.2663 20.8795 75.587 21.4614 74.7154C22.0432 73.8438 22.3537 72.8191 22.3537 71.7709C22.3561 71.0734 22.2208 70.3823 21.9558 69.7372C21.6907 69.0921 21.301 68.5058 20.8091 68.0118C20.3172 67.5177 19.7327 67.1258 19.0891 66.8583C18.4456 66.5909 17.7556 66.4532 17.0587 66.4532V66.4709Z" fill="#D1D3D4"/>
<path d="M42.36 69.2533H26.3073C26.1903 69.2533 26.0781 69.2068 25.9953 69.124C25.9126 69.0411 25.8661 68.9288 25.8661 68.8117C25.8661 68.6945 25.9126 68.5822 25.9953 68.4994C26.0781 68.4165 26.1903 68.37 26.3073 68.37H42.36C42.477 68.37 42.5893 68.4165 42.672 68.4994C42.7548 68.5822 42.8013 68.6945 42.8013 68.8117C42.8013 68.9288 42.7548 69.0411 42.672 69.124C42.5893 69.2068 42.477 69.2533 42.36 69.2533Z" fill="#D1D3D4"/>
<path d="M38.9183 74.7565H26.3073C26.191 74.7542 26.0801 74.707 25.9978 74.6246C25.9156 74.5423 25.8683 74.4313 25.8661 74.3148C25.8661 74.1977 25.9126 74.0854 25.9953 74.0025C26.0781 73.9197 26.1903 73.8732 26.3073 73.8732H38.9183C39.0353 73.8732 39.1475 73.9197 39.2303 74.0025C39.313 74.0854 39.3595 74.1977 39.3595 74.3148C39.3595 74.432 39.313 74.5443 39.2303 74.6271C39.1475 74.71 39.0353 74.7565 38.9183 74.7565Z" fill="#D1D3D4"/>
</svg>
